<svg xmlns="http://www.w3.org/2000/svg" xmlns:xlink="http://www.w3.org/1999/xlink" width="344.545" height="231.174" viewBox="0 0 344.545 231.174"><defs><style>.a{fill:none;}.b,.t{fill:#1d6680;}.c{fill:#ffb700;}.d{fill:#ff42a1;}.e{fill:#5bd885;}.f{fill:#d6ff9c;}.g{fill:#54d7f7;}.h{fill:#51d1ff;}.i{opacity:0.5;}.j{opacity:0.6;}.k{clip-path:url(#a);}.l{fill:#ffb300;}.m{opacity:0.51;}.n{opacity:0.4;}.o{fill:#fff;}.p{fill:#ff6363;}.q{clip-path:url(#b);}.r{fill:#f68d2f;}.s{fill:#e26b0a;}.t{font-size:32px;font-family:AlbaMatter, Alba Matter;}</style><clipPath id="a"><path class="a" d="M208.62,194.8l-29.374-83.18,87.643,10.047Z" transform="translate(-179.246 -111.62)"/></clipPath><clipPath id="b"><path class="a" d="M351.511,237.132H338.017a9.43,9.43,0,0,1-9.783-9.783,9.7,9.7,0,0,1,2.755-7.084,9.419,9.419,0,0,1,7.028-2.811h13.494a11.04,11.04,0,0,0,8.04-3.262,10.767,10.767,0,0,0,3.317-7.983,11.325,11.325,0,0,0-11.357-11.358H338.017a9.988,9.988,0,0,1-9.783-9.782V162.13a9.989,9.989,0,0,1,9.783-9.783h33.4a9.43,9.43,0,0,1,9.783,9.783,9.772,9.772,0,0,1-2.7,7.141,9.469,9.469,0,0,1-7.084,2.754h-23.5v3.149h3.6a30.98,30.98,0,1,1,0,61.958Z" transform="translate(-328.234 -152.347)"/></clipPath></defs><g transform="translate(-102.544 -45.473)"><g transform="translate(102.544 45.473)"><g transform="translate(14.373 88.817)"><g transform="translate(29.457 14.652)"><path class="b" d="M176.077,220.379a1.318,1.318,0,1,1,1.317,1.318A1.317,1.317,0,0,1,176.077,220.379Z" transform="translate(-176.077 -219.061)"/></g><g transform="translate(24.547 14.652)"><path class="b" d="M167.84,220.379a1.318,1.318,0,1,1,1.318,1.318A1.318,1.318,0,0,1,167.84,220.379Z" transform="translate(-167.84 -219.061)"/></g><g transform="translate(19.638 14.652)"><path class="b" d="M159.6,220.379a1.318,1.318,0,1,1,1.318,1.318A1.318,1.318,0,0,1,159.6,220.379Z" transform="translate(-159.604 -219.061)"/></g><g transform="translate(14.728 14.652)"><path class="b" d="M151.367,220.379a1.318,1.318,0,1,1,1.318,1.318A1.318,1.318,0,0,1,151.367,220.379Z" transform="translate(-151.367 -219.061)"/></g><g transform="translate(9.819 14.652)"><path class="b" d="M143.131,220.379a1.318,1.318,0,1,1,1.318,1.318A1.318,1.318,0,0,1,143.131,220.379Z" transform="translate(-143.131 -219.061)"/></g><g transform="translate(4.909 14.652)"><path class="b" d="M134.894,220.379a1.318,1.318,0,1,1,1.318,1.318A1.318,1.318,0,0,1,134.894,220.379Z" transform="translate(-134.894 -219.061)"/></g><g transform="translate(0 14.652)"><path class="b" d="M126.658,220.379a1.318,1.318,0,1,1,1.318,1.318A1.318,1.318,0,0,1,126.658,220.379Z" transform="translate(-126.658 -219.061)"/></g><g transform="translate(29.457 9.768)"><path class="b" d="M176.077,212.185a1.318,1.318,0,1,1,1.317,1.318A1.317,1.317,0,0,1,176.077,212.185Z" transform="translate(-176.077 -210.867)"/></g><g transform="translate(24.547 9.768)"><path class="b" d="M167.84,212.185a1.318,1.318,0,1,1,1.318,1.318A1.318,1.318,0,0,1,167.84,212.185Z" transform="translate(-167.84 -210.867)"/></g><g transform="translate(19.638 9.768)"><path class="b" d="M159.6,212.185a1.318,1.318,0,1,1,1.318,1.318A1.318,1.318,0,0,1,159.6,212.185Z" transform="translate(-159.604 -210.867)"/></g><g transform="translate(14.728 9.768)"><path class="b" d="M151.367,212.185a1.318,1.318,0,1,1,1.318,1.318A1.318,1.318,0,0,1,151.367,212.185Z" transform="translate(-151.367 -210.867)"/></g><g transform="translate(9.819 9.768)"><path class="b" d="M143.131,212.185a1.318,1.318,0,1,1,1.318,1.318A1.318,1.318,0,0,1,143.131,212.185Z" transform="translate(-143.131 -210.867)"/></g><g transform="translate(4.909 9.768)"><path class="b" d="M134.894,212.185a1.318,1.318,0,1,1,1.318,1.318A1.318,1.318,0,0,1,134.894,212.185Z" transform="translate(-134.894 -210.867)"/></g><g transform="translate(0 9.768)"><path class="b" d="M126.658,212.185a1.318,1.318,0,1,1,1.318,1.318A1.318,1.318,0,0,1,126.658,212.185Z" transform="translate(-126.658 -210.867)"/></g><g transform="translate(29.457 4.884)"><path class="b" d="M176.077,203.992a1.318,1.318,0,1,1,1.317,1.318A1.317,1.317,0,0,1,176.077,203.992Z" transform="translate(-176.077 -202.674)"/></g><g transform="translate(24.547 4.884)"><path class="b" d="M167.84,203.992a1.318,1.318,0,1,1,1.318,1.318A1.318,1.318,0,0,1,167.84,203.992Z" transform="translate(-167.84 -202.674)"/></g><g transform="translate(19.638 4.884)"><path class="b" d="M159.6,203.992a1.318,1.318,0,1,1,1.318,1.318A1.318,1.318,0,0,1,159.6,203.992Z" transform="translate(-159.604 -202.674)"/></g><g transform="translate(14.728 4.884)"><path class="b" d="M151.367,203.992a1.318,1.318,0,1,1,1.318,1.318A1.318,1.318,0,0,1,151.367,203.992Z" transform="translate(-151.367 -202.674)"/></g><g transform="translate(9.819 4.884)"><path class="b" d="M143.131,203.992a1.318,1.318,0,1,1,1.318,1.318A1.318,1.318,0,0,1,143.131,203.992Z" transform="translate(-143.131 -202.674)"/></g><g transform="translate(4.909 4.884)"><path class="b" d="M134.894,203.992a1.318,1.318,0,1,1,1.318,1.318A1.318,1.318,0,0,1,134.894,203.992Z" transform="translate(-134.894 -202.674)"/></g><g transform="translate(0 4.884)"><path class="b" d="M126.658,203.992a1.318,1.318,0,1,1,1.318,1.318A1.318,1.318,0,0,1,126.658,203.992Z" transform="translate(-126.658 -202.674)"/></g><g transform="translate(29.457)"><path class="b" d="M176.077,195.8a1.318,1.318,0,1,1,1.317,1.318A1.317,1.317,0,0,1,176.077,195.8Z" transform="translate(-176.077 -194.48)"/></g><g transform="translate(24.547)"><path class="b" d="M167.84,195.8a1.318,1.318,0,1,1,1.318,1.318A1.318,1.318,0,0,1,167.84,195.8Z" transform="translate(-167.84 -194.48)"/></g><g transform="translate(19.638)"><path class="b" d="M159.6,195.8a1.318,1.318,0,1,1,1.318,1.318A1.318,1.318,0,0,1,159.6,195.8Z" transform="translate(-159.604 -194.48)"/></g><g transform="translate(14.728)"><path class="b" d="M151.367,195.8a1.318,1.318,0,1,1,1.318,1.318A1.318,1.318,0,0,1,151.367,195.8Z" transform="translate(-151.367 -194.48)"/></g><g transform="translate(9.819)"><path class="b" d="M143.131,195.8a1.318,1.318,0,1,1,1.318,1.318A1.318,1.318,0,0,1,143.131,195.8Z" transform="translate(-143.131 -194.48)"/></g><g transform="translate(4.909)"><path class="b" d="M134.894,195.8a1.318,1.318,0,1,1,1.318,1.318A1.318,1.318,0,0,1,134.894,195.8Z" transform="translate(-134.894 -194.48)"/></g><path class="b" d="M126.658,195.8a1.318,1.318,0,1,1,1.318,1.318A1.318,1.318,0,0,1,126.658,195.8Z" transform="translate(-126.658 -194.48)"/></g><g transform="translate(209.27)"><path class="c" d="M466.259,70.721A12.624,12.624,0,1,1,478.883,58.1,12.638,12.638,0,0,1,466.259,70.721Zm0-23.942A11.318,11.318,0,1,0,477.576,58.1,11.331,11.331,0,0,0,466.259,46.779Z" transform="translate(-453.635 -45.473)"/></g><g transform="translate(27.094 192.84)"><circle class="d" cx="2.91" cy="2.91" r="2.91"/></g><g transform="translate(313.979 122.868)"><circle class="c" cx="2.91" cy="2.91" r="2.91"/></g><g transform="translate(140.428 225.355)"><circle class="e" cx="2.91" cy="2.91" r="2.91"/></g><g transform="translate(55.783 16.4)"><circle class="f" cx="2.91" cy="2.91" r="2.91"/></g><g transform="translate(332.383 99.041)"><circle class="g" cx="5.098" cy="5.098" r="5.098" transform="matrix(0.217, -0.976, 0.976, 0.217, 0, 9.954)"/></g><g transform="translate(6.079 121.572)"><path class="h" d="M125.365,274.682a12.624,12.624,0,1,1,12.624-12.624A12.638,12.638,0,0,1,125.365,274.682Zm0-23.942a11.318,11.318,0,1,0,11.319,11.318A11.331,11.331,0,0,0,125.365,250.74Z" transform="translate(-112.742 -249.434)"/></g><g transform="translate(0 47.308)"><path class="g" d="M102.544,143.231l8.792-18.39L132,134.72Zm9.267-17.044-7.388,15.452,24.748-7.151Z" transform="translate(-102.544 -124.841)"/></g></g><g class="i" transform="translate(308.419 129.536)"><circle class="f" cx="33.345" cy="33.345" r="33.345"/></g><g transform="translate(242.938 133.797)"><path class="e" d="M358.635,285.426l-20.554-91.772,91.495,21.75Z" transform="translate(-338.081 -193.654)"/></g><g class="j" transform="translate(148.263 84.9)"><g class="k" transform="translate(0)"><g class="i" transform="translate(-22.686 -40.021)"><g transform="translate(86.05 23.649)"><rect class="l" width="110.123" height="2.272" transform="matrix(0.265, -0.964, 0.964, 0.265, 0, 106.186)"/></g><g transform="translate(80.314 22.072)"><rect class="l" width="110.123" height="2.272" transform="translate(0 106.186) rotate(-74.633)"/></g><g transform="translate(74.577 20.496)"><rect class="l" width="110.123" height="2.272" transform="matrix(0.265, -0.964, 0.964, 0.265, 0, 106.186)"/></g><g transform="translate(68.84 18.919)"><rect class="l" width="110.123" height="2.272" transform="translate(0 106.186) rotate(-74.633)"/></g><g transform="translate(63.104 17.343)"><rect class="l" width="110.123" height="2.272" transform="translate(0 106.186) rotate(-74.633)"/></g><g transform="translate(57.367 15.766)"><rect class="l" width="110.123" height="2.272" transform="matrix(0.265, -0.964, 0.964, 0.265, 0, 106.186)"/></g><g transform="translate(51.63 14.189)"><rect class="l" width="110.123" height="2.272" transform="matrix(0.265, -0.964, 0.964, 0.265, 0, 106.186)"/></g><g transform="translate(45.894 12.613)"><rect class="l" width="110.123" height="2.272" transform="matrix(0.265, -0.964, 0.964, 0.265, 0, 106.186)"/></g><g transform="translate(40.157 11.036)"><rect class="l" width="110.123" height="2.272" transform="matrix(0.265, -0.964, 0.964, 0.265, 0, 106.186)"/></g><g transform="translate(34.42 9.46)"><rect class="l" width="110.123" height="2.272" transform="translate(0 106.186) rotate(-74.633)"/></g><g transform="translate(28.683 7.883)"><rect class="l" width="110.123" height="2.272" transform="matrix(0.265, -0.964, 0.964, 0.265, 0, 106.186)"/></g><g transform="translate(22.947 6.306)"><rect class="l" width="110.123" height="2.272" transform="matrix(0.265, -0.964, 0.964, 0.265, 0, 106.186)"/></g><g transform="translate(17.21 4.73)"><rect class="l" width="110.123" height="2.272" transform="translate(0 106.186) rotate(-74.633)"/></g><g transform="translate(11.473 3.153)"><rect class="l" width="110.123" height="2.272" transform="translate(0 106.186) rotate(-74.633)"/></g><g transform="translate(5.737 1.577)"><rect class="l" width="110.123" height="2.272" transform="translate(0 106.186) rotate(-74.633)"/></g><rect class="l" width="110.123" height="2.272" transform="matrix(0.265, -0.964, 0.964, 0.265, 0, 106.186)"/></g></g></g><g transform="translate(164.738 130.811)"><circle class="h" cx="44.77" cy="44.77" r="44.77" transform="translate(0)"/></g><g transform="translate(142.64 114.299)"><path class="c" d="M218.5,258.314a48.686,48.686,0,1,1,48.687-48.686A48.741,48.741,0,0,1,218.5,258.314Zm0-89.539a40.853,40.853,0,1,0,40.853,40.853A40.9,40.9,0,0,0,218.5,168.775Z" transform="translate(-169.812 -160.942)"/></g><g transform="translate(295.178 104.503)"><path class="c" d="M474.411,241.879A48.686,48.686,0,1,1,523.1,193.193,48.741,48.741,0,0,1,474.411,241.879Zm0-89.538a40.853,40.853,0,1,0,40.853,40.853A40.9,40.9,0,0,0,474.411,152.341Z" transform="translate(-425.725 -144.507)"/></g><g transform="translate(225.537 56.983)"><g class="m" transform="translate(0 0)"><path class="g" d="M378.4,82.092l-63.417,41.033A37.767,37.767,0,1,1,378.4,82.092Z" transform="translate(-308.889 -64.784)"/></g><g transform="translate(8.437 7.785)"><path class="d" d="M381.673,114.164,323.044,101.6a29.98,29.98,0,1,1,58.629,12.565Z" transform="translate(-323.044 -77.845)"/></g><g class="i" transform="translate(6.096 17.308)"><path class="l" d="M388.545,114.276a37.764,37.764,0,0,1-69.428,20.578l63.417-41.033A37.636,37.636,0,0,1,388.545,114.276Z" transform="translate(-319.117 -93.822)"/></g><g class="n" transform="translate(7.784 31.539)"><path class="o" d="M373.123,145.117A29.978,29.978,0,0,1,322.6,117.7l58.629,12.565A29.877,29.877,0,0,1,373.123,145.117Z" transform="translate(-321.949 -117.697)"/></g></g><g transform="translate(237.238 79.489)"><path class="p" d="M409.322,102.541l-80.8,110.515,134.745,24.2Zm-2.927,23.3,38.673,96.586-96.609-17.355Z" transform="translate(-328.519 -102.541)"/><g class="i" transform="translate(10.776 10.776)"><path class="l" d="M414.476,120.62,346.6,213.452l113.193,20.33Zm-.778,12.52,38.673,96.586L355.762,212.37Z" transform="translate(-346.598 -120.62)"/></g></g><g transform="translate(230.746 104.116)"><g transform="translate(6.951 5.06)"><path class="g" d="M352.567,237.132H339.073a9.431,9.431,0,0,1-9.783-9.783,9.706,9.706,0,0,1,2.755-7.084,9.42,9.42,0,0,1,7.028-2.811h13.494a11.04,11.04,0,0,0,8.04-3.262,10.765,10.765,0,0,0,3.318-7.983,11.326,11.326,0,0,0-11.357-11.358H339.073a9.988,9.988,0,0,1-9.783-9.782V162.13a9.989,9.989,0,0,1,9.783-9.783h33.4a9.43,9.43,0,0,1,9.783,9.783,9.773,9.773,0,0,1-2.7,7.141,9.468,9.468,0,0,1-7.084,2.754h-23.5v3.149h3.6a30.98,30.98,0,1,1,0,61.958Z" transform="translate(-329.29 -152.347)"/></g><g transform="translate(6.322 5.06)"><g class="q"><g transform="translate(-46.848 -26.451)"><g transform="translate(51.065 59.112)"><rect class="o" width="115.314" height="2.983" transform="matrix(-0.757, 0.654, -0.654, -0.757, 89.212, 2.258)"/></g><g transform="translate(45.959 53.2)"><rect class="o" width="115.314" height="2.983" transform="translate(89.212 2.258) rotate(139.177)"/></g><g transform="translate(40.852 47.289)"><rect class="o" width="115.314" height="2.983" transform="translate(89.212 2.258) rotate(139.177)"/></g><g transform="translate(35.746 41.378)"><rect class="o" width="115.314" height="2.983" transform="translate(89.212 2.258) rotate(139.177)"/></g><g transform="translate(30.639 35.467)"><rect class="o" width="115.314" height="2.983" transform="translate(89.212 2.258) rotate(139.177)"/></g><g transform="translate(25.533 29.556)"><rect class="o" width="115.314" height="2.983" transform="translate(89.212 2.258) rotate(139.177)"/></g><g transform="translate(20.426 23.645)"><rect class="o" width="115.314" height="2.983" transform="translate(89.212 2.258) rotate(139.177)"/></g><g transform="translate(15.32 17.733)"><rect class="o" width="115.314" height="2.983" transform="translate(89.212 2.258) rotate(139.177)"/></g><g transform="translate(10.213 11.822)"><rect class="o" width="115.314" height="2.983" transform="translate(89.212 2.258) rotate(139.177)"/></g><g transform="translate(5.106 5.911)"><rect class="o" width="115.314" height="2.983" transform="matrix(-0.757, 0.654, -0.654, -0.757, 89.212, 2.258)"/></g><rect class="o" width="115.314" height="2.983" transform="translate(89.212 2.258) rotate(139.177)"/></g></g></g><path class="b" d="M382.06,214.025a35.616,35.616,0,0,1-36.1,35.983H332.471a14.418,14.418,0,0,1-14.843-14.843,15.879,15.879,0,0,1,1.012-5.623,15.873,15.873,0,0,1-1.012-5.622,14.6,14.6,0,0,1,4.216-10.683,14.311,14.311,0,0,1,10.627-4.273h13.494a7.221,7.221,0,0,0,2.812-.562,6.212,6.212,0,0,0-2.812-.675H332.471a14.975,14.975,0,0,1-14.843-14.843V158.7a14.975,14.975,0,0,1,14.843-14.843h33.4A14.419,14.419,0,0,1,380.711,158.7a18.386,18.386,0,0,1-.9,5.847,16.321,16.321,0,0,1,.9,5.4q0,7.759-5.173,11.919a35.019,35.019,0,0,1,6.522,20.916,33.588,33.588,0,0,1-.449,5.509A36.406,36.406,0,0,1,382.06,214.025Zm-7.309-11.245a28.238,28.238,0,0,0-28.787-28.787h-5.847v-7.646h25.75q7.533,0,7.534-7.646a7.141,7.141,0,0,0-7.534-7.534h-33.4a7.684,7.684,0,0,0-7.534,7.534V181.64a7.684,7.684,0,0,0,7.534,7.534h13.494a13.63,13.63,0,0,1,13.606,13.607,12.922,12.922,0,0,1-3.992,9.558,13.2,13.2,0,0,1-9.614,3.936H332.471a7.273,7.273,0,0,0-5.454,2.136,7.564,7.564,0,0,0-2.08,5.51,7.141,7.141,0,0,0,7.534,7.534h13.494a27.917,27.917,0,0,0,20.466-8.265A27.633,27.633,0,0,0,374.751,202.781Z" transform="translate(-317.628 -143.858)"/></g><g transform="translate(207.161 74.459)"><g transform="translate(0 0)"><rect class="c" width="2.615" height="13.944" transform="translate(0 1.849) rotate(-45)"/></g><g transform="translate(0)"><rect class="c" width="13.944" height="2.615" transform="translate(0 9.86) rotate(-45)"/></g></g><g transform="translate(388.087 88.431)"><g transform="translate(0 0)"><rect class="f" width="2.615" height="13.944" transform="translate(0 1.849) rotate(-45)"/></g><g transform="translate(0)"><rect class="f" width="13.944" height="2.615" transform="translate(0 9.86) rotate(-45)"/></g></g><g transform="translate(184.787 150.387)"><g transform="translate(9.418)"><path class="o" d="M256.323,254.191a2.452,2.452,0,0,1,1.318-2.019c.547-.39.77-.585.77-.956s-.222-.566-.77-.956a2.2,2.2,0,0,1,0-4.036c.547-.389.77-.585.77-.955s-.222-.566-.77-.955a2.2,2.2,0,0,1,0-4.036c.547-.39.77-.585.77-.955s-.222-.565-.77-.954a2.2,2.2,0,0,1,0-4.035c.547-.39.77-.585.77-.955s-.222-.566-.77-.955a2.2,2.2,0,0,1,0-4.035c.547-.389.77-.585.77-.955s-.222-.566-.77-.955a2.2,2.2,0,0,1,0-4.036c.547-.389.77-.585.77-.955h1.3A2.45,2.45,0,0,1,258.4,223.5c-.547.389-.77.585-.77.955s.223.566.77.955a2.2,2.2,0,0,1,0,4.036c-.547.389-.77.585-.77.955s.223.566.77.955a2.2,2.2,0,0,1,0,4.036c-.547.39-.77.585-.77.955s.223.565.77.955a2.2,2.2,0,0,1,0,4.035c-.547.389-.77.585-.77.955s.223.566.77.955a2.2,2.2,0,0,1,0,4.036c-.547.39-.77.585-.77.955s.223.567.77.956a2.206,2.206,0,0,1,0,4.038c-.547.39-.77.585-.77.956Z" transform="translate(-256.323 -221.486)"/></g><g transform="translate(4.709)"><path class="o" d="M248.423,254.191a2.451,2.451,0,0,1,1.317-2.019c.547-.39.77-.585.77-.956s-.223-.566-.77-.956a2.2,2.2,0,0,1,0-4.036c.547-.389.77-.585.77-.955s-.223-.566-.77-.955a2.2,2.2,0,0,1,0-4.036c.547-.39.77-.585.77-.955s-.223-.565-.77-.954a2.2,2.2,0,0,1,0-4.035c.547-.39.77-.585.77-.955s-.223-.566-.77-.955a2.2,2.2,0,0,1,0-4.035c.547-.389.77-.585.77-.955s-.223-.566-.77-.955a2.2,2.2,0,0,1,0-4.036c.547-.389.77-.585.77-.955h1.3A2.45,2.45,0,0,1,250.5,223.5c-.547.389-.77.585-.77.955s.223.566.77.955a2.2,2.2,0,0,1,0,4.036c-.547.389-.77.585-.77.955s.223.566.77.955a2.2,2.2,0,0,1,0,4.036c-.547.39-.77.585-.77.955s.222.565.77.955a2.2,2.2,0,0,1,0,4.035c-.547.389-.77.585-.77.955s.223.566.77.955a2.2,2.2,0,0,1,0,4.036c-.547.39-.77.585-.77.955s.223.567.77.956a2.205,2.205,0,0,1,0,4.038c-.547.39-.77.585-.77.956Z" transform="translate(-248.423 -221.486)"/></g><path class="o" d="M240.522,254.191a2.452,2.452,0,0,1,1.318-2.019c.547-.39.77-.585.77-.956s-.223-.566-.77-.956a2.2,2.2,0,0,1,0-4.036c.547-.389.77-.585.77-.955s-.223-.566-.77-.955a2.2,2.2,0,0,1,0-4.036c.547-.39.77-.585.77-.955s-.223-.565-.77-.954a2.2,2.2,0,0,1,0-4.035c.547-.39.77-.585.77-.955s-.223-.566-.77-.955a2.2,2.2,0,0,1,0-4.035c.547-.389.77-.585.77-.955s-.223-.566-.77-.955a2.2,2.2,0,0,1,0-4.036c.547-.389.77-.585.77-.955h1.3A2.45,2.45,0,0,1,242.6,223.5c-.547.389-.77.585-.77.955s.223.566.77.955a2.2,2.2,0,0,1,0,4.036c-.547.389-.77.585-.77.955s.223.566.77.955a2.2,2.2,0,0,1,0,4.036c-.547.39-.77.585-.77.955s.223.565.77.955a2.2,2.2,0,0,1,0,4.035c-.547.389-.77.585-.77.955s.223.566.77.955a2.2,2.2,0,0,1,0,4.036c-.547.39-.77.585-.77.955s.223.567.77.956a2.205,2.205,0,0,1,0,4.038c-.547.39-.77.585-.77.956Z" transform="translate(-240.522 -221.486)"/></g><g transform="translate(149.905 190.878)"><path class="b" d="M412.078,303.589,399.76,354.9v.008l-4.547-1.09a420.36,420.36,0,0,0-196.348,0l-4.547,1.09L182,303.589l4.539-1.1a473.543,473.543,0,0,1,221,0Z" transform="translate(-182.001 -289.418)"/><g transform="translate(3.755 3.113)"><path class="o" d="M188.3,308l1.515-.364a470.209,470.209,0,0,1,219.539,0l1.514.364L400,353.259l-1.513-.364a423.666,423.666,0,0,0-197.806,0l-1.514.364Z" transform="translate(-188.3 -294.64)"/></g><g transform="translate(5.632 4.67)"><path class="r" d="M400.123,352.436a425.214,425.214,0,0,0-198.533,0L191.45,310.2a468.66,468.66,0,0,1,218.812,0Z" transform="translate(-191.45 -297.253)"/><g transform="translate(22.187 8.414)"><path class="o" d="M245.425,351.582l-4.619.855-1.769-5.138-5.617,1.04.188,5.431-4.2.777-.733-29.989,6.7-1.24Zm-12.155-7.3,4.411-.816-4.932-14.322Z" transform="translate(-228.673 -316.196)"/><path class="o" d="M258.044,327.126l3.057,21.239-4.147.6-4.221-29.324,5.781-.833,7.26,16.872-2.526-17.553,4.105-.591,4.221,29.325-4.734.681Z" transform="translate(-238.392 -313.859)"/><path class="o" d="M289.316,323.358l2.177,21.345-4.168.425-3.005-29.471,5.81-.592,6.556,17.155-1.8-17.64,4.126-.421,3.005,29.471-4.758.485Z" transform="translate(-251.151 -312.496)"/><path class="o" d="M315.67,313.475l4.643-.334,2.126,29.547-4.643.334Z" transform="translate(-263.815 -312.085)"/><path class="o" d="M337.42,336.04l2.5-24.3,4.27-.186-3.28,29.8-6.935.3-5.852-29.4,4.693-.2Z" transform="translate(-268.846 -311.445)"/><path class="o" d="M364.858,323.9l6.39-.039.026,4.232-6.39.038.052,8.676,8.041-.048.026,4.232-12.7.077-.178-29.625,12.7-.076.026,4.232-8.04.049Z" transform="translate(-281.773 -311.369)"/><path class="o" d="M395.853,341.357a9.108,9.108,0,0,1-.309-3.651l.146-4.653c.086-2.75-.812-3.794-2.928-3.861l-1.607-.05-.379,12.056-4.653-.147.929-29.61,7.022.221c4.822.151,6.825,2.458,6.681,7.027l-.073,2.326c-.1,3.046-1.131,5-3.234,5.911,2.3,1.046,2.986,3.312,2.89,6.4l-.143,4.569a8.716,8.716,0,0,0,.395,3.611Zm-4.279-25.54-.285,9.095,1.819.057c1.734.054,2.816-.674,2.89-3.043l.092-2.919c.067-2.115-.623-3.068-2.273-3.12Z" transform="translate(-292.274 -311.398)"/><path class="o" d="M422.311,312.671c4.517.311,6.653,3.173,6.327,7.9l-.064.929-4.391-.3.085-1.224c.145-2.111-.644-2.972-2.122-3.074s-2.377.643-2.523,2.754c-.419,6.079,8.58,7.845,8,16.289-.326,4.728-2.876,7.267-7.436,6.953s-6.737-3.179-6.411-7.908l.125-1.816,4.391.3-.145,2.111c-.146,2.111.731,2.936,2.209,3.038s2.459-.594,2.6-2.706c.419-6.079-8.58-7.845-8-16.289C415.286,314.9,417.794,312.359,422.311,312.671Z" transform="translate(-303.43 -311.884)"/><path class="o" d="M454.372,345.877l-4.671-.5-.228-5.43-5.681-.608L442.42,344.6l-4.25-.455,7.865-28.953,6.775.725ZM444.808,335.4l4.461.477-.637-15.136Z" transform="translate(-313.298 -312.912)"/><path class="o" d="M478.113,348.66a9.118,9.118,0,0,1,.11-3.663l.675-4.606c.4-2.722-.375-3.862-2.469-4.168l-1.591-.234-1.749,11.934-4.606-.675,4.3-29.312,6.951,1.019c4.774.7,6.5,3.22,5.837,7.742l-.337,2.3c-.442,3.015-1.694,4.842-3.887,5.5,2.162,1.3,2.59,3.631,2.142,6.687l-.663,4.523a8.737,8.737,0,0,0-.02,3.633ZM476.772,322.8l-1.32,9,1.8.264c1.717.252,2.874-.349,3.218-2.694l.424-2.888c.307-2.094-.27-3.12-1.9-3.359Z" transform="translate(-325.543 -314.022)"/><path class="o" d="M504.265,342.38l-2.179-20.544,4.785.886,1.038,13.92,5.952-12.627,4.37.809-9.389,18.4-1.787,9.653-4.578-.847Z" transform="translate(-339.116 -315.597)"/></g></g><g transform="translate(12.318 52.774)"><path class="b" d="M408.186,390.749l-8.009,8.009c-60.595-14.588-128.659-14.366-189.185.239l-8.326-8.326,4.547-1.09a420.36,420.36,0,0,1,196.348,0l4.547,1.09v-.008Z" transform="translate(-202.666 -377.956)"/></g><g transform="translate(5.629 4.668)"><path class="s" d="M410.255,310.2l-10.137,42.231c-1.332-.319-2.671-.638-4.01-.942q4.544-18.921,9.086-37.848a467.3,467.3,0,0,0-48.592-8.985l-26.356-2.694a468.128,468.128,0,0,0-138.288,10.379c-.171-.716-.343-1.425-.514-2.141A468.543,468.543,0,0,1,410.255,310.2Z" transform="translate(-191.444 -297.249)"/></g></g><text class="t" transform="translate(292.94 132.274)"><tspan x="0" y="0">TH</tspan></text></g></svg>