<svg xmlns="http://www.w3.org/2000/svg" width="155" height="155.055" viewBox="0 0 155 155.055"><defs><style>.a{opacity:0.2;}.b{fill:#fff;stroke:rgba(0,0,0,0);stroke-miterlimit:10;}</style></defs><g class="a" transform="translate(-315.303 -124.305)"><path class="b" d="M17.47,154A17.494,17.494,0,0,1,0,136.527V79.182a17.488,17.488,0,0,1,17.47-17.47H69.983a3.5,3.5,0,0,1,0,7H17.47A10.484,10.484,0,0,0,7,79.182v57.345A10.486,10.486,0,0,0,17.47,147h98.21a10.488,10.488,0,0,0,10.478-10.474V77.37a3.5,3.5,0,1,1,7,0v59.157A17.5,17.5,0,0,1,115.68,154Zm73.47-29.471a12.249,12.249,0,1,1,12.251,12.25A12.264,12.264,0,0,1,90.939,124.529Zm7,0a5.25,5.25,0,1,0,5.251-5.251A5.255,5.255,0,0,0,97.939,124.529Zm-43.612,0a12.25,12.25,0,1,1,12.251,12.25A12.264,12.264,0,0,1,54.327,124.529Zm7,0a5.25,5.25,0,1,0,5.248-5.251A5.253,5.253,0,0,0,61.33,124.529Zm-43.618,0a12.25,12.25,0,1,1,12.251,12.25A12.264,12.264,0,0,1,17.712,124.529Zm7,0a5.25,5.25,0,1,0,5.251-5.251A5.253,5.253,0,0,0,24.712,124.529ZM54.327,91.18a12.25,12.25,0,1,1,12.251,12.25A12.268,12.268,0,0,1,54.327,91.18Zm7,0a5.25,5.25,0,1,0,5.248-5.251A5.253,5.253,0,0,0,61.33,91.18Zm-43.618,0a12.25,12.25,0,1,1,12.251,12.25A12.268,12.268,0,0,1,17.712,91.18Zm7,0a5.25,5.25,0,1,0,5.251-5.251A5.253,5.253,0,0,0,24.712,91.18ZM85.844,77.6c-6.971-7.028-8.25-17.813-6.486-24.863a3.488,3.488,0,0,1,1.8-2.265l25.556-13.132L148.188.873A3.5,3.5,0,0,1,154,3.5v19.13a3.482,3.482,0,0,1-1.219,2.649L142.4,36.668a3.5,3.5,0,0,1-.612.826,3.542,3.542,0,0,1-.552.449l-17.771,19.49c-.869,1.635-4.723,9-11.214,23.531a3.49,3.49,0,0,1-2.369,1.969,34.091,34.091,0,0,1-8.032,1.024A21.773,21.773,0,0,1,85.844,77.6Zm23.246,1.928h-.034Zm-23.244-23.6c-.8,5.276.561,12.3,4.965,16.736,3.771,3.805,9.088,5.081,15.775,3.821,4.425-9.84,7.533-16.176,9.278-19.61L105.051,46.065Zm34.023-4.946L134.4,35.053l-6.773-6.778L111.417,42.529Zm19.25-21.109L147,21.238v-10l-14.106,12.4Z" transform="translate(315.803 124.86)"/></g></svg>