<svg xmlns="http://www.w3.org/2000/svg" width="61.989" height="33.139" viewBox="0 0 61.989 33.139"><defs><style>.a{fill:#f58c2e;}.b{fill:#efefef;}.c{fill:#fff;}</style></defs><g transform="translate(-155.37 -550.322)"><path class="a" d="M213.817,557.041l3.542-3.31H155.37l3.542,3.31-3.542,3.312,3.542,3.313-3.542,3.313,3.542,3.313-3.542,3.314,3.542,3.312-3.542,3.315,3.542,3.318-3.542,3.318H217.36l-3.542-3.318,3.542-3.318-3.542-3.315,3.542-3.312-3.542-3.314,3.542-3.313-3.542-3.313,3.542-3.313Z" transform="translate(0 -3.408)"/><g transform="translate(158.913 553.406)"><rect class="b" width="1.771" height="0.454" transform="translate(35.422)"/><path class="b" d="M212.046,556.18v.454h1.771v-.227h0v-.227Z" transform="translate(-158.913 -556.18)"/><rect class="b" width="1.771" height="0.454" transform="translate(31.88)"/><rect class="b" width="1.771" height="0.454" transform="translate(49.591)"/><rect class="b" width="1.771" height="0.454" transform="translate(46.049)"/><rect class="b" width="1.771" height="0.454" transform="translate(42.507)"/><rect class="b" width="1.771" height="0.454" transform="translate(38.965)"/><rect class="b" width="1.771" height="0.454" transform="translate(28.338)"/><rect class="b" width="1.771" height="0.454" transform="translate(14.169)"/><rect class="b" width="1.771" height="0.454" transform="translate(10.627)"/><rect class="b" width="1.771" height="0.454" transform="translate(17.711)"/><rect class="b" width="1.771" height="0.454" transform="translate(7.084)"/><rect class="b" width="1.771" height="0.454" transform="translate(24.796)"/><rect class="b" width="1.771" height="0.454" transform="translate(3.542)"/><rect class="b" width="1.771" height="0.454" transform="translate(21.253)"/><rect class="b" width="1.771" height="0.454"/><rect class="b" width="1.771" height="0.454" transform="translate(10.627 26.463)"/><rect class="b" width="1.771" height="0.454" transform="translate(35.422 26.463)"/><rect class="b" width="1.771" height="0.454" transform="translate(38.965 26.463)"/><rect class="b" width="1.771" height="0.454" transform="translate(31.88 26.463)"/><path class="b" d="M212.046,577.2v.454h1.771v-.179h0V577.2Z" transform="translate(-158.913 -550.736)"/><rect class="b" width="1.771" height="0.454" transform="translate(49.591 26.463)"/><rect class="b" width="1.771" height="0.454" transform="translate(28.338 26.463)"/><rect class="b" width="1.771" height="0.454" transform="translate(42.507 26.463)"/><rect class="b" width="1.771" height="0.454" transform="translate(46.049 26.463)"/><rect class="b" width="1.771" height="0.454" transform="translate(3.542 26.463)"/><rect class="b" width="1.771" height="0.454" transform="translate(0 26.463)"/><rect class="b" width="1.771" height="0.454" transform="translate(24.796 26.463)"/><rect class="b" width="1.771" height="0.454" transform="translate(7.084 26.463)"/><rect class="b" width="1.771" height="0.454" transform="translate(14.169 26.463)"/><rect class="b" width="1.771" height="0.454" transform="translate(21.253 26.463)"/><rect class="b" width="1.771" height="0.454" transform="translate(17.711 26.463)"/></g><path class="c" d="M171.984,561.449h2.651a2.526,2.526,0,0,1,1.94.7,2.884,2.884,0,0,1,.647,2.035v5.585a2.885,2.885,0,0,1-.647,2.036,2.526,2.526,0,0,1-1.94.694h-2.651Zm2.619,9.467a.838.838,0,0,0,.655-.253,1.2,1.2,0,0,0,.229-.82V564.1a1.211,1.211,0,0,0-.229-.821.844.844,0,0,0-.655-.252h-.884v7.889Z"/><path class="c" d="M178.389,561.449h4.734v1.578h-3v2.919h2.382v1.578h-2.382v3.392h3v1.578h-4.734Z"/><path class="c" d="M185.458,561.449h2.351l1.8,11.045h-1.735l-.316-2.193v.032h-1.972l-.315,2.161h-1.61Zm1.893,7.384-.773-5.459h-.031l-.758,5.459Z"/><path class="c" d="M190.443,561.449h1.736v9.467h2.856v1.578h-4.592Z"/><path class="c" d="M196.218,571.934a2.97,2.97,0,0,1-.647-2.059v-.631h1.641V570q0,1.074.9,1.073a.848.848,0,0,0,.671-.26,1.271,1.271,0,0,0,.229-.845,2.338,2.338,0,0,0-.316-1.223,5.864,5.864,0,0,0-1.167-1.269,6.975,6.975,0,0,1-1.5-1.712,3.493,3.493,0,0,1-.426-1.728,2.885,2.885,0,0,1,.662-2.028,2.493,2.493,0,0,1,1.925-.717,2.4,2.4,0,0,1,1.886.717,3,3,0,0,1,.639,2.06v.457h-1.641v-.568a1.269,1.269,0,0,0-.221-.828.8.8,0,0,0-.647-.26q-.868,0-.868,1.056a2.084,2.084,0,0,0,.324,1.121,6.178,6.178,0,0,0,1.175,1.262,6.486,6.486,0,0,1,1.5,1.72,3.809,3.809,0,0,1,.41,1.814,2.961,2.961,0,0,1-.67,2.083,2.524,2.524,0,0,1-1.949.726A2.437,2.437,0,0,1,196.218,571.934Z"/></g></svg>