<svg xmlns="http://www.w3.org/2000/svg" width="12" height="13.999" viewBox="0 0 12 13.999"><defs><style>.a{fill:#8d9296;}</style></defs><g transform="translate(-1.157 -1)"><path class="a" d="M196.364,139.375v-6.416a.3.3,0,0,0-.077-.21.257.257,0,0,0-.2-.082h-.545a.257.257,0,0,0-.2.082.3.3,0,0,0-.077.21v6.416a.3.3,0,0,0,.077.21.257.257,0,0,0,.2.082h.545a.257.257,0,0,0,.2-.082A.3.3,0,0,0,196.364,139.375Zm2.182,0v-6.416a.3.3,0,0,0-.077-.21.257.257,0,0,0-.2-.082h-.545a.257.257,0,0,0-.2.082.3.3,0,0,0-.077.21v6.416a.3.3,0,0,0,.077.21.257.257,0,0,0,.2.082h.545a.257.257,0,0,0,.2-.082A.3.3,0,0,0,198.545,139.375Zm2.182,0v-6.416a.3.3,0,0,0-.077-.21.256.256,0,0,0-.2-.082h-.545a.257.257,0,0,0-.2.082.3.3,0,0,0-.077.21v6.416a.3.3,0,0,0,.077.21.257.257,0,0,0,.2.082h.545a.256.256,0,0,0,.2-.082A.3.3,0,0,0,200.727,139.375Zm-4.636-9.041h3.818l-.409-1.066a.24.24,0,0,0-.145-.1h-2.7a.24.24,0,0,0-.145.1Zm7.909.292v.583a.3.3,0,0,1-.077.21.257.257,0,0,1-.2.082h-.818v8.64a2.165,2.165,0,0,1-.4,1.308,1.168,1.168,0,0,1-.963.551h-7.091a1.177,1.177,0,0,1-.963-.533,2.085,2.085,0,0,1-.4-1.29V131.5h-.818a.257.257,0,0,1-.2-.082.3.3,0,0,1-.077-.21v-.583a.3.3,0,0,1,.077-.21.257.257,0,0,1,.2-.082h2.634l.6-1.522a1.244,1.244,0,0,1,.46-.574,1.151,1.151,0,0,1,.673-.237h2.727a1.151,1.151,0,0,1,.673.237,1.244,1.244,0,0,1,.46.574l.6,1.522h2.634a.256.256,0,0,1,.2.082A.3.3,0,0,1,204,130.625Z" transform="translate(-190.843 -127)"/></g></svg>