<svg xmlns="http://www.w3.org/2000/svg" width="237.951" height="228.17" viewBox="0 0 237.951 228.17"><defs><style>.a{fill:#2fb5f6;}.b,.c{fill:#17222d;}.c{opacity:0.88;}.d{fill:#fff;}</style></defs><g transform="translate(-88.024 -362.392)"><g transform="translate(89.346 346)"><path class="a" d="M44.07-120.684H18.08v-17.628q10.622,0,17.063-1.808a21.462,21.462,0,0,0,10.283-5.989q3.842-4.181,6.78-12.091H68.93V0H44.07ZM117.972,2.26Q99.892,2.26,90.4-8.023T80.908-37.516v-12.43h23.5v14.238q0,15.368,12.882,15.368t12.882-15.368V-71.19q0-15.594-12.882-15.594T104.412-71.19v1.356h-23.5l4.52-88.366h65.54v22.6H107.576l-2.034,37.742h.452q7.006-11.526,21.47-11.526,13.56,0,20.566,9.266t7.006,26.894v35.708q0,19.21-9.492,29.493T117.972,2.26Z" transform="translate(-0.346 203)"/><path class="a" d="M17.484-38.564q-6.448,0-9.8-3.6T4.34-52.452v-21.7q0-6.7,3.348-10.292t9.8-3.6q6.448,0,9.8,3.6t3.348,10.292v21.7q0,6.7-3.348,10.292T17.484-38.564ZM48.98-86.8h8.68L24.056,0h-8.68Zm-31.5,40.424q4.464,0,4.464-5.456v-22.94q0-5.456-4.464-5.456T13.02-74.772v22.94Q13.02-46.376,17.484-46.376ZM55.552,1.24q-6.448,0-9.8-3.6T42.408-12.648v-21.7q0-6.7,3.348-10.292t9.8-3.6q6.448,0,9.8,3.6T68.7-34.348v21.7q0,6.7-3.348,10.292T55.552,1.24Zm0-7.812q4.464,0,4.464-5.456v-22.94q0-5.456-4.464-5.456t-4.464,5.456v22.94Q51.088-6.572,55.552-6.572Z" transform="translate(162.654 132)"/></g><path class="b" d="M119.841,15.9h-5.778L112.911,19h-1.35l4.68-12.4h1.422l4.68,12.4h-1.368Zm-.378-1.008-2.5-6.84-2.538,6.84Zm17.28,2.682,3.294-8.406H141.4L137.445,19h-1.44l-3.96-9.828h1.368Zm19.476-8.532a4.182,4.182,0,0,1,2.547.774,3.917,3.917,0,0,1,1.449,2.052v-2.7h1.242V19h-1.242V16.3a3.917,3.917,0,0,1-1.449,2.052,4.182,4.182,0,0,1-2.547.774,4.658,4.658,0,0,1-2.385-.612,4.178,4.178,0,0,1-1.638-1.755,5.792,5.792,0,0,1-.585-2.673,5.834,5.834,0,0,1,.585-2.691,4.137,4.137,0,0,1,1.629-1.746A4.7,4.7,0,0,1,156.219,9.046Zm.324,1.116a3.489,3.489,0,0,0-2.655,1.053,4,4,0,0,0-1,2.871,4,4,0,0,0,1,2.871,3.489,3.489,0,0,0,2.655,1.053,3.677,3.677,0,0,0,1.881-.486,3.421,3.421,0,0,0,1.314-1.377,4.3,4.3,0,0,0,.477-2.061,4.3,4.3,0,0,0-.477-2.061,3.421,3.421,0,0,0-1.314-1.377A3.677,3.677,0,0,0,156.543,10.162ZM172.9,6.256a.8.8,0,0,1,.261-.63.973.973,0,0,1,.675-.234.94.94,0,0,1,.666.234.818.818,0,0,1,.252.63.8.8,0,0,1-.252.612.94.94,0,0,1-.666.234.973.973,0,0,1-.675-.234A.783.783,0,0,1,172.9,6.256Zm1.566,2.916V19h-1.278V9.172ZM187.485,5.68V19h-1.278V5.68Z" transform="translate(57 357)"/><g transform="translate(88.024 524.463)"><path class="c" d="M118.976,66c-57.839.044-103.075.1-103.075.1v-.15H1.82a1.678,1.678,0,0,1-1.769-1.6,1.486,1.486,0,0,1,.521-1.114L6.265,58.1.477,52.889a1.366,1.366,0,0,1,0-2.074l5.879-5.3L.568,40.3a1.367,1.367,0,0,1,0-2.071L6.31,33.058.568,27.886a1.367,1.367,0,0,1,0-2.071l5.882-5.3-5.882-5.3a1.37,1.37,0,0,1,0-2.074l5.882-5.3L.673,2.64A1.444,1.444,0,0,1,.166,1.557,1.631,1.631,0,0,1,1.885,0L118.977.085,236.067,0a1.632,1.632,0,0,1,1.719,1.557,1.443,1.443,0,0,1-.506,1.082L231.5,7.846l5.882,5.3a1.372,1.372,0,0,1,0,2.074l-5.882,5.3,5.882,5.3a1.369,1.369,0,0,1,0,2.071l-5.741,5.172,5.741,5.172a1.369,1.369,0,0,1,0,2.071l-5.788,5.217,5.882,5.3a1.37,1.37,0,0,1,0,2.074L231.688,58.1l5.691,5.128a1.479,1.479,0,0,1,.519,1.114,1.678,1.678,0,0,1-1.769,1.6H222.05v.15S176.814,66.041,118.976,66Z" transform="translate(0 0)"/><path class="d" d="M-60.864-11.36a12,12,0,0,1-1.424,5.9,9.975,9.975,0,0,1-4.1,4.016A13.063,13.063,0,0,1-72.672,0h-8.544V-22.624h8.544a13.283,13.283,0,0,1,6.3,1.408,9.823,9.823,0,0,1,4.08,3.968A11.909,11.909,0,0,1-60.864-11.36ZM-73.152-4.9a6.915,6.915,0,0,0,4.976-1.7A6.28,6.28,0,0,0-66.4-11.36a6.28,6.28,0,0,0-1.776-4.768,6.915,6.915,0,0,0-4.976-1.7h-2.592V-4.9Zm20.864-17.728V0H-57.76V-22.624ZM-32.256-6.368a6.238,6.238,0,0,1-.912,3.3,6.432,6.432,0,0,1-2.688,2.4,9.471,9.471,0,0,1-4.3.9,10.137,10.137,0,0,1-6.272-1.856A6.725,6.725,0,0,1-49.12-6.816H-43.3A3.074,3.074,0,0,0-42.384-4.8a2.806,2.806,0,0,0,2,.736A2.321,2.321,0,0,0-38.72-4.64a2.016,2.016,0,0,0,.608-1.536,1.983,1.983,0,0,0-.56-1.44,4.391,4.391,0,0,0-1.392-.944q-.832-.368-2.3-.88a28.287,28.287,0,0,1-3.5-1.424,6.453,6.453,0,0,1-2.336-2.048,5.927,5.927,0,0,1-.976-3.536,5.954,5.954,0,0,1,1.024-3.488,6.509,6.509,0,0,1,2.832-2.256,10.329,10.329,0,0,1,4.144-.784,9.29,9.29,0,0,1,6,1.792,6.838,6.838,0,0,1,2.512,4.928h-5.92a3.036,3.036,0,0,0-.816-1.776,2.4,2.4,0,0,0-1.776-.656,2.288,2.288,0,0,0-1.552.512,1.88,1.88,0,0,0-.592,1.5,1.91,1.91,0,0,0,.528,1.36,4.024,4.024,0,0,0,1.328.912q.8.352,2.3.9a25.325,25.325,0,0,1,3.552,1.456,6.8,6.8,0,0,1,2.368,2.1A5.988,5.988,0,0,1-32.256-6.368Zm13.376-16.48a11.067,11.067,0,0,1,7.152,2.272,10.4,10.4,0,0,1,3.664,6.144h-5.792A5.314,5.314,0,0,0-15.824-16.9a5.5,5.5,0,0,0-3.152-.9,4.8,4.8,0,0,0-3.872,1.76,7.1,7.1,0,0,0-1.472,4.7A7.032,7.032,0,0,0-22.848-6.64,4.82,4.82,0,0,0-18.976-4.9a5.5,5.5,0,0,0,3.152-.9,5.337,5.337,0,0,0,1.968-2.432h5.792A10.452,10.452,0,0,1-11.728-2.1,11.015,11.015,0,0,1-18.88.192a11.284,11.284,0,0,1-5.792-1.456,9.883,9.883,0,0,1-3.856-4.08,12.815,12.815,0,0,1-1.36-5.984,12.815,12.815,0,0,1,1.36-5.984,9.883,9.883,0,0,1,3.856-4.08A11.284,11.284,0,0,1-18.88-22.848Zm24.64-.128a11.511,11.511,0,0,1,5.808,1.488A10.841,10.841,0,0,1,15.68-17.36a11.841,11.841,0,0,1,1.5,5.968,11.83,11.83,0,0,1-1.52,5.984,10.923,10.923,0,0,1-4.128,4.144A11.449,11.449,0,0,1,5.76.224,11.449,11.449,0,0,1-.016-1.264,10.923,10.923,0,0,1-4.144-5.408a11.83,11.83,0,0,1-1.52-5.984,11.743,11.743,0,0,1,1.52-5.968A10.956,10.956,0,0,1-.016-21.488,11.449,11.449,0,0,1,5.76-22.976Zm0,5.088a5.486,5.486,0,0,0-4.272,1.744A6.8,6.8,0,0,0-.1-11.392,6.815,6.815,0,0,0,1.488-6.656,5.461,5.461,0,0,0,5.76-4.9a5.473,5.473,0,0,0,4.256-1.76,6.772,6.772,0,0,0,1.6-4.736,6.815,6.815,0,0,0-1.584-4.736A5.461,5.461,0,0,0,5.76-17.888Zm19.808-4.736V-9.568a5.144,5.144,0,0,0,1.008,3.424A3.632,3.632,0,0,0,29.5-4.96a3.632,3.632,0,0,0,2.928-1.184A5.144,5.144,0,0,0,33.44-9.568V-22.624h5.472V-9.568a10.752,10.752,0,0,1-1.248,5.392,8.113,8.113,0,0,1-3.408,3.3,10.568,10.568,0,0,1-4.88,1.1,10.207,10.207,0,0,1-4.8-1.088,7.727,7.727,0,0,1-3.264-3.3,11.321,11.321,0,0,1-1.184-5.408V-22.624ZM62.656,0H57.184L48.032-13.888V0H42.56V-22.624h5.472L57.184-8.608V-22.624h5.472ZM82.688-22.624v4.352H76.544V0h-5.5V-18.272H64.96v-4.352Z" transform="translate(115.976 44.537)"/></g></g></svg>