<svg xmlns="http://www.w3.org/2000/svg" width="40.246" height="50.563" viewBox="0 0 40.246 50.563">
  <g id="down-arrow-sketch" transform="translate(0 0)">
    <g id="Group_2759" data-name="Group 2759" transform="translate(0 0)">
      <path id="Path_5531" data-name="Path 5531" d="M19.99,11.866C26.968,8.156,33.605,3.855,40.532.053A.417.417,0,0,1,41.1.2a40.117,40.117,0,0,1,2.65,6.564c.069-.106.147-.208.214-.314a.125.125,0,0,1,.216.126c-.1.183-.212.374-.316.56.387,1.252.739,2.517,1.077,3.789.042-.075.093-.145.134-.22.076-.14.282-.017.212.124-.078.157-.169.3-.251.458q.186.7.369,1.41a.121.121,0,0,1,.063.165l-.013.025q.24.922.483,1.847c.255.962.524,1.92.8,2.876l.05-.06,0,0c.061-.063.183.012.131.1-.037.063-.083.12-.122.182.917,3.21,1.878,6.4,2.578,9.654a.129.129,0,0,1,.174.175c-.032.06-.07.118-.1.178.094.449.188.9.271,1.351a.1.1,0,0,1,.023.1l0,0c.138.764.261,1.532.36,2.306.08-.084.231,0,.165.113-.041.069-.079.142-.119.212.006.053.016.105.023.158a32.1,32.1,0,0,1,9.624-1.95c.2-.014.277.231.19.368a.216.216,0,0,1-.008.155c-3.011,6.66-6.448,13.125-9.634,19.7a.408.408,0,0,1-.457.187,38.732,38.732,0,0,1-5.8-1.764.109.109,0,0,1-.09-.035c-1.051-.405-2.085-.847-3.11-1.313-.025.016-.047.042-.073.057a.128.128,0,0,1-.174-.173c-.254-.117-.505-.243-.758-.363a.142.142,0,0,1-.193-.092c-.349-.167-.694-.351-1.042-.522-.018.013-.034.029-.052.042a.127.127,0,0,1-.18-.158c-1.089-.538-2.173-1.091-3.257-1.652a.1.1,0,0,1-.038-.02c-.692-.358-1.387-.722-2.081-1.085l-.014-.007-1.364-.712a.354.354,0,0,1-.2-.362.248.248,0,0,1-.069-.185A29.373,29.373,0,0,1,32,37.47a.434.434,0,0,1,.3-.3,9.742,9.742,0,0,0,1.749-.8c.144-.077.292-.183.449-.265-.085-.105-.179-.2-.265-.306-.016.014-.029.032-.045.046-.124.1-.347-.03-.239-.184l.074-.1c-3.394-4.087-7.318-7.647-10.795-11.657-3.29-3.795-3.291-6.451-3.111-11.235A.433.433,0,0,1,19.99,11.866Zm1.036.441c-.033.834-.1,1.65-.141,2.458a24.215,24.215,0,0,1,1.4-3.15C21.867,11.845,21.45,12.083,21.025,12.307ZM34.116,4.716Q32.37,5.759,30.628,6.806c-2.867,3.377-4.456,7.491-6.578,11.29a.33.33,0,0,1,.062.021c.294-.14.592-.268.889-.4.445-.871,1.2-1.731,1.685-2.541,1.023-1.691,1.993-3.414,3.023-5.1C30.33,9.061,32.277,4.9,33.9,5.2c.019,0,.015.037,0,.034-1.508-.17-4.224,6.015-4.811,7.051-.83,1.464-1.658,2.929-2.546,4.359-.1.159-.208.349-.328.545.345-.144.689-.288,1.036-.427a.2.2,0,0,1,.316-.22C27.3,16.337,34.456,6,36.225,3.326,35.23,3.953,34.4,4.547,34.116,4.716Zm4.857,31.1c-.043.052-.082.11-.125.163.851,1.234,1.677,2.485,2.44,3.778a.461.461,0,0,1-.054.862c-1.044.268-2.086.532-3.122.826-3.5.989-1.2,1.283.441,1.905,1.975.75,4,1.39,5.936,2.238,2.8,1.224,2.9,1.085,4.1-1.69.91-2.1,1.93-4.114,3.033-6.1a.208.208,0,0,1,.015-.144c.194-.356.407-.7.624-1.041-.85.388-1.707.761-2.555,1.152q-.756.35-1.5.722c-.142.071-.855.371-.756.257-.224.258-.639-.016-.554-.322a.987.987,0,0,1,.291-.447c-3.027-8.451-4.9-17.271-7.925-25.732-4.412,3.052-9.695,4.3-14.508,6.575C29.48,24.369,34.536,29.771,38.7,35.775c.037-.039.069-.082.105-.121C38.914,35.545,39.066,35.7,38.973,35.817Zm1.183,3.326a4.582,4.582,0,0,1-.39.914c.295-.08.586-.16.886-.239C40.49,39.589,40.32,39.368,40.156,39.142ZM36.661,3.059c-1.735,3.656-4.223,6.863-6.4,10.26a28.837,28.837,0,0,1-1.629,2.894l.095-.038A44.731,44.731,0,0,0,38.386,2.119,18.257,18.257,0,0,0,36.661,3.059Zm2.1-1.1a33.1,33.1,0,0,1-4.2,8.115c-.361.554-.742,1.125-1.14,1.694,2.5-3.167,5.054-6.335,6.4-10.156A5.522,5.522,0,0,0,38.761,1.958Zm2.382.112a.92.92,0,0,0-1-.492A24.318,24.318,0,0,1,36.42,8.8a42.264,42.264,0,0,1-4.944,6.328c.526-.2,1.052-.4,1.574-.6,2.715-4.161,5.633-8.113,8.094-12.451Zm.129.311A52.362,52.362,0,0,1,34.077,14.1c.5-.2,1-.4,1.495-.618,2.019-3.294,4.646-6.161,6.281-9.692C41.669,3.317,41.472,2.849,41.271,2.381ZM42,4.178c-1.38,3.256-3.613,6.03-5.614,8.926.346-.162.694-.321,1.035-.494,1.882-2.218,3.3-4.755,5.088-7.044C42.342,5.1,42.169,4.639,42,4.178Zm.636,1.776c-1.2,1.754-2.275,3.614-3.542,5.32a.446.446,0,0,1,.759.122c.077.209.146.422.219.633C41,10.509,42.139,9.077,43.178,7.6,43.014,7.044,42.817,6.5,42.632,5.954ZM43.4,8.335c-.022-.082-.049-.161-.072-.242a27.714,27.714,0,0,1-3.067,4.482c.073.215.148.429.222.643a.164.164,0,0,1,.145,0,7.332,7.332,0,0,1,.941-1.362,22.052,22.052,0,0,0,2-2.9C43.511,8.754,43.452,8.544,43.4,8.335Zm.688,2.483c-.614.93-1.118,1.934-1.736,2.864-.116.175-1.075,1.52-1.208.642a.162.162,0,0,1,.312-.086c-.023-.058.416-.505.51-.63.26-.348.489-.723.72-1.09.419-.666.791-1.379,1.273-2,.011-.014.026-.014.039-.023q-.178-.64-.355-1.279c-.524.884-1,1.793-1.6,2.633a9.82,9.82,0,0,0-.975,1.35,5.166,5.166,0,0,1-.34.733c.24.7.494,1.4.726,2.1.013.017.032.023.042.047l-.016.032.008.025c.032-.047.075-.112.141-.215q.133-.217.273-.429c.312-.481.674-.934,1-1.408.5-.735,1-1.472,1.476-2.223C44.275,11.511,44.18,11.165,44.083,10.819Zm.846,3.05c-.422.768-.874,1.522-1.359,2.247-.129.194-.941,1.56-1.309,1.024-.114-.166.127-.32.264-.2-.124-.106-.125-.005.026-.2.1-.127.2-.249.305-.374.316-.388.6-.8.882-1.217.374-.545.737-1.1,1.083-1.669-.112-.4-.222-.8-.334-1.2-.744,1.243-1.579,2.428-2.33,3.669a2.313,2.313,0,0,1-.529.635c.209.641.423,1.28.627,1.924,0-.016,0-.033.009-.049a20,20,0,0,1,1.444-1.834,18.377,18.377,0,0,1,1.5-1.751C45.113,14.534,45.021,14.2,44.929,13.869Zm.345,1.246c-.468.607-.908,1.239-1.374,1.848a8.323,8.323,0,0,1-1.411,1.714.14.14,0,0,1-.183-.019c.157.5.323.989.476,1.487a21.147,21.147,0,0,0,2.861-3.7C45.519,16,45.4,15.559,45.274,15.115Zm.979,3.532c-.3.421-.622.834-.939,1.243a10.628,10.628,0,0,1-1.653,1.935c-.166.128-.474-.044-.322-.248C43.8,20.951,44.4,20.4,44.9,19.813c.427-.5.838-1.005,1.253-1.511-.129-.468-.259-.934-.389-1.4a24.535,24.535,0,0,1-1.419,2.23c-.3.413-.846,1.342-1.451,1.4q.408,1.332.8,2.669a.145.145,0,0,1,.148.142,2.229,2.229,0,0,0-.006.225c.459-.712.98-1.391,1.474-2.077.393-.546.912-1.1,1.263-1.658C46.473,19.437,46.361,19.042,46.252,18.646Zm.379,1.369a28.271,28.271,0,0,1-2.557,3.994.279.279,0,0,1-.108.092c.074.256.152.511.226.768.344-.453,1.229-1.446,1.36-1.623.489-.662.949-1.344,1.411-2.025C46.856,20.819,46.741,20.418,46.632,20.015Zm.441,1.6c-.646,1-1.287,2-2.008,2.937a4.47,4.47,0,0,1-.737.78c.125.438.255.873.379,1.311A26.478,26.478,0,0,0,46.3,24.53a14.364,14.364,0,0,1,1.108-1.695C47.3,22.427,47.181,22.023,47.072,21.616Zm.454,1.68c-.366.641-.814,1.264-1.2,1.871A8.508,8.508,0,0,1,44.836,27.1c.1.367.211.734.313,1.1.456-.53.961-1.029,1.381-1.588.476-.635.909-1.3,1.355-1.956C47.769,24.2,47.644,23.751,47.526,23.3ZM48,25.1c-.407.674-.835,1.336-1.292,1.975A8.461,8.461,0,0,1,45.3,28.74c.127.461.26.92.384,1.381.413-.571.874-1.112,1.27-1.7.469-.693.9-1.409,1.352-2.115C48.207,25.9,48.1,25.5,48,25.1Zm.4,1.588c-.373.643-.744,1.287-1.135,1.919A7.769,7.769,0,0,1,45.8,30.538c.148.55.3,1.1.45,1.651a17.932,17.932,0,0,1,1.54-2.271c.36-.512.682-1.047,1.012-1.577C48.675,27.787,48.527,27.238,48.4,26.685Zm.5,2.1c-.267.438-.543.87-.823,1.3a16.221,16.221,0,0,1-1.686,2.419c-.016.017-.034.017-.051.025.1.394.215.787.318,1.18.737-1.307,1.763-2.464,2.494-3.788C49.071,29.543,48.981,29.165,48.9,28.786Zm.348,1.614c-.332.651-.716,1.279-1.1,1.9A17.322,17.322,0,0,1,46.812,34.3c.164.632.338,1.264.5,1.9.377-.637.8-1.254,1.163-1.9.378-.663.754-1.325,1.157-1.973C49.513,31.685,49.377,31.043,49.245,30.4Zm3.535,1.675c-.992,1.453-1.667,3.229-2.871,4.506-.119.127-.317-.035-.236-.182a41.057,41.057,0,0,1,2.674-4.2c-.727.219-1.448.458-2.154.749a.29.29,0,0,1-.265.07h0a.242.242,0,0,1-.1-.03.345.345,0,0,1-.16-.166,17.253,17.253,0,0,1-2.243,3.827c.062.244.126.488.188.732.486-.825,1.133-1.614,1.661-2.4A10.615,10.615,0,0,1,51.2,32.7c.108-.091.26.055.157.158A15.079,15.079,0,0,0,49.3,35.7a14.845,14.845,0,0,1-1.1,1.7c.246-.1.483-.2.662-.279.808-.375,1.629-.776,2.473-1.09,0,0,0,0,0,0,.363-.65.855-1.233,1.242-1.873A22.135,22.135,0,0,0,53.791,31.8c0-.011.015-.012.022-.019C53.466,31.872,53.125,31.978,52.78,32.076Zm1.115-.31a.089.089,0,0,1,.067.111,11.357,11.357,0,0,1-1.984,3.939c.052-.016.1-.037.156-.052a.426.426,0,0,1,.47.192l.01.032c.016.006.021.023.029.038A21.986,21.986,0,0,0,55.22,31.63c.061-.162.321-.1.263.073a21.914,21.914,0,0,1-2.463,4.589.263.263,0,0,1-.022.136Q50.686,41.147,48.69,46c3.082-4.752,6.174-9.519,8.112-14.867C55.827,31.319,54.857,31.526,53.9,31.765ZM50.488,48.138c2.771-5.931,5.728-11.813,9-17.481l-1.259.216c-.223,2.876-1.779,5.332-3.334,7.706-2.3,3.515-4.528,7.053-6.592,10.717A2.214,2.214,0,0,0,50.488,48.138Zm-2.734,1.139a97.126,97.126,0,0,1,5.537-9.367c1.852-2.69,4.1-5.672,4.625-8.981-.275.048-.548.1-.822.153-1.957,6.7-6.227,12.326-9.983,18.1C47.329,49.222,47.55,49.261,47.755,49.277Zm-1.063-.164c.242-.382.488-.763.733-1.144a.464.464,0,0,1-.062-.018c-.257-.139-.52-.264-.78-.4a1.537,1.537,0,0,1-1.006,1.226c-.108.034-.16-.1-.1-.173.332-.418.781-.6.846-1.186-.154-.076-.312-.146-.467-.219-.429.44-.886.864-1.358,1.262A16.691,16.691,0,0,0,46.692,49.113Zm-2.474-.751c.442-.453.969-.833,1.451-1.246-.353-.166-.715-.307-1.072-.463a7.227,7.227,0,0,1-1.4,1.3C43.538,48.1,43.881,48.236,44.217,48.362Zm-2.349-.993c.345-.382.794-.662,1.172-1.012.14-.129.346.075.21.21a10.36,10.36,0,0,1-1.1.932c.246.111.491.22.734.324.487-.431.991-.838,1.474-1.272-.655-.282-1.317-.546-1.981-.807a8.176,8.176,0,0,1-1.072,1.36C41.5,47.194,41.682,47.283,41.869,47.369Zm-.94-.446c.2-.24.416-.47.616-.7.172-.2.332-.409.5-.615-.235-.092-.471-.18-.707-.27a7.881,7.881,0,0,1-1.034,1.27C40.51,46.712,40.718,46.82,40.929,46.923Zm-.968-.486c.36-.406.77-.771,1.112-1.2l-.962-.363c-.331.366-.661.763-1.026,1.106C39.376,46.133,39.666,46.286,39.961,46.436Zm-1.22-.636a13.7,13.7,0,0,1,1.093-1.031c-.306-.115-.612-.233-.918-.348a4.638,4.638,0,0,1-1.036.914C38.164,45.49,38.45,45.645,38.741,45.8Zm-1.257-.683A7.968,7.968,0,0,0,38.6,44.3c-.341-.129-.68-.262-1.02-.392a6.236,6.236,0,0,1-.933.742Q37.058,44.882,37.484,45.118Zm-1.077-.6a3.431,3.431,0,0,1,.8-.75c-.281-.109-.558-.229-.838-.34a4.422,4.422,0,0,1-.568.745Zm-.965-.552c.1-.085.194-.17.283-.265a4.567,4.567,0,0,0,.314-.408c-.419-.169-.842-.331-1.257-.51a.452.452,0,0,1,0-.774,17.493,17.493,0,0,1,4.476-1.812A4.187,4.187,0,0,0,40,38.924c-.293-.4-.583-.8-.879-1.2a4.18,4.18,0,0,1-.862,1.405c-.27.358-.55.708-.834,1.054a2.839,2.839,0,0,1-.857.858c-.1.045-.281-.031-.223-.172A7.1,7.1,0,0,1,37.675,39.3c.292-.337.577-.682.847-1.037.145-.19.432-.453.477-.7-.224-.3-.44-.61-.667-.91-1.5,2.08-2.7,4.6-4.534,6.355C34.292,43.3,34.834,43.614,35.441,43.963ZM33.27,37.735c-.18.079-.364.147-.55.213-.038.014-.219,1.286-.244,1.416l0,.021c.535-.678,1.088-1.342,1.65-2C33.8,37.529,33.478,37.643,33.27,37.735Zm-.9,2.389c-.007.006-.018,0-.026.008-.109.627-.214,1.255-.328,1.881a.391.391,0,0,1,.061.018c.3.158.733.405,1.247.7,1.563-2.121,3.077-4.34,4.823-6.32-.472-.62-.966-1.219-1.447-1.831C35.482,36.458,34.134,38.732,32.368,40.124Zm2.038-5.107q.427-.6.851-1.2c.1-.144.333-.016.239.14a15.377,15.377,0,0,1-.843,1.4c.165.232.344.448.5.684a.383.383,0,0,1,.06.052c.46-.548.914-1.1,1.347-1.672-.6-.766-1.225-1.517-1.841-2.274A8.294,8.294,0,0,1,33.622,34C33.883,34.343,34.154,34.67,34.407,35.017Zm-1.027-1.324a14.358,14.358,0,0,0,1.151-1.72c.009-.016.023-.018.035-.028-.248-.3-.507-.6-.757-.905a5.82,5.82,0,0,1-1.129,1.8C32.912,33.125,33.151,33.4,33.379,33.693Zm-1.737-2.051c.2-.516.646-.968.852-1.485.053-.133.267-.08.218.06a5.389,5.389,0,0,1-.889,1.631c.192.224.4.438.585.664A8.647,8.647,0,0,0,33.6,30.859c.009-.017.024-.018.036-.028-.481-.583-.973-1.158-1.457-1.737a14.26,14.26,0,0,1-1.311,1.574.134.134,0,0,1-.067.031C31.078,31.013,31.367,31.322,31.642,31.642ZM30.617,30.5c0-.006,0-.012,0-.018a6.832,6.832,0,0,1,1.331-1.654c-.318-.38-.638-.758-.957-1.137-.15.263-.287.533-.447.789-.213.338-.457.8-.861.937a.12.12,0,0,1-.057,0C29.959,29.772,30.292,30.131,30.617,30.5Zm-1.123-1.234a.138.138,0,0,1,.039-.11,8.033,8.033,0,0,0,1.276-1.683l-.7-.837c-.291.649-.781,1.507-1.389,1.48a.145.145,0,0,1-.038-.284,2.652,2.652,0,0,0,1.247-1.411c-.3-.357-.6-.718-.9-1.075a9.284,9.284,0,0,1-.675,1.191,2.36,2.36,0,0,1-.7.771C28.272,27.954,28.892,28.6,29.494,29.262Zm-2.553-2.714c.151.154.292.314.442.469a8.58,8.58,0,0,0,1.4-1.963c-.2-.237-.4-.476-.6-.713-.278.763-.914,1.711-1.687,1.736-.029,0-.049-.026-.073-.043C26.6,26.208,26.779,26.38,26.942,26.548Zm-.567-.566a.121.121,0,0,1,0-.122,5.388,5.388,0,0,1,.859-.7,2.611,2.611,0,0,0,.707-1.112c-.195-.231-.388-.464-.583-.7a.129.129,0,0,1-.006.056,6.407,6.407,0,0,1-.725,1.072,3.845,3.845,0,0,1-.843.927C25.986,25.6,26.184,25.795,26.375,25.982Zm-.929-.9c.609-.576,1.12-1.224,1.7-1.829a.115.115,0,0,1,.093-.038c-.278-.33-.554-.662-.832-.992-.3.471-.586.951-.9,1.411a1.8,1.8,0,0,1-.793.73C24.96,24.605,25.2,24.847,25.446,25.08Zm-1.007-1a8.421,8.421,0,0,0,1.8-2.07c-.255-.3-.509-.608-.764-.911a10.753,10.753,0,0,1-.821,1.5,3.646,3.646,0,0,1-.785.883C24.054,23.687,24.245,23.887,24.439,24.084Zm-.935-1a10.4,10.4,0,0,0,.957-1.018,13.06,13.06,0,0,0,.794-1.221c-.19-.225-.379-.452-.569-.678a4.475,4.475,0,0,1-1.6,2.416C23.224,22.75,23.357,22.92,23.5,23.084Zm-.664-.793a10.642,10.642,0,0,1,.87-1.136,9.06,9.06,0,0,0,.743-1.265c-.284-.338-.57-.674-.851-1.015a27.475,27.475,0,0,1-1.524,2.35A10.842,10.842,0,0,0,22.84,22.292ZM21.592,20.3c.06.14.144.278.216.418A46.85,46.85,0,0,1,30.147,7.093c-.956.572-1.919,1.133-2.88,1.7-1.389,3.527-3.159,7.865-6,10.429-.015.013-.032.011-.049.019A8.694,8.694,0,0,0,21.592,20.3Zm-.48-1.52c2.01-3.234,3.98-6.36,5.736-9.745q-2.022,1.182-4.075,2.313c0,.006,0,.01,0,.016a24.1,24.1,0,0,1-1.646,3.944.2.2,0,0,1-.269.069A13.091,13.091,0,0,0,21.112,18.782Z" transform="translate(-19.769 0)" fill="#17222d"/>
      <path id="Path_5532" data-name="Path 5532" d="M155.474,43.555c.731-1.191,1.527-2.339,2.321-3.489.11-.159.364-.018.263.154-.628,1.068-1.274,2.126-1.9,3.194-.6,1.014-1.042,2.186-1.736,3.13a.224.224,0,0,1-.407-.171A10.557,10.557,0,0,1,155.474,43.555Z" transform="translate(-152.86 -29.56)" fill="#17222d"/>
      <path id="Path_5533" data-name="Path 5533" d="M106.665,141.657c1.7-1.91,3.27-3.863,4.86-5.867.09-.113.278.035.2.154-1.366,2.073-2.815,4.5-4.818,6.026C106.717,142.113,106.523,141.816,106.665,141.657Z" transform="translate(-94.156 -100.329)" fill="#17222d"/>
    </g>
  </g>
</svg>
