<svg xmlns="http://www.w3.org/2000/svg" width="400" height="170" viewBox="0 0 400 170"><defs><style>.a{fill:#f68d2f;}</style></defs><g transform="translate(-330.49 -225)"><g transform="translate(330.49 225)"><path class="a" d="M453.962,321.88H442.826V229.942A4.931,4.931,0,0,0,437.907,225H395.813a4.917,4.917,0,0,0-4.173,2.323l-60.4,97a4.964,4.964,0,0,0-.746,2.624v24.581a4.928,4.928,0,0,0,4.919,4.942H404.47v33.585A4.928,4.928,0,0,0,409.389,395h28.519a4.928,4.928,0,0,0,4.919-4.942V356.473h11.136a4.929,4.929,0,0,0,4.923-4.942V326.822A4.932,4.932,0,0,0,453.962,321.88Zm-49.491,0H374.539l29.931-49.488Z" transform="translate(-330.49 -225)"/></g><g transform="translate(602.095 225)"><path class="a" d="M1004.946,321.88H993.811V229.942A4.933,4.933,0,0,0,988.887,225H946.793a4.915,4.915,0,0,0-4.168,2.323l-60.4,97a4.968,4.968,0,0,0-.751,2.624v24.581a4.928,4.928,0,0,0,4.918,4.942h69.067v33.585A4.928,4.928,0,0,0,960.373,395h28.514a4.93,4.93,0,0,0,4.924-4.942V356.473h11.135a4.928,4.928,0,0,0,4.919-4.942V326.822A4.931,4.931,0,0,0,1004.946,321.88Zm-49.491,0H925.519l29.936-49.488Z" transform="translate(-881.47 -225)"/></g><g transform="translate(471.472 225)"><path class="a" d="M717.631,242.371A59.249,59.249,0,0,0,616.47,284.3v51.4a59.259,59.259,0,1,0,118.519,0V284.3A59.12,59.12,0,0,0,717.631,242.371Zm-20.983,96.114a20.919,20.919,0,1,1-41.837,0v-56.97a20.919,20.919,0,1,1,41.837,0Z" transform="translate(-616.47 -225)"/></g></g></svg>