<svg xmlns="http://www.w3.org/2000/svg" width="440" height="291.124" viewBox="0 0 440 291.124"><defs><style>.a{fill:#ffbf4a;}.a,.b{opacity:0.5;}.c{fill:#ff5252;}.d{fill:#f68d2f;}.e{fill:#ffd000;}.f{fill:#ff7155;}.g{fill:#f94b29;}.h{fill:#b93d56;}.i{fill:#fddc8d;}.j{fill:#ffb86a;}.k{fill:#f7a051;}.l{fill:#261515;}.m{fill:#fed2c7;}.n{fill:#101a24;}.o{fill:#211111;}.p{fill:#17222d;}.q{fill:#fdb6a4;}.r{fill:#cdcdcd;}.s{fill:#f7a491;}.t{fill:#0f1d2b;}.u{fill:#fff;}</style></defs><g transform="translate(5441.326 5219.2)"><g transform="translate(-5441.326 -5215.001)"><path class="a" d="M51.585,420.718a6.162,6.162,0,0,0-.06-.7c-.711-3.6,1.871-6.362,5.686-6.057A9.057,9.057,0,0,1,62.6,416.5c.392.351.777.709,1.173,1.07,3.742-5.969,2.808-16.786-3.859-24.267l-1.267.955c-3.373,2.547-7.28,2.662-10.5.223a19.812,19.812,0,0,1-2.854-2.645,5.448,5.448,0,0,1-.8-6.166,5.731,5.731,0,0,1,5.155-3.709,15.169,15.169,0,0,1,7.024,1.006c.418.166.838.325,1.348.523a10.3,10.3,0,0,0,.078-7.82,22.789,22.789,0,0,0-11.881-12.5,5.521,5.521,0,0,0-5.323-.074c-.6.337-1.452.6-1.884-.234s.19-1.424.825-1.866a9.485,9.485,0,0,1,6.2-1.986A20.006,20.006,0,0,1,52,360.219a22.164,22.164,0,0,1,13.292,14.8,16.876,16.876,0,0,1-.981,11.522,1.5,1.5,0,0,0,.349,1.911c6.522,6.889,9.441,15.035,7.993,24.615a19.894,19.894,0,0,1-4.264,10.1,1.334,1.334,0,0,0-.1,1.174c2.876,6.38,3.37,13.27,3.8,20.167.058.926.174,2.289-1.173,2.386s-1-1.3-1.149-2.141c-.915-5.093-1.8-10.193-2.7-15.287a4.624,4.624,0,0,0-.4-1.14c-.38-.8-.6-1.9-1.26-2.27-.5-.283-1.6.355-2.423.6-3.453,1.029-8.2-.657-10.04-3.558a5.837,5.837,0,0,0-.534-.63Q51.994,421.6,51.585,420.718Zm3.559-32.571c-1.994-.784-3.774-1.585-5.634-2.18a2.458,2.458,0,0,0-2.975,1.3,2.24,2.24,0,0,0,1.226,2.833C49.911,391.336,52.906,390.669,55.144,388.147Zm6.329,32.544a15.582,15.582,0,0,0-2.748-1.892,9.528,9.528,0,0,0-3.344-.625c-.384-.012-1.086.682-1.189,1.133a2.828,2.828,0,0,0,1.906,3.022C58.055,423.015,59.867,422.512,61.473,420.691Z" transform="translate(-30.848 -159.979)"/><path class="a" d="M436.347,396.031c1.084-.607,2.068-1.194,3.086-1.72a23.347,23.347,0,0,1,15.114-2.463A10.854,10.854,0,0,1,460,394.19c2.631,2.293,2.591,5.215-.292,7.134a17.224,17.224,0,0,1-4.956,2.267,25.281,25.281,0,0,1-12.265.435,5.351,5.351,0,0,1-1.7-.536c-1.267-.809-2.169-.4-3.1.592-3.351,3.594-6.54,7.311-6.835,12.512-.3,5.279,1.512,8.028,6,9.6,1.447.506,2.89,1.03,4.3,1.622.368.155.614.6.916.911-.369.251-.722.677-1.111.714a5.507,5.507,0,0,1-2.141-.191c-2.393-.764-4.8-1.508-7.12-2.467-4.018-1.663-7.075-6.948-7.008-11.775a19.831,19.831,0,0,1,4.526-11.986c1.291-1.68,2.767-3.22,4.211-4.884,0,.033.02-.07-.022-.131-4-5.623-3.061-11.363-.288-17.065A25.3,25.3,0,0,1,445.5,369.189c5.983-2.859,12.293-4.408,18.971-3.4a15.914,15.914,0,0,1,4.591,1.741,2.085,2.085,0,0,1,1.158,2.48c-.342,1.159-1.378,1.234-2.4,1.264a49.66,49.66,0,0,0-15.905,2.894c-7.1,2.639-12.569,7.1-15.47,14.3A9.164,9.164,0,0,0,436.347,396.031Zm4.956,5.335a3.506,3.506,0,0,0,.549.378,19.182,19.182,0,0,0,15.111-.784,6.091,6.091,0,0,0,1.8-1.384c.583-.615.485-1.329-.346-1.628a8.048,8.048,0,0,0-2.475-.494,25.794,25.794,0,0,0-13.493,3.2C442.1,400.853,441.764,401.08,441.3,401.366Z" transform="translate(-43.672 -198.713)"/><path class="a" d="M16.434,22.758c-1.858-.987-3.428-1.972-5.116-2.671a26.651,26.651,0,0,0-4.974-1.469,5.829,5.829,0,0,0-5.082,1.287C.016,20.963-.426,22.456.48,23.72,3.658,28.151,7.47,31.681,13.4,31.7a7.35,7.35,0,0,0,2.157-.292,1.084,1.084,0,0,1,1.455.517,18.49,18.49,0,0,1,3.535,9.867c.1,3.369-1.247,5.759-4.349,7.128a21.9,21.9,0,0,0-2.55,1.179c-.433.262-1.016.86-.962,1.222.122.8.954.715,1.542.557,3.261-.884,6.232-2.3,8.107-5.268a15.065,15.065,0,0,0,1.4-13.974,44.665,44.665,0,0,0-2.553-4.761c-.168-.32-.348-.835-.208-1.085,1.714-3.08,1.7-6.31.957-9.626C20.126,9.076,15.167,3.72,7.608.632A9.529,9.529,0,0,0,5.2,0,1.337,1.337,0,0,0,4.135.542c-.112.176.181.827.457,1,3.63,2.258,5.914,5.732,8.271,9.127a20.652,20.652,0,0,1,3.546,8.824A23.032,23.032,0,0,1,16.434,22.758Zm-4.214,3.953c-3.159,1.009-8.173-1.054-9.644-3.895-.311-.6-.014-.941.493-.929a5.066,5.066,0,0,1,2.294.4c2.221,1.267,4.357,2.68,6.521,4.047A1.908,1.908,0,0,1,12.221,26.712Z" transform="matrix(0.848, -0.53, 0.53, 0.848, 0, 13.158)"/><path class="a" d="M387.343,221.478c1.65-1.306,3.016-2.558,4.55-3.549a26.656,26.656,0,0,1,4.627-2.341,5.833,5.833,0,0,1,5.232.351c1.417.816,2.121,2.2,1.456,3.612-2.328,4.931-5.441,9.089-11.266,10.175a7.374,7.374,0,0,1-2.174.1,1.085,1.085,0,0,0-1.339.771,18.486,18.486,0,0,0-1.7,10.342c.513,3.332,2.265,5.44,5.562,6.228a21.989,21.989,0,0,1,2.721.7c.472.179,1.154.663,1.165,1.028.026.812-.809.876-1.416.826-3.367-.283-6.544-1.142-8.924-3.722a15.062,15.062,0,0,1-3.9-13.492,44.2,44.2,0,0,1,1.654-5.142c.109-.345.192-.884.01-1.106-2.242-2.721-2.807-5.9-2.677-9.3.317-8.279,4.23-14.441,11.109-18.84a9.576,9.576,0,0,1,2.256-1.052,1.338,1.338,0,0,1,1.145.338c.142.152-.029.847-.27,1.065-3.164,2.876-4.784,6.7-6.492,10.468a20.644,20.644,0,0,0-1.9,9.319A23.214,23.214,0,0,0,387.343,221.478Zm4.856,3.13c3.29.422,7.85-2.511,8.784-5.569.2-.649-.156-.929-.651-.825a5.06,5.06,0,0,0-2.186.8c-1.956,1.646-3.8,3.422-5.685,5.156A1.948,1.948,0,0,0,392.2,224.608Z" transform="translate(22.921 -183.693)"/></g><g class="b" transform="translate(-5409.452 -5057.282)"><path class="c" d="M65.58,267.01c.117.885-.277,2.4-.928,2.751a44.168,44.168,0,0,1-6.909,2.889c-1.567.533-2.559-.171-2.847-1.823-.32-1.845-.49-3.71-.65-4.894-.032-3.465.554-4.275,3.241-4.851a30.389,30.389,0,0,1,4.169-.576,2.293,2.293,0,0,1,2.506,1.749A28.551,28.551,0,0,1,65.58,267.01Zm-1.514,1.247c-.267-.885-.448-1.493-.629-2.09-1.343-4.361-1.866-4.617-6.28-3.071-.085.021-.2.011-.245.064-.256.3-.725.618-.714.917.1,2.26.277,4.51.469,7.239C59.4,270.188,61.677,269.249,64.066,268.258Z" transform="translate(-54.245 -260.497)"/><path class="c" d="M63.315,266.06c.181.6.363,1.2.629,2.09-2.388.992-4.67,1.93-7.4,3.06-.192-2.729-.373-4.979-.469-7.239-.011-.3.458-.618.714-.917.043-.053.16-.043.245-.064C61.45,261.444,61.972,261.7,63.315,266.06Z" transform="translate(-54.124 -260.389)"/></g><g class="b" transform="translate(-5229.757 -5169.57)"><path class="c" d="M65.58,267.01c.117.885-.277,2.4-.928,2.751a44.168,44.168,0,0,1-6.909,2.889c-1.567.533-2.559-.171-2.847-1.823-.32-1.845-.49-3.71-.65-4.894-.032-3.465.554-4.275,3.241-4.851a30.389,30.389,0,0,1,4.169-.576,2.293,2.293,0,0,1,2.506,1.749A28.551,28.551,0,0,1,65.58,267.01Zm-1.514,1.247c-.267-.885-.448-1.493-.629-2.09-1.343-4.361-1.866-4.617-6.28-3.071-.085.021-.2.011-.245.064-.256.3-.725.618-.714.917.1,2.26.277,4.51.469,7.239C59.4,270.188,61.677,269.249,64.066,268.258Z" transform="translate(-54.245 -260.497)"/><path class="c" d="M63.315,266.06c.181.6.363,1.2.629,2.09-2.388.992-4.67,1.93-7.4,3.06-.192-2.729-.373-4.979-.469-7.239-.011-.3.458-.618.714-.917.043-.053.16-.043.245-.064C61.45,261.444,61.972,261.7,63.315,266.06Z" transform="translate(-54.124 -260.389)"/></g><g class="b" transform="translate(-5434.729 -5106.911)"><g transform="translate(0 0)"><path class="c" d="M40.73,218.831A23.911,23.911,0,0,1,41,222.2c-.032.458-.608,1.226-1,1.269a36.285,36.285,0,0,1-4.819.2,24.606,24.606,0,0,1-2.921-.277,1.77,1.77,0,0,1-1.706-2c.192-2.026.5-4.041.81-6.056a1.52,1.52,0,0,1,1.823-1.375c1.994.16,3.988.288,5.96.586,1.578.235,1.813.65,1.8,2.228-.011.682,0,1.365,0,2.036C40.868,218.82,40.8,218.82,40.73,218.831ZM38.853,222c.1-1.994.181-3.764.277-5.693-2.015-.2-3.9-.395-6.035-.608-.277,2.026-.533,3.86-.81,5.917C34.557,221.742,36.646,221.87,38.853,222Z" transform="translate(-30.537 -213.948)"/><path class="c" d="M39.022,216.2c-.1,1.93-.181,3.7-.277,5.693-2.207-.128-4.3-.256-6.568-.384.277-2.058.533-3.892.81-5.917C35.12,215.8,37.007,215.993,39.022,216.2Z" transform="translate(-30.428 -213.84)"/></g></g><g class="b" transform="translate(-5255.035 -5219.2)"><g transform="translate(0 0)"><path class="c" d="M40.73,218.831A23.911,23.911,0,0,1,41,222.2c-.032.458-.608,1.226-1,1.269a36.285,36.285,0,0,1-4.819.2,24.606,24.606,0,0,1-2.921-.277,1.77,1.77,0,0,1-1.706-2c.192-2.026.5-4.041.81-6.056a1.52,1.52,0,0,1,1.823-1.375c1.994.16,3.988.288,5.96.586,1.578.235,1.813.65,1.8,2.228-.011.682,0,1.365,0,2.036C40.868,218.82,40.8,218.82,40.73,218.831ZM38.853,222c.1-1.994.181-3.764.277-5.693-2.015-.2-3.9-.395-6.035-.608-.277,2.026-.533,3.86-.81,5.917C34.557,221.742,36.646,221.87,38.853,222Z" transform="translate(-30.537 -213.948)"/><path class="c" d="M39.022,216.2c-.1,1.93-.181,3.7-.277,5.693-2.207-.128-4.3-.256-6.568-.384.277-2.058.533-3.892.81-5.917C35.12,215.8,37.007,215.993,39.022,216.2Z" transform="translate(-30.428 -213.84)"/></g></g><g transform="translate(-5386.637 -5219.2)"><g transform="translate(0 0)"><circle class="d" cx="2.819" cy="2.819" r="2.819" transform="translate(301.682)"/><circle class="d" cx="2.819" cy="2.819" r="2.819" transform="translate(248.768 89.214)"/><circle class="d" cx="2.819" cy="2.819" r="2.819" transform="translate(14.523 92.033)"/><circle class="d" cx="2.819" cy="2.819" r="2.819" transform="translate(70.332 88.097)"/><circle class="d" cx="2.819" cy="2.819" r="2.819" transform="translate(17.341 44.913)"/><circle class="d" cx="2.819" cy="2.819" r="2.819" transform="translate(27.178 157.803)"/><path class="d" d="M-207.282,250.5a2.816,2.816,0,0,1-2.817,2.817,2.817,2.817,0,0,1-2.819-2.817,2.817,2.817,0,0,1,2.819-2.819A2.817,2.817,0,0,1-207.282,250.5Z" transform="translate(504.96 -178.63)"/><circle class="d" cx="2.819" cy="2.819" r="2.819" transform="translate(298.863 224.544)"/><path class="d" d="M-197.041,283.467a7.261,7.261,0,0,1-7.261,7.261,7.26,7.26,0,0,1-7.261-7.261,7.261,7.261,0,0,1,7.261-7.261A7.262,7.262,0,0,1-197.041,283.467Z" transform="translate(506.424 -147.813)"/><path class="d" d="M-338.766,279.977a7.26,7.26,0,0,1-7.261,7.261,7.261,7.261,0,0,1-7.261-7.261,7.262,7.262,0,0,1,7.261-7.261A7.261,7.261,0,0,1-338.766,279.977Z" transform="translate(353.288 -151.583)"/><circle class="d" cx="5.197" cy="5.197" r="5.197" transform="translate(283.737 173.673)"/><circle class="d" cx="5.197" cy="5.197" r="5.197" transform="translate(50.905 66.676)"/><path class="d" d="M-191.4,297.3l-19.745,1.14-4.772,19.193L-223.1,299.2l-19.728,1.392,15.3-12.528-7.421-18.333,16.644,10.683,15.142-12.722-5.017,19.13Z" transform="translate(429.726 -181.975)"/><path class="d" d="M-219.562,243.614l-4.676,4.577,2.983,5.823-5.8-3.032-4.616,4.636,1.092-6.451-5.836-2.958,6.473-.955,1.01-6.464,2.908,5.861Z" transform="translate(479.574 -188.241)"/><path class="d" d="M-297.3,239.57l-4.675,4.577L-299,249.97l-5.8-3.032-4.617,4.636,1.092-6.451-5.836-2.958,6.473-.955,1.01-6.464,2.908,5.861Z" transform="translate(395.573 -192.61)"/><path class="d" d="M-312.764,269.858l-7.243,7.091,4.621,9.022-8.982-4.7-7.152,7.182,1.692-9.994-9.041-4.583,10.028-1.479,1.564-10.015,4.505,9.08Z" transform="translate(368.867 -162.746)"/></g></g><g transform="translate(-5311.976 -5065.001)"><g transform="translate(85.526 0.821)"><path class="e" d="M1014.592,1271.353c-4.141.758-20.686,21.359-20.686,21.359l-.583,1.426s29.933-3.093,31.017-4.282C1027.267,1286.645,1017.994,1270.731,1014.592,1271.353Zm-20.476,21.8c5.461-6.487,17.907-15.961,20.6-17.973,2.4,2.278,6.019,9,6.5,12.032C1017.769,1287.866,1002.849,1292.169,994.116,1293.15Z" transform="translate(-993.323 -1271.335)"/></g><g transform="translate(45.74)"><path class="e" d="M931.233,1273.977c-8.143-4.937-10.379-4.9-12.751-3.647s-11.122,12.915-7.212,16.554,34.93,6.232,34.93,6.232l.7-1.763S939.376,1278.913,931.233,1273.977ZM916.66,1285.6c-1.808-1.676,2.694-8.66,4.747-10.146.523-.275,21.393,12.066,24.3,16.28C934.064,1290.561,918.345,1286.991,916.66,1285.6Z" transform="translate(-910.278 -1269.621)"/></g><path class="e" d="M982.372,1318.555h1.745a3.027,3.027,0,0,0,3.132-2.91v-4.771a3.027,3.027,0,0,0-3.132-2.911h-1.745a3.027,3.027,0,0,0-3.132,2.911v4.771A3.027,3.027,0,0,0,982.372,1318.555Z" transform="translate(-900.461 -1289.594)"/><path class="f" d="M962.886,1318.684l-141.905-.4a5.879,5.879,0,0,0-6.106,6.585l2.2,13.456,7.113-.014,4.287,67.717a7.167,7.167,0,0,0,7.361,6.454H949.094l4.711-74.42,6.7-.013Z" transform="translate(-814.804 -1294.973)"/><path class="g" d="M1000.577,1414.41H913.638l-4.655-92.418h103.292l-4.332,85.992C1007.762,1411.579,1004.518,1414.41,1000.577,1414.41Z" transform="translate(-863.863 -1296.902)"/><path class="g" d="M1008.783,1338.139l-112.134.276-2.559-20.049,109.847.391a5.9,5.9,0,0,1,6.11,6.231Z" transform="translate(-856.106 -1295.014)"/><path class="h" d="M899.432,1359.914l106.952-.277-103.559,5.254Z" transform="translate(-858.888 -1316.512)"/><rect class="e" width="2.976" height="19.801" transform="translate(82.623 23.509)"/><rect class="e" width="3.72" height="74.434" transform="translate(91.253 43.217)"/></g><g transform="translate(-5411.319 -5140.579)"><rect class="i" width="115.065" height="143.865" transform="translate(7.065 49.212)"/><rect class="j" width="4.166" height="143.865" transform="translate(21.15 49.212)"/><rect class="j" width="4.166" height="143.865" transform="translate(33.45 49.212)"/><rect class="j" width="4.166" height="143.865" transform="translate(45.751 49.212)"/><rect class="j" width="4.166" height="143.865" transform="translate(58.05 49.212)"/><rect class="j" width="4.166" height="143.865" transform="translate(70.351 49.212)"/><rect class="j" width="4.166" height="143.865" transform="translate(82.651 49.212)"/><rect class="j" width="4.166" height="143.865" transform="translate(94.951 49.212)"/><rect class="j" width="4.166" height="143.865" transform="translate(107.251 49.212)"/><rect class="j" width="115.056" height="5.931" transform="translate(7.067 49.205)"/><g transform="translate(9.771)"><g transform="translate(50.218)"><path class="g" d="M757.359,1111.906c-5.094,1.268-24.084,29.061-24.084,29.061l-.615,1.885s37.007-6.085,38.264-7.7C774.317,1130.8,761.543,1110.865,757.359,1111.906Zm-23.788,29.615c6.292-8.77,21.044-21.888,24.234-24.677,3.165,2.778,8.188,11.214,9.018,15.106C762.594,1133.041,744.361,1139.643,733.57,1141.521Z" transform="translate(-732.66 -1111.867)"/></g><g transform="translate(0 2.444)"><path class="g" d="M653.13,1121.9c-10.516-5.817-13.3-5.611-16.15-3.829s-12.839,17.477-7.69,21.909,43.95,5.627,43.95,5.627l.733-2.328S663.646,1127.719,653.13,1121.9ZM635.9,1137.948c-2.381-2.041,2.68-11.387,5.119-13.452.63-.391,27.557,14.114,31.507,19.36C657.94,1143.153,638.1,1139.629,635.9,1137.948Z" transform="translate(-627.839 -1116.968)"/></g><path class="g" d="M719.242,1176.443l2.172-.122a3.82,3.82,0,0,0,3.672-3.982l-.37-6.171a3.857,3.857,0,0,0-4.123-3.546l-2.172.122a3.82,3.82,0,0,0-3.672,3.982l.37,6.171A3.858,3.858,0,0,0,719.242,1176.443Z" transform="translate(-673.108 -1138.303)"/></g><rect class="k" width="126.983" height="16.765" transform="translate(0 34.024)"/></g><g transform="translate(-5130.699 -5142.613)"><path class="l" d="M1308.922,1171.948a11.053,11.053,0,0,0-14.439.918,11.473,11.473,0,0,0-9.006-.183c-5.571,2.318-9.84,10.285-6.23,15.381.415,4.816,1.808,8.757,6.456,9.422,2.094,5.412,10.467,8,16.036,3.9,4.145,1.928,9.088.056,12.537-2.989.814-.719,1.578-1.917,1.87-2.051,0,0,11.416-.6,11.806-11.533C1328.361,1173.378,1317.63,1164.057,1308.922,1171.948Z" transform="translate(-1237.32 -1139.604)"/><path class="m" d="M1206.858,1445.676a63.878,63.878,0,0,0,.04,9.977c.033.259.7,1.353.744,1.619-1.954,5.6-6.321,8.069-10.222,9.615,1.455-2.7,3.892-5.589,3.853-6.287a87.871,87.871,0,0,0-1.31-12.718C1202.773,1448.293,1204.19,1446.82,1206.858,1445.676Z" transform="translate(-1195.39 -1283.72)"/><path class="n" d="M1228.18,1302.774l15.506,16.281s-9.848,7.474-13.539,10.249-21.666,12.163-22.051,12.862a25.659,25.659,0,0,1,.546,4.237c-.046,6.014-.726,17.635-1.764,27.541-2.118,1.712-6.217,1.652-8.71,1.952-4.361-12.9-3.482-36.471-3.091-39.264C1195.712,1332.081,1228.18,1302.774,1228.18,1302.774Z" transform="translate(-1193.99 -1209.28)"/><path class="m" d="M1346.787,1371.19c-.737.347-6.937,6.3-9.7,9.7-1.525-2.072-2.171-4.1-4.083-5.828,2.713-2,8.44-7.122,9.268-8.543,1.965-3.371,2.942-3.608,2.942-3.608s10.124,8.5,10.485,9.943S1349.747,1369.8,1346.787,1371.19Z" transform="translate(-1266.018 -1240.608)"/><path class="o" d="M1351.257,1365.242c-.9-.337,1.6-4.228,2.158-5.131.627-1.017,1.355-1.116,1.521-1.1.449.05,11.7,9.495,13.292,11.959a2.962,2.962,0,0,1,.258.713c.359,2.783-10.423-.795-11.588-2.392C1355.864,1367.872,1355.308,1366.763,1351.257,1365.242Z" transform="translate(-1275.426 -1238.574)"/><path class="p" d="M1255.58,1305.542l16.123-4.3c-.064.02,0,.66.007.71.617,6.009,8.548,4.833,10.281,15.361,1.225,7.439-3.112,31.3-3.112,31.3s7.814-4.277,16.027-8.855c.749-.418,5.336,6.244,5.336,6.244-12.417,15.764-29.046,20.3-30.94,19.253-6.467-3.579-10.646-50.738-10.627-50.732C1257.714,1311.609,1255.58,1305.542,1255.58,1305.542Z" transform="translate(-1225.687 -1208.481)"/><path class="m" d="M1317.795,1224.382s19.248-1.317,23.5-1.355,19.42-2.814,20.006-2.942,3.848-7.432,4.57-6.75-1.856,3.645-.913,4.261,10.2-1.839,10.145-1.1c-.1,1.382-5.61,1.729-5.542,2.384s5.71-.912,6.2.142-5.479.966-5.668,1.475,5.612.858,5.122,1.928c-.265.581-5.152-.441-5.058.308s3.72,2.128,3.351,2.766-2.892-1.577-4.9-1.417-3.555-.8-6.677.423-13.621,6.866-20.5,7.175-22.071,1.034-22.071,1.034Z" transform="translate(-1258.096 -1162.666)"/><path class="m" d="M1252.975,1164.511s-4.8-18.687-6.094-22.734-3.427-19.321-3.49-19.918,5.848-5.988,4.973-6.458-2.877,2.906-3.758,2.205-1.457-10.263-2.141-9.978c-1.28.534.121,5.869-.523,6.01s-.928-5.707-2.083-5.844.8,5.505.38,5.845-2.577-5.058-3.438-4.258c-.468.435,2.036,4.753,1.3,4.9s-3.189-2.862-3.678-2.313,2.405,2.25,2.886,4.211,1.876,3.125,1.7,6.472-2.241,15.089-.374,21.714,5.95,21.279,5.95,21.279Z" transform="translate(-1214.635 -1107.622)"/><path class="d" d="M1252.922,1238.454c.2-3.328,1-12.273,1.3-13.345-.475-3.553-3.243-9.108-3.772-10.644,0,0,5.5-4.925,8.988-4.389,0,0,3.034,5.43,5.585,7.321a6.694,6.694,0,0,0,1.328.627c2.669.353,12.027,1.36,13.689,2.145l-3.087,14.906c-.622.793-3.647,18.005-4.877,19.285s-17.132,5.665-19.383,3.646C1252.6,1257.926,1252.518,1245.182,1252.922,1238.454Z" transform="translate(-1223.012 -1160.97)"/><path class="d" d="M1302.226,1230.111a7.568,7.568,0,0,1,2.9-.07c4.237.517,11.376,1.336,11.376,1.336s.474,9.292-1.234,11.272c0,0-11.361.175-11.178,1.172Z" transform="translate(-1249.985 -1171.343)"/><path class="m" d="M1287.444,1213.11s-1.7,5.084-1.79,7.17-1.951,8.59-6.124,8.03.387-8.547,1.062-10.509a81.328,81.328,0,0,0,1.641-8.194Z" transform="translate(-1237.257 -1160.747)"/><path class="q" d="M1285.967,1212.728c.3-1.7.525-3.121.525-3.121l5.211,3.5s-.347,1.04-.735,2.372A4.831,4.831,0,0,1,1285.967,1212.728Z" transform="translate(-1241.516 -1160.747)"/><path class="m" d="M1294.2,1186.207a7.232,7.232,0,0,1,2.389,4.368c.409,2.817-1.464,9.678-7.265,10.586s-7.439-4.961-5.689-9.126S1288.642,1182.742,1294.2,1186.207Z" transform="translate(-1239.953 -1147.962)"/><path class="m" d="M1283.388,1193.644c-.054,1.177.435,2.15,1.093,2.175s1.232-.91,1.285-2.087-.435-2.15-1.093-2.175S1283.441,1192.467,1283.388,1193.644Z" transform="translate(-1240.17 -1151.344)"/><path class="o" d="M1204.7,1466.694c.575-.81,3.3,3,3.966,3.8a2,2,0,0,1,.563,1.82c-.172.426-11.913,9.418-14.894,10.3a1.466,1.466,0,0,1-.93-.152c-1.283-.961,3.441-9.631,5.793-10.962C1200.715,1470.633,1202.109,1470.336,1204.7,1466.694Z" transform="translate(-1193.184 -1294.61)"/><path class="l" d="M1305.148,1186.524s-.08,7.934,2.134,9.678.722,5.059.722,5.059,3.309-7.722,1.764-10.566A10.642,10.642,0,0,0,1305.148,1186.524Z" transform="translate(-1251.507 -1148.723)"/><path class="m" d="M1305.51,1207.612c-.8.924-.961,2.122-.369,2.676s1.718.253,2.513-.671.96-2.122.369-2.676S1306.305,1206.688,1305.51,1207.612Z" transform="translate(-1251.319 -1159.214)"/></g><rect class="r" width="429.649" height="3.196" rx="1.598" transform="translate(-5430.975 -4947.55)"/><g transform="translate(-5336.16 -5191.618)"><path class="l" d="M704.03,1170.29c-1.553-3.737-3.133-7.482-7.162-9.375a9.016,9.016,0,0,0-9.565,1.224c-8.209,6.173-1.056,12.975-10.4,24.681-2.9,3.637-6.418,6.574-8.158,10.837-2.435,5.966.465,8.832,5.114,11.689,22.243,13.672,33.9-14.4,33.484-20.821C707.032,1183.748,705.03,1172.7,704.03,1170.29Z" transform="translate(-657.967 -1160.055)"/><path class="m" d="M597.46,1377.015c-.938-.148-3.215-1.78-4.019-1.928-.623-.115-1.971-.319-2.545-.405-.7-2.627-4.276-16.948-4.676-21.146-.434-4.548-3.65-24.224-3.65-24.224l-8.328,1.514s3.459,15.136,4.415,22.475c.821,6.3,7.738,20.478,8.617,21.973,0,.036,0,.071,0,.109.134,2.225,1.206,1.483,1.206,1.483l1.742.445s6.163.593,6.565.741S598.4,1377.163,597.46,1377.015Z" transform="translate(-528.901 -1294.021)"/><path class="d" d="M641.06,1274.151c5.887,2,9.235,18,9.235,18s-9.236,2.578-11.6,1.226c0,0-2.687-11.906-3.649-11.49Z" transform="translate(-594.064 -1250.361)"/><path class="s" d="M385.212,1704.614a62.935,62.935,0,0,1,2.82,9.88c.04.266-.335,1.557-.3,1.834,3.616,4.932,8.813,6.012,13.267,6.326-2.27-2.217-5.6-4.317-5.764-5.019a87.174,87.174,0,0,1-2.3-12.988C390.163,1705.93,388.283,1704.914,385.212,1704.614Z" transform="translate(-292.677 -1591.069)"/><path class="t" d="M425.02,1449.712l-7.956,22.408s12.786,2.407,17.565,3.283,31.486,2.043,32.163,2.518c.5.352,6.019,18.195,8.483,28.033,2.8.615,7.581-.124,10.127-1-1.375-14.077-6.344-36.38-7.934-38.808C474.877,1462.191,425.02,1449.712,425.02,1449.712Z" transform="translate(-383.721 -1389.316)"/><path class="s" d="M499.43,1737.821a62.975,62.975,0,0,1,.919,10.234c-.01.269-.621,1.467-.639,1.745,2.628,5.523,7.53,7.556,11.847,8.7-1.815-2.6-4.7-5.29-4.722-6.01a87.15,87.15,0,0,1,.174-13.189C504.047,1740.041,502.391,1738.691,499.43,1737.821Z" transform="translate(-427.05 -1617.351)"/><path class="p" d="M517.417,1438.718l-1.89,4.592c-.214.52-.46,1.026-.72,1.524-4.145,7.941-.651,18.151,7.785,21.423l.138.053c4.531,1.757,30.545,7.907,31.121,8.5.427.44,2.5,19,3.08,29.127,2.631,1.128,7.47,1.3,10.135.914,1.287-14.086.586-36.924-.521-39.607C564.741,1460.875,517.417,1438.718,517.417,1438.718Z" transform="translate(-486.094 -1380.615)"/><path class="o" d="M489.638,1787.3c-.692-.765-3.235,3.445-3.871,4.343a2.01,2.01,0,0,0-.426,1.93c.226.417,13.635,8.306,16.905,8.867a1.643,1.643,0,0,0,.979-.261c1.278-1.131-4.6-9.485-7.246-10.583C494.272,1790.886,492.754,1790.741,489.638,1787.3Z" transform="translate(-415.941 -1656.44)"/><path class="o" d="M370.747,1752.509c-.824-.622-2.533,3.99-2.988,4.992a2.01,2.01,0,0,0-.057,1.976c.3.367,14.95,5.6,18.267,5.542a1.642,1.642,0,0,0,.912-.44c1.044-1.351-6.3-8.454-9.1-9.037C375.971,1755.165,374.453,1755.306,370.747,1752.509Z" transform="translate(-274.964 -1628.932)"/><path class="d" d="M665.825,1272.645h0a2.206,2.206,0,0,0,.594-.123,10.253,10.253,0,0,1,5.344.3c2.262.954,5.768,9.872,5.559,19.026-.084,1.4-.169,2.652-.241,3.526-.571,6.914-2.554,19.889-2.662,19.958-2.7,1.736-19.155-3.857-20.274-5.336s-1.6-20.592-2.148-21.488l-1.07-15.63C652.815,1272.317,662.93,1272.624,665.825,1272.645Z" transform="translate(-624.412 -1248.901)"/><path class="m" d="M697.448,1235.589s1.048,5.422.839,7.561.8,9.032,5.327,9.055.86-8.764.433-10.86a80.19,80.19,0,0,1-.527-8.584Z" transform="translate(-662.634 -1217.601)"/><path class="q" d="M714.354,1236.016c-.071-1.775-.094-3.255-.094-3.255l-6.071,2.828s.214,1.109.43,2.521A5.3,5.3,0,0,0,714.354,1236.016Z" transform="translate(-673.375 -1217.601)"/><path class="m" d="M700.611,1171.834a7.521,7.521,0,0,0-3.195,4.111c-.855,2.813.118,10.072,6.161,11.823s8.661-4,7.416-8.49S707.042,1169.094,700.611,1171.834Z" transform="translate(-668.015 -1168.811)"/><path class="m" d="M697.453,1193.118c-.119,1.207-.785,2.129-1.488,2.061s-1.177-1.1-1.059-2.31.784-2.13,1.487-2.061S697.571,1191.911,697.453,1193.118Z" transform="translate(-653.718 -1184.393)"/><path class="l" d="M751.385,1172.8s-1.1,8.1-3.714,9.558-1.522,5.053-1.522,5.053-2.375-8.341-.3-11.019A11.524,11.524,0,0,1,751.385,1172.8Z" transform="translate(-718.081 -1170.139)"/><path class="m" d="M755.941,1219.541c.71,1.055.707,2.3-.006,2.779s-1.867.014-2.576-1.041-.708-2.3.006-2.779S755.231,1218.486,755.941,1219.541Z" transform="translate(-724.8 -1206.164)"/><path class="u" d="M717.242,1226.371l-4.259,1.072a1.936,1.936,0,0,0,2.4,1.2C717.683,1228.136,717.242,1226.371,717.242,1226.371Z" transform="translate(-677.297 -1212.544)"/><path class="m" d="M762.147,1373.1c.076-.194.246-.2.419-.2a42.846,42.846,0,0,0,5.04-.377,3.642,3.642,0,0,0,.81-.207,2.111,2.111,0,0,1,1.393-.051,2.813,2.813,0,0,0,.775.082c.847,0,3.265-.826,4.506-1.043a.729.729,0,0,0,.579-.543c1.222-4.832,3.843-15.672,4.182-19.238.435-4.558,3.583-25.112,3.583-25.112l8.423,2.349s-3.467,15.172-4.425,22.528c-.74,5.681-6.417,17.735-8.2,21.2a3.554,3.554,0,0,1-3.273,2.707,1.047,1.047,0,0,0-.667.357,4.732,4.732,0,0,1-1.062.925,2.479,2.479,0,0,0-.726.721c-.358.522-.678,1.068-.994,1.616-.21.363-.43.478-.741.392a.662.662,0,0,1-.487-.746,3.338,3.338,0,0,1,.5-1.659.9.9,0,0,0-.067-1.2,3.812,3.812,0,0,0-.633-.7,1.093,1.093,0,0,0-.861-.314,13.842,13.842,0,0,1-1.837.343l-.51.1-.278.059c-.043.011-.939.109-1.246.109-.246,0-.646.017-.985.033a5.445,5.445,0,0,1-.979-.146,1.19,1.19,0,0,1-.787-.315c-.091-.082-.179-.174-.133-.314a.313.313,0,0,1,.274-.206,11.944,11.944,0,0,0,1.237-.208c-.311,0-1.284-.023-1.594-.031a1.462,1.462,0,0,1-1.07-.471C762.2,1373.418,762.07,1373.3,762.147,1373.1Z" transform="translate(-762.124 -1291.724)"/><path class="d" d="M748.875,1274.819c-4.157-.756-7.587,17.844-7.587,17.844s9.236,2.578,11.6,1.226c0,0,2.686-11.906,3.649-11.49Z" transform="translate(-722.462 -1250.872)"/></g></g></svg>