<svg xmlns="http://www.w3.org/2000/svg" width="90" height="90" viewBox="0 0 90 90"><defs><style>.a{fill:#fff;}.b{fill:#ffbd17;}.c{fill:#efb025;}.d{fill:#ff4440;}.e{fill:#ea2f2f;}</style></defs><g transform="translate(-789 -335)"><circle class="a" cx="45" cy="45" r="45" transform="translate(789 335)"/><g transform="translate(809 355)"><path class="b" d="M78.592,219.189H39.1a1.873,1.873,0,0,1-1.873-1.873v-30.2H80.466v30.2a1.873,1.873,0,0,1-1.873,1.873Zm0,0" transform="translate(-33.548 -168.626)"/><path class="c" d="M37.227,187.117H80.465V193.4H37.227Zm0,0" transform="translate(-33.548 -168.626)"/><path class="b" d="M50.6,107.1v7.785a1.506,1.506,0,0,1-1.506,1.505H1.505A1.5,1.5,0,0,1,0,114.884V107.1a1.5,1.5,0,0,1,1.505-1.505H49.091A1.506,1.506,0,0,1,50.6,107.1Zm0,0" transform="translate(0 -95.159)"/><path class="c" d="M98.992,87.109q-.493.574-.965,1.163a43.652,43.652,0,0,0-3.216,4.574q-.448.732-.866,1.48H83.684q.9-2.041,1.969-4a52.94,52.94,0,0,1,4.412-6.795q.59-.772,1.209-1.524c.247-.3.5-.6.753-.9l2.809,2.42.435.375q1.658,1.428,3.316,2.857c.135.115.27.232.4.348Zm0,0" transform="translate(-75.414 -73.095)"/><path class="c" d="M253.9,94.324H243.641q-.417-.748-.866-1.48a43.828,43.828,0,0,0-3.216-4.574q-.474-.588-.967-1.163L239,86.76l3.317-2.857.435-.375,2.809-2.42q.382.444.753.9.62.752,1.209,1.524a53.023,53.023,0,0,1,4.413,6.795Q253,92.281,253.9,94.324Zm0,0" transform="translate(-215.015 -73.094)"/><g transform="translate(6.031 8.016)"><path class="d" d="M80.3,87.112q-.493.573-.966,1.162a43.909,43.909,0,0,0-9.2,21.118,44.154,44.154,0,0,1-3.57-5.57,46.375,46.375,0,0,0-5.527,4.238A53.1,53.1,0,0,1,72.578,82.009c.247-.3.5-.6.753-.9l3.245,2.794,3.316,2.857c.135.115.269.232.4.348Zm0,0" transform="translate(-61.031 -81.113)"/><path class="d" d="M275.259,108.061a46.377,46.377,0,0,0-5.527-4.238,44.15,44.15,0,0,1-3.57,5.57,43.91,43.91,0,0,0-9.2-21.118q-.474-.588-.967-1.162l.4-.348q1.659-1.43,3.317-2.857l3.244-2.794q.382.444.753.9a53.082,53.082,0,0,1,11.548,26.052Zm0,0" transform="translate(-236.726 -81.114)"/><path class="d" d="M215.234,141.82h8.057v7.216h-8.057Zm0,0" transform="translate(-199.995 -135.821)"/></g><path class="e" d="M269.333,98.49l-9.159,2.522a43.789,43.789,0,0,0-3.216-4.574l-.562-1.511-.4-1.089,3.722-1.767,4-1.9a52.981,52.981,0,0,1,5.622,8.319Zm0,0" transform="translate(-230.694 -81.26)"/><path class="e" d="M134.347,93.845l-.4,1.089-.561,1.511a43.672,43.672,0,0,0-3.216,4.574L121.008,98.5a52.975,52.975,0,0,1,5.621-8.318l4,1.9Zm0,0" transform="translate(-109.049 -81.268)"/><path class="d" d="M270.614.351,256,7.293l2.808,7.552,15.6-4.295a3.608,3.608,0,0,0,2.424-4.735l-1.288-3.463a3.607,3.607,0,0,0-4.929-2Zm0,0" transform="translate(-230.698 -0.001)"/><path class="d" d="M49.317.351,63.934,7.293l-2.808,7.552-15.6-4.295A3.608,3.608,0,0,1,43.1,5.815l1.287-3.463a3.607,3.607,0,0,1,4.929-2Zm0,0" transform="translate(-38.636 -0.001)"/><path class="e" d="M283.961,52.45a.806.806,0,0,1-.435-1.484A39.6,39.6,0,0,1,289.292,48c4.357-1.763,7.267-1.668,8.648.281a.806.806,0,1,1-1.315.931c-1.871-2.642-9.653,1.466-12.231,3.114a.8.8,0,0,1-.433.127Zm0,0" transform="translate(-255.173 -42.124)"/><path class="e" d="M91.043,52.45a.8.8,0,0,1-.433-.127c-2.578-1.648-10.359-5.756-12.231-3.114a.806.806,0,1,1-1.315-.931c1.38-1.949,4.29-2.044,8.648-.281a39.552,39.552,0,0,1,5.766,2.969.806.806,0,0,1-.435,1.484Zm0,0" transform="translate(-69.314 -42.124)"/><path class="e" d="M216.668,47.523h-4.584a2.272,2.272,0,0,0-2.272,2.272v6.66a2.272,2.272,0,0,0,2.272,2.272h4.584a2.272,2.272,0,0,0,2.272-2.272V49.8A2.272,2.272,0,0,0,216.668,47.523Zm0,0" transform="translate(-189.078 -42.827)"/><path class="d" d="M215.234,214.836h8.057v29.333h-8.057Zm0,0" transform="translate(-193.964 -193.606)"/><path class="e" d="M215.234,214.836h8.057v3.545h-8.057Zm0,0" transform="translate(-193.964 -193.606)"/></g></g></svg>