<svg xmlns="http://www.w3.org/2000/svg" width="30.317" height="30.297" viewBox="0 0 30.317 30.297"><defs><style>.a{fill:#ffbd17;}.b{fill:#efb025;}.c{fill:#ff4440;}.d{fill:#ea2f2f;}</style></defs><path class="a" d="M62.012,206.334H38.349a1.122,1.122,0,0,1-1.122-1.122V187.117H63.135v18.095a1.122,1.122,0,0,1-1.122,1.122Zm0,0" transform="translate(-35.023 -176.037)"/><path class="b" d="M37.227,187.117H63.135v3.765H37.227Zm0,0" transform="translate(-35.022 -176.037)"/><path class="a" d="M30.317,106.5v4.665a.9.9,0,0,1-.9.9H.9a.9.9,0,0,1-.9-.9V106.5a.9.9,0,0,1,.9-.9H29.415A.9.9,0,0,1,30.317,106.5Zm0,0" transform="translate(0 -99.341)"/><path class="b" d="M92.856,84.7q-.3.344-.578.7a26.156,26.156,0,0,0-1.927,2.741q-.268.439-.519.887H83.684q.539-1.223,1.18-2.4a31.721,31.721,0,0,1,2.644-4.071q.354-.462.724-.913c.148-.181.3-.359.451-.537l1.683,1.45.261.225L92.614,84.5l.243.208Zm0,0" transform="translate(-78.729 -76.307)"/><path class="b" d="M247.767,89.028h-6.149q-.25-.448-.519-.887a26.264,26.264,0,0,0-1.927-2.741q-.284-.353-.579-.7l.243-.208,1.988-1.712.261-.225,1.683-1.45q.229.266.451.536.372.451.724.913a31.77,31.77,0,0,1,2.644,4.071Q247.227,87.8,247.767,89.028Zm0,0" transform="translate(-224.465 -76.307)"/><g transform="translate(3.614 4.803)"><path class="c" d="M72.575,84.708q-.3.343-.579.7a26.31,26.31,0,0,0-5.515,12.654,26.456,26.456,0,0,1-2.139-3.337,27.788,27.788,0,0,0-3.312,2.539A31.817,31.817,0,0,1,67.95,81.65c.148-.181.3-.359.451-.537l1.944,1.674L72.332,84.5l.243.209Zm0,0" transform="translate(-61.031 -81.113)"/><path class="c" d="M267.537,97.26a27.789,27.789,0,0,0-3.312-2.539,26.453,26.453,0,0,1-2.139,3.337A26.309,26.309,0,0,0,256.571,85.4q-.284-.353-.579-.7l.243-.209,1.988-1.712,1.944-1.674q.229.266.451.536a31.805,31.805,0,0,1,6.919,15.61Zm0,0" transform="translate(-244.448 -81.114)"/><path class="c" d="M215.234,141.82h4.827v4.323h-4.827Zm0,0" transform="translate(-206.103 -138.225)"/></g><path class="d" d="M263.986,95.156,258.5,96.667a26.237,26.237,0,0,0-1.927-2.741l-.337-.905-.243-.653,2.23-1.059,2.4-1.138a31.744,31.744,0,0,1,3.368,4.985Zm0,0" transform="translate(-240.834 -84.832)"/><path class="d" d="M129,92.376l-.243.653-.336.905a26.168,26.168,0,0,0-1.927,2.741l-5.487-1.511a31.741,31.741,0,0,1,3.368-4.984l2.4,1.138Zm0,0" transform="translate(-113.842 -84.84)"/><path class="c" d="M264.755.211,256,4.37l1.682,4.525,9.349-2.573a2.162,2.162,0,0,0,1.452-2.837l-.772-2.075a2.161,2.161,0,0,0-2.953-1.2Zm0,0" transform="translate(-240.838 -0.001)"/><path class="c" d="M46.734.211,55.493,4.37,53.81,8.895,44.462,6.322a2.162,2.162,0,0,1-1.452-2.837l.771-2.075a2.161,2.161,0,0,1,2.953-1.2Zm0,0" transform="translate(-40.334 -0.001)"/><path class="d" d="M283.638,50.163a.483.483,0,0,1-.261-.889,23.723,23.723,0,0,1,3.455-1.779c2.611-1.056,4.354-1,5.182.168a.483.483,0,1,1-.788.558c-1.121-1.583-5.784.878-7.328,1.866a.481.481,0,0,1-.26.076Zm0,0" transform="translate(-266.388 -43.975)"/><path class="d" d="M85.38,50.163a.481.481,0,0,1-.26-.076c-1.545-.987-6.207-3.449-7.328-1.866A.483.483,0,1,1,77,47.663c.827-1.168,2.57-1.224,5.182-.168a23.7,23.7,0,0,1,3.455,1.779.483.483,0,0,1-.261.889Zm0,0" transform="translate(-72.361 -43.975)"/><path class="d" d="M213.92,47.523h-2.747a1.361,1.361,0,0,0-1.361,1.361v3.991a1.361,1.361,0,0,0,1.361,1.361h2.747a1.361,1.361,0,0,0,1.361-1.361V48.885A1.361,1.361,0,0,0,213.92,47.523Zm0,0" transform="translate(-197.389 -44.709)"/><path class="c" d="M215.234,214.836h4.827v17.576h-4.827Zm0,0" transform="translate(-202.49 -202.115)"/><path class="d" d="M215.234,214.836h4.827v2.124h-4.827Zm0,0" transform="translate(-202.49 -202.115)"/></svg>