<svg xmlns="http://www.w3.org/2000/svg" width="194" height="220" viewBox="0 0 194 220"><defs><style>.a{fill:#e2dcd9;}.b{fill:#c4c4c4;}.c{opacity:0.08;}.d{fill:#f68d2f;}</style></defs><g transform="translate(0 0)"><g transform="translate(11.368 25.636)"><path class="a" d="M-426.355,1507.262h0a98.633,98.633,0,0,1-69.833-28.628,97.138,97.138,0,0,1,0-138.224.912.912,0,0,1,1.244,0l10.451,10.343a.864.864,0,0,1,0,1.232.886.886,0,0,1-1.244,0l-9.826-9.725a95.406,95.406,0,0,0,.619,135.143,96.876,96.876,0,0,0,68.589,28.117,96.877,96.877,0,0,0,67.963-27.5l-9.839-9.738a.864.864,0,0,1,0-1.232.886.886,0,0,1,1.244,0l10.464,10.356a.863.863,0,0,1,0,1.231A98.635,98.635,0,0,1-426.355,1507.262Z" transform="translate(525.067 -1326.325)"/><ellipse class="b" cx="84.007" cy="83.136" rx="84.007" ry="83.136" transform="translate(14.618)"/><g class="c" transform="translate(15.087 10.887)"><g transform="translate(65.618 1.572)"><path d="M-361.613,1394.875c-1.182-1.138-2.6-1.208-4.742.035-1.426.831-5.294,4.5-5.862,6.009-1.32,3.447,1.077,4.839-1.759,7.9-2.116-1.5-2.6-4.776-3.4-6.964-.9-2.432-2.433-5.136-2.187-7.786-1.557,3.333-3.762-.8-5.2-2.012-2.109-1.786-3.456-.98-6.326-1.243a18.007,18.007,0,0,1-3.228-.927c.525.14-1.032-.919-1.032-.971-.376-.123-.946.55-1.471.358-1.645-.648-4.741-3.99-6.2-3.158.639,1.241,1.89,4.794,3.167,5.5,1.985,1.1,3.535-1.145,5.022-.848a12.673,12.673,0,0,1,3.071,2.94c.262,1.145-.027.735-.849,2.231a9.7,9.7,0,0,1-4.6,4.418c-1.549.848-5.145,3.15-6.973,3.193-2.424.053-2.372-.98-3.4-2.922-1.077-2-5.808-13.691-8.136-12.362,1.828,3.938,3.368,8.18,5.625,11.915.8,1.338,3.087,5.7,4.549,6.29,1.732.709,5.083-.865,6.622-1.338-.751,6.973-6.491,9.641-9.859,15.013-3.035,4.846,2.5,10.453-1.163,14.75-.98,1.146-3.7,1.679-4.375,2.983-.561,1.076.507,2.721.175,3.919-.437,1.566-1.383,1-2.354,2.379-.779,1.12-.525,2.73-1.426,4.008a9.947,9.947,0,0,1-6.622,4.583c-4.183.946-4.541.815-5.915-2.852q-2.139-5.721-4.286-11.434c-1.068-2.843-.613-3.972.244-7,.822-2.9,1.173-3.718-.1-6.464a42.563,42.563,0,0,1-2.467-5.31c-.473-1.558.009-2.712-.21-4.332-.166-1.277-.123-1.967-1.3-3.01-.324-.289-1.444.306-1.854.1-.464-.244-.77-1.487-1.268-1.583-2.092-.393-4.961,1.006-7.376,1.1-3.683.14-6.1.079-8.539-2.179-2.494-2.293-4.523-4.821-4.715-8.216-.421-7.419,5.092-10.13,8.153-16.115,1.023-1.985.036-2.711,2.581-4.234a7.382,7.382,0,0,1,3.306-1.016c3.885-.725,7.97-.9,11.9-1.347-.342,2.958-.587,2.511,1.819,3.964,1.917,1.154,4.138,2,6.159,2.983.682-4.208,6.317-1.138,9.414-.858,4.741.421,3.9-1.837,4.707-5.8-1.863.1-4.3.647-6.071.061-2.581-.867-2.214-1.986-2.642-4.427-.971.174-1.951.35-2.922.534a4.579,4.579,0,0,1,.192,3.832,22.855,22.855,0,0,1-2.729-2.958c-.385-.63-.428-1.854-.77-2.318-1.26-1.672-3.666-3.044-5.31-4.409-1.96,2.791,2.625,4.96,4.628,6.036-1.9,2.239-2.431,4.479-5.161,2.065,3.071.192,3.4-.595,1.908-2.7-1.61-2.258-3.719-3.482-5.993-3.368-.351.018-.621.953-.971.989-.385.043-1.426-.709-1.741-.543-.21.113-.928-.21-1.234-.079-.174.079.158,1.2,0,1.339-1.33,1.189-2.309,3.01-3.481,4.226-1.558,1.636-3.237,3.1-5.643,1.724-1.767-1.025-2.4-4.506-1.233-6.334,1.4-2.231,4.5.551,6.534-.954,1.951-1.453-.69-3.814-1.723-4.978a33.927,33.927,0,0,0,4.83-1.846c1.714-1.006,1.26-1.8,2.677-2.852,1.1-.822,1.847-.315,2.572-1.251,1.05-1.374-1.268-2.827,1.846-2.967-1.706,4.357,5.949,3.832,8.171,2.266.464-.333.053-1.444.394-1.916a9.518,9.518,0,0,1,1.365-1.146v-1.164h1.487c1-.735,1.679.6,2.161-1.2-2.152.369-3.377,1.156-4.751-.244-1.951-1.978-.289-2.451,1.444-3.832-3.158-2.257-7.813,4.129-3.945,4.7-.718.892-2.669,4.418-3.744,4.645-2.153.464-1.776-2.519-2.048-3.972-1.426.569-2.4,1.278-3.368.665a2.78,2.78,0,0,1-.761-3.15c.665-1.181,3.7-1.583,4.864-2.5,1.207-.955,1.784-2.818,3.08-3.665,4.436-2.906,13.2-1.838,17.261,1.268-1.845,1.12-4.147.385-6.177.149,1.19,1.574,2.852,3.517,5.013,2.825.272-.088.779-1.471,1.286-1.794,1.164-.761,3.158-1.11,4.488-1.583a22.209,22.209,0,0,1,12.573-.744c-2.284-6.124,1.408-2.642,5.651-3.386a5.152,5.152,0,0,0,.953-.254A83.357,83.357,0,0,1-361.613,1394.875Z" transform="translate(462.375 -1337.775)"/><path d="M-447.522,1361.653l-5.109,1.149c.56-.827,2.078-2.286,2.162-3.194.182-1.938-.843-.929-1.19-1.645-1.449-3-.665-3.094,2.045-4.6.366,1.485.473,3.565,1.216,4.935C-447.663,1359.652-445.414,1360.286-447.522,1361.653Z" transform="translate(465.015 -1335.207)"/><path d="M-451.45,1357.159c-1.483,2.557-.271,2.529-3.747,3.091C-454.3,1358.178-454.806,1355.84-451.45,1357.159Z" transform="translate(464.32 -1334.282)"/><path d="M-416.617,1346.294c-6.046-1.829,3.438-4.493,4.624-4.791-2.459,0-5.9-.5-7.86,1.438C-422.026,1345.087-419.46,1347.5-416.617,1346.294Z" transform="translate(473.678 -1338.437)"/><path d="M-438.543,1342.031l2.191-1.725a11.167,11.167,0,0,0-6.132-.671Z" transform="translate(467.765 -1338.964)"/><path d="M-438.425,1339.078c1.61,1.783,3.8.9,5.937.6C-434.476,1339.4-436.421,1339.208-438.425,1339.078Z" transform="translate(468.865 -1339.078)"/><path d="M-412.5,1411.791c-2,1.8-4.511,3.306-5.106,5.853-.311,1.333-1.277,6.9-.106,7.756,2.714,2,3.627-4.173,4.149-5.629C-412.375,1416.468-411.762,1415.145-412.5,1411.791Z" transform="translate(474.326 -1319.374)"/></g><path d="M-456.67,1348.488c2.015.544,2.979-.09,4.8-.9C-452.865,1346.733-459.262,1346.338-456.67,1348.488Z" transform="translate(528.349 -1335.386)"/><path d="M-457.443,1430.21c-.857,2.4-1.724,4.794-2.581,7.191-2.632,7.331-9.465,13.455-14.4,19.553-2.625,3.246-2.266,4.47-2.187,8.723.1,4.654,1.688,5.083,5.529,8.118-4.715,0-5.862-.1-8.993-3.708-2.179-2.5-2.782-5.145-3.875-8.32-2.17-6.291-1.908-12.9-2.318-19.492-.193-3.123.28-4.978-1.776-7.025-1.3-1.313-3.561-1.794-4.856-3.115a18.411,18.411,0,0,1-2.248-3.665c-2.222-3.805-3.324-4.837-2.564-9.037.578-3.15,2.171-5.407,3.859-8.207-.428-1.014-2.379-5.9-3.28-2.24-1.471-.831-3.359-1.566-4.479-2.755-.648-.691-.77-1.9-1.488-2.528-.638-.561-1.539-.455-2.256-.954-.98-.681-2.555-2.467-3.518-2.9-1.26-.552-2.974-.061-4.321-.561a83.315,83.315,0,0,1,26.963-52.928c.77.009,1.54.026,2.309.034.088,0,.166,0,.263-.009a19.867,19.867,0,0,1,2.555-.07c.8.106,1.329.5,1.1,1.662a16.7,16.7,0,0,1,3.273-1.793,4.038,4.038,0,0,1,1.706-.175,2.566,2.566,0,0,1,.35.053c-1.627,2.764-2.222,2.528-5.52,2.94.883.769,1.776,1.53,2.659,2.3-1.408.018-2.808.043-4.216.061.359-.743.446-1.627.839-2.361-2.213,1.259-10.97,4.7-11.469,6.77-.726,3.046,4.3,2.677,5.8,3.517,2.292,1.277,1.435,1.628.744,4.532,2.327,0,6.107-7.489,7.6-9.2,1.417-1.628,1.837-2.581,4.434-1.61,3.124,1.172.639,1.68,1.978,3.6,1.19-.7,2.379-1.408,3.569-2.108,1.085,2.354,4.769,7,1.8,8.88-2.782,1.767-7.812,1.154-11.084,2.878,1.3-.192,2.6-.385,3.893-.577a5.811,5.811,0,0,0-1.1,2.807h3.7q-2.6,1.024-5.188,2.047v-1.277c-6.046,2.126-7.716,5.591-11.994,9.912-1.523,1.539-5.31,2.721-6.247,4.524-1.154,2.23.962,4.715-.91,7.085-1.373-3.875-1.181-6.115-6.158-5.616-2.511.254-7.385,1.5-8.689,3.237-1.566,2.064-2.037,7.681.613,9.055,1.182.6,3.219-.561,4.174-1.05,1.487-.761,1.976-1.584,4.033-2.17q-1.3,3.058-2.6,6.133c1.618.193,3.245.376,4.864.569-.342,2.021-1.5,4.61.971,5.905a15.98,15.98,0,0,0,4.427.6c1.731-.236,3.936-1.286,5.939-1.566a9.238,9.238,0,0,1,4.978.165c2.773.806,9.85,3.246,11.618,5.354,1.321,1.566.849,4.576,2.24,6.063.752.8,2.974,1.2,4.015,1.6,2.459.927,9.387,2.458,9.9,4.5C-454.7,1425.022-456.944,1428.828-457.443,1430.21Z" transform="translate(513.197 -1335.634)"/><path d="M-502.243,1383.625c3.566-1.374,5.662,2.782,9.215,2.107C-496.846,1383.737-498.219,1382.075-502.243,1383.625Z" transform="translate(516.165 -1325.6)"/><path d="M-494.08,1385.505c1.739.187,4.16-.267,4.671,1.6-2.109.377-3.889.988-5.84-.192.657.032,1.353-.26,2.012-.288Z" transform="translate(518.061 -1324.925)"/><path d="M-498.057,1386.385a17.132,17.132,0,0,1,1.882.415,7.542,7.542,0,0,1-1.882.7Z" transform="translate(517.3 -1324.686)"/><path d="M-489.939,1386.385a1.637,1.637,0,0,0,2.012.558C-488.593,1386.759-489.263,1386.533-489.939,1386.385Z" transform="translate(519.5 -1324.686)"/><path d="M-475.918,1359.961l-3.261,3.114,5.646,1.389c-.075-.811.105-2.42-.292-3.162C-474.312,1360.393-476.1,1362.151-475.918,1359.961Z" transform="translate(522.416 -1331.847)"/><path d="M-477.356,1348.63l-5.564,2.491c1.618.571,5.226,2.678,6.879,2.427s4.288-3.2,5.646-4.216c-1.781-1.635-4.211-4.954-6.463-5.749a9.855,9.855,0,0,0-9.046,1.725c.614.518,1.5,1.669,2.271,1.916.534.173,1.472-.81,2.034-.707C-479.982,1346.815-477.875,1346.992-477.356,1348.63Z" transform="translate(520.593 -1336.405)"/><path d="M-480.367,1346.856c-2.489.715-.981,1.487.714.543Z" transform="translate(521.737 -1335.399)"/><path d="M-489.157,1348.027c-3.805-2.622,3.986-5.493,6.229-5.493-1.148.667-3.7,1.583-4.286,2.648C-487.978,1346.568-486.121,1348.887-489.157,1348.027Z" transform="translate(519.432 -1336.569)"/><path d="M-460.145,1338.117c-5.118,1.119-9.807,1.89-14.436,4.217-2.519,1.269-3.08,1.46-5.878,1.251-1.462-.1-4.436.132-6.623-.131a80.771,80.771,0,0,1,7.376-4.907.009.009,0,0,0,.009-.009c1.347-.2,2.519-.333,3.245-.421C-471.195,1337.5-465.455,1338.117-460.145,1338.117Z" transform="translate(520.274 -1337.841)"/><path d="M-472.467,1342.026a53.931,53.931,0,0,1,13.09-2.827,63.78,63.78,0,0,1,13.963.567c-2.158,2.2-4.573,5.793-7.355,7.122-2.012.961-4.77.541-6.779,1.506-1.561.75-2.978,2.507-4.276,3.635-3.291,2.859-4.86-.333-4.295-3.725.233-1.393,1.984-3.823.422-5.231C-468.739,1342.135-471.219,1343.081-472.467,1342.026Z" transform="translate(524.234 -1337.515)"/></g><path class="a" d="M-447.686,1484.312a.874.874,0,0,1-.874-.875V1471.7a.874.874,0,0,1,.874-.876.875.875,0,0,1,.874.876v11.739A.874.874,0,0,1-447.686,1484.312Z" transform="translate(546.353 -1291.636)"/><path class="a" d="M-417.446,1481.8c0,1.415-11.229,2.562-25.079,2.562s-25.079-1.147-25.079-2.562,11.228-4.947,25.079-4.947S-417.446,1480.387-417.446,1481.8Z" transform="translate(541.208 -1290.002)"/></g><g transform="translate(102.82)"><path class="d" d="M-431.327,1309.105a22.342,22.342,0,0,0-22.341,22.342c0,12.338,22.341,44.9,22.341,44.9s22.341-32.557,22.341-44.9A22.342,22.342,0,0,0-431.327,1309.105Zm0,31.858a10.5,10.5,0,0,1-10.5-10.5,10.5,10.5,0,0,1,10.5-10.5,10.5,10.5,0,0,1,10.5,10.5A10.5,10.5,0,0,1-431.327,1340.963Z" transform="translate(453.668 -1309.105)"/></g><g transform="translate(0 37.873)"><g transform="translate(0 0)"><path class="d" d="M-529.678,1345.209a17.841,17.841,0,0,0,1.853,25.162c7.461,6.436,38.8,9.911,38.8,9.911s-8.03-30.49-15.489-36.926A17.841,17.841,0,0,0-529.678,1345.209Zm19.262,16.618a8.387,8.387,0,0,1-11.828.872,8.386,8.386,0,0,1-.871-11.828,8.385,8.385,0,0,1,11.826-.87A8.385,8.385,0,0,1-510.416,1361.827Z" transform="translate(534.011 -1339.023)"/></g></g><g transform="translate(139.845 94.979)"><path class="d" d="M-412.271,1386.712c-5.55,4.24-12.517,25.481-12.517,25.481s22.325-1.14,27.874-5.381a12.648,12.648,0,0,0,2.372-17.729A12.647,12.647,0,0,0-412.271,1386.712Zm4.513,4.987a5.943,5.943,0,0,1,8.333,1.115,5.943,5.943,0,0,1-1.115,8.333,5.943,5.943,0,0,1-8.333-1.115A5.943,5.943,0,0,1-407.758,1391.7Z" transform="translate(424.788 -1384.114)"/></g></g></svg>