<svg xmlns="http://www.w3.org/2000/svg" width="53.677" height="19.677" viewBox="0 0 53.677 19.677"><defs><style>.a{fill:#e01515;}.b{fill:#efefef;}.c{fill:#fff;}</style></defs><g transform="translate(-84.975 -553.73)"><g transform="translate(84.975 553.73)"><path class="a" d="M135.585,555.7l3.067-1.966H84.975l3.067,1.966-3.067,1.967,3.067,1.967L84.975,561.6l3.067,1.967-3.067,1.968,3.067,1.967-3.067,1.969,3.067,1.97-3.067,1.97h53.677l-3.067-1.97,3.067-1.97-3.067-1.969,3.067-1.967-3.067-1.968,3.067-1.967-3.067-1.967,3.067-1.967Z" transform="translate(-84.975 -553.73)"/><g transform="translate(3.067 1.831)"><rect class="b" width="1.534" height="0.27" transform="translate(30.673)"/><path class="b" d="M141.651,556.18v.27h1.534v-.135h0v-.135Z" transform="translate(-95.642 -556.18)"/><rect class="b" width="1.534" height="0.27" transform="translate(27.605)"/><rect class="b" width="1.534" height="0.27" transform="translate(42.942)"/><rect class="b" width="1.534" height="0.27" transform="translate(39.874)"/><rect class="b" width="1.534" height="0.27" transform="translate(36.807)"/><rect class="b" width="1.534" height="0.27" transform="translate(33.74)"/><rect class="b" width="1.534" height="0.27" transform="translate(24.538)"/><rect class="b" width="1.534" height="0.27" transform="translate(12.269)"/><rect class="b" width="1.534" height="0.27" transform="translate(9.202)"/><rect class="b" width="1.534" height="0.27" transform="translate(15.336)"/><rect class="b" width="1.534" height="0.27" transform="translate(6.135)"/><rect class="b" width="1.534" height="0.27" transform="translate(21.471)"/><rect class="b" width="1.534" height="0.27" transform="translate(3.067)"/><rect class="b" width="1.534" height="0.27" transform="translate(18.404)"/><rect class="b" width="1.534" height="0.27"/><rect class="b" width="1.534" height="0.27" transform="translate(9.202 15.713)"/><rect class="b" width="1.534" height="0.27" transform="translate(30.673 15.713)"/><rect class="b" width="1.534" height="0.27" transform="translate(33.74 15.713)"/><rect class="b" width="1.534" height="0.27" transform="translate(27.605 15.713)"/><path class="b" d="M141.651,577.2v.27h1.534v-.106h0V577.2Z" transform="translate(-95.642 -561.486)"/><rect class="b" width="1.534" height="0.27" transform="translate(42.942 15.713)"/><rect class="b" width="1.534" height="0.27" transform="translate(24.538 15.713)"/><rect class="b" width="1.534" height="0.27" transform="translate(36.807 15.713)"/><rect class="b" width="1.534" height="0.27" transform="translate(39.874 15.713)"/><rect class="b" width="1.534" height="0.27" transform="translate(3.067 15.713)"/><rect class="b" width="1.534" height="0.27" transform="translate(0 15.713)"/><rect class="b" width="1.534" height="0.27" transform="translate(21.471 15.713)"/><rect class="b" width="1.534" height="0.27" transform="translate(6.135 15.713)"/><rect class="b" width="1.534" height="0.27" transform="translate(12.269 15.713)"/><rect class="b" width="1.534" height="0.27" transform="translate(18.404 15.713)"/><rect class="b" width="1.534" height="0.27" transform="translate(15.336 15.713)"/></g></g><g transform="translate(97.684 559.263)"><g transform="translate(0 0)"><path class="c" d="M97.212,569.193a2.193,2.193,0,0,1-.514-1.555v-4.4a2.191,2.191,0,0,1,.514-1.555,2.273,2.273,0,0,1,2.967,0,2.191,2.191,0,0,1,.514,1.555v4.4a2.193,2.193,0,0,1-.514,1.555,2.275,2.275,0,0,1-2.967,0Zm2.165-1.471v-4.569q0-.826-.681-.825t-.682.825v4.569q0,.824.682.825T99.377,567.722Z" transform="translate(-96.698 -561.131)"/><path class="c" d="M103.226,561.292h1.651l1.281,5.012h.023v-5.012h1.172v8.373H106l-1.58-6.112H104.4v6.112h-1.173Z" transform="translate(-98.346 -561.172)"/><path class="c" d="M112.8,569.2a2.249,2.249,0,0,1-.49-1.56v-.478h1.244v.573q0,.814.682.813a.643.643,0,0,0,.508-.2.959.959,0,0,0,.173-.641,1.775,1.775,0,0,0-.239-.926,4.415,4.415,0,0,0-.885-.963,5.306,5.306,0,0,1-1.136-1.3,2.649,2.649,0,0,1-.323-1.31,2.181,2.181,0,0,1,.5-1.537,1.888,1.888,0,0,1,1.459-.545,1.815,1.815,0,0,1,1.429.545,2.272,2.272,0,0,1,.484,1.561v.347h-1.244v-.431a.962.962,0,0,0-.167-.628.608.608,0,0,0-.49-.2q-.658,0-.658.8a1.58,1.58,0,0,0,.245.85,4.666,4.666,0,0,0,.891.956,4.937,4.937,0,0,1,1.136,1.3,2.9,2.9,0,0,1,.311,1.375,2.247,2.247,0,0,1-.508,1.58,1.914,1.914,0,0,1-1.477.55A1.846,1.846,0,0,1,112.8,569.2Z" transform="translate(-100.64 -561.131)"/><path class="c" d="M119.422,561.292H121.2l1.364,8.373h-1.316L121.012,568v.024h-1.5l-.239,1.639h-1.22Zm1.435,5.6-.586-4.138h-.024l-.574,4.138Z" transform="translate(-102.09 -561.172)"/><path class="c" d="M124.938,561.292h1.316v7.176h2.165v1.2h-3.481Z" transform="translate(-103.827 -561.172)"/><path class="c" d="M130.442,561.292h3.588v1.2h-2.273V564.7h1.806v1.2h-1.806v2.571h2.273v1.2h-3.588Z" transform="translate(-105.217 -561.172)"/></g></g></g></svg>