<svg xmlns="http://www.w3.org/2000/svg" width="843.638" height="589.039" viewBox="0 0 843.638 589.039"><defs><style>.a{fill:#f68d2f;}.b{fill:#1a2e35;}.c{fill:#fed2c7;}.d{fill:#211111;}.e{fill:#708499;}.f{fill:#271515;}.g{fill:#0f1d29;}.h{fill:#e2dcd9;}.i{fill:#c4c4c4;}.j{opacity:0.08;}</style></defs><g transform="translate(-14.96 -183.766)"><g transform="matrix(0.966, -0.259, 0.259, 0.966, 151.123, 208.329)"><g transform="translate(0 0)"><path class="a" d="M72.213,123.563C90.44,111.631,95.068,88.788,94.866,68.151c-.034-3.446.437-7.065-1.147-10.125s-5.405-5.215-8.564-3.839c-2.619,1.14-3.821,4.088-5.331,6.514a20.31,20.31,0,0,1-8.368,7.514c-2.249,1.086-5.013,1.715-7.177.469-2.968-1.711-3.222-5.82-3.115-9.243q.294-9.57.59-19.139c.106-3.423.2-6.918-.8-10.192s-3.31-6.351-6.587-7.34-7.4.788-8.184,4.123a31.665,31.665,0,0,0-.2,4.26c-.131,1.418-.841,2.975-2.219,3.337-1.394.368-2.757-.635-3.771-1.661-3.5-3.543-5.815-8.053-7.977-12.536s-4.255-9.067-7.411-12.916S17.028.432,12.067.036,1.74,2.539.367,7.323s1.356,9.762,4.364,13.743a77.015,77.015,0,0,0,15.75,15.55,6.321,6.321,0,0,1,2.628,2.927c.7,2.3-1.551,4.515-3.852,5.209-2.608.789-5.405.457-8.118.706s-5.671,1.357-6.757,3.855c-1.506,3.465,1.37,7.2,4.229,9.676A66.475,66.475,0,0,0,27.966,70.641c2.53.984,5.2,1.856,7.208,3.674s3.181,4.925,1.88,7.306-4.513,3.08-7.174,2.527S24.86,82.107,22.338,81.1c-4.723-1.89-10.888-1.712-14.04,2.281-2.072,2.623-2.34,6.342-1.4,9.552a24.953,24.953,0,0,0,5.051,8.586,66.673,66.673,0,0,0,28,20.432c10.965,4.049,21.185,5.318,32.273,1.615" transform="translate(0 0)"/></g><g transform="translate(5.492 2.745)"><g transform="translate(0 0)"><g transform="translate(0 0)"><path class="b" d="M0,0A2.512,2.512,0,0,0,.33.334c.25.232.584.539,1.008.932.89.813,2.2,2.015,3.844,3.607A128.869,128.869,0,0,1,18.085,19.3c2.5,3.235,5.1,6.89,7.811,10.866s5.571,8.256,8.411,12.857a154,154,0,0,1,8.2,14.836c1.273,2.648,2.4,5.416,3.545,8.239s2.3,5.681,3.473,8.576a311.94,311.94,0,0,1,11.554,33.239,151.208,151.208,0,0,1,5.093,28.228,110.852,110.852,0,0,1-.148,19.344c-.239,2.273-.458,4.039-.65,5.228l-.195,1.359a2.4,2.4,0,0,0-.044.465,2.755,2.755,0,0,0,.109-.454c.063-.335.148-.781.256-1.349.234-1.184.495-2.946.77-5.222a105.6,105.6,0,0,0,.351-19.4,148.527,148.527,0,0,0-4.975-28.35A304.479,304.479,0,0,0,50.116,74.439q-1.76-4.347-3.477-8.581c-1.147-2.813-2.284-5.6-3.569-8.265a152.869,152.869,0,0,0-8.264-14.878c-2.862-4.6-5.747-8.873-8.474-12.845s-5.357-7.617-7.891-10.844A122.046,122.046,0,0,0,5.353,4.694C3.679,3.127,2.34,1.953,1.423,1.169L.372.285A2.606,2.606,0,0,0,0,0Z" transform="translate(0)"/></g></g></g><g transform="translate(48.365 22.767)"><g transform="translate(0 0)"><path class="b" d="M.016,37.542a6.825,6.825,0,0,0,.375-1.451c.2-.942.456-2.315.742-4.012.575-3.4,1.2-8.115,1.88-13.319s1.373-9.9,2-13.282c.307-1.69.571-3.055.764-4A6.63,6.63,0,0,0,6,0a6.739,6.739,0,0,0-.47,1.424c-.27.926-.6,2.282-.966,3.966-.741,3.37-1.51,8.074-2.186,13.285C1.728,23.812,1.138,28.46.687,32.011c-.216,1.6-.4,2.954-.541,4.036A6.717,6.717,0,0,0,.016,37.542Z" transform="translate(0 0)"/></g></g><g transform="translate(3.986 50.987)"><g transform="translate(0 0)"><path class="b" d="M0,.031A9.657,9.657,0,0,0,1.773.284c1.142.128,2.8.3,4.83.587,4.073.532,9.676,1.463,15.81,2.756S34.047,6.344,38,7.481c1.979.555,3.569,1.046,4.668,1.378a9.617,9.617,0,0,0,1.731.464,9.736,9.736,0,0,0-1.651-.7c-1.079-.4-2.65-.962-4.618-1.574C34.2,5.8,28.7,4.311,22.546,3A159.314,159.314,0,0,0,6.657.423C4.61.2,2.943.088,1.792.037A9.468,9.468,0,0,0,0,.031Z" transform="translate(0)"/></g></g><g transform="translate(66.604 54.005)"><g transform="translate(0 0)"><path class="b" d="M0,55.68a2.292,2.292,0,0,0,.319-.53c.217-.425.482-.945.8-1.573C1.814,52.2,2.761,50.2,3.9,47.7c2.275-4.991,5.2-11.981,8.318-19.74s5.974-14.77,8.142-19.8C21.418,5.714,22.291,3.7,22.94,2.209c.278-.648.505-1.185.693-1.623a2.255,2.255,0,0,0,.2-.585,2.232,2.232,0,0,0-.318.53c-.217.425-.483.944-.8,1.573-.689,1.371-1.635,3.378-2.771,5.874-2.276,4.992-5.2,11.983-8.32,19.745S5.65,42.487,3.484,47.519C2.422,49.964,1.548,51.975.9,53.47c-.277.649-.506,1.186-.693,1.622A2.318,2.318,0,0,0,0,55.68Z" transform="translate(0 0)"/></g></g><g transform="translate(7.808 89.412)"><g transform="translate(0 0)"><path class="b" d="M0,0A2.3,2.3,0,0,0,.583.259L2.29.87l6.3,2.18c5.315,1.842,12.628,4.472,20.7,7.388s15.424,5.48,20.781,7.216c2.679.868,4.851,1.549,6.363,1.99l1.744.495a2.416,2.416,0,0,0,.62.133,2.233,2.233,0,0,0-.582-.255l-1.706-.61c-1.576-.546-3.7-1.284-6.3-2.18-5.316-1.843-12.63-4.472-20.708-7.39S14.088,4.359,8.729,2.623C6.052,1.755,3.878,1.073,2.366.633L.622.137A2.341,2.341,0,0,0,0,0Z" transform="translate(0)"/></g></g></g><g transform="translate(688.789 294.734)"><path class="c" d="M-232.651,1295.233s-.005-8.682-1.035-11.317-3.608-6.04-6.7-5.215-1.375,7.628-1.375,7.628l3.848,8.9Z" transform="translate(255.993 -1190.227)"/><path class="d" d="M-164.8,1498.792s2.425,10.674,1.213,13.586-17.067.242-19.693,0-9.287-2.03-9.333-3.657c-.131-4.585,14.386-5.739,14.386-5.739Z" transform="translate(290.821 -1035.656)"/><path class="d" d="M-192.8,1491.157s2.425,10.674,1.213,13.586-17.067.242-19.693,0-9.287-2.03-9.333-3.657c-.131-4.585,14.386-5.739,14.386-5.739Z" transform="translate(271.171 -1041.015)"/><path class="c" d="M-151.673,1305.331l-13.314-26.392-13.241-26.242s-11.28-14.444-23.231-4.461-3.2,36.7,8.484,42.939c9.417,5.031,15.411-.984,15.411-.984l7.3,18.851Z" transform="translate(280.608 -1213.988)"/><path class="e" d="M-155.194,1370.955l-7.419,98.092-.7,130.788H-182.6s-9.457-146.316-7.982-207.114c.294-12.124,1.07-20.581,2.507-23.427C-179.43,1352.181-155.194,1370.955-155.194,1370.955Z" transform="translate(292.137 -1131.603)"/><path class="e" d="M-160.917,1385.683c1.329-2.333-36.034,69.822-36.7,81.489s8.661,122.428,8.661,122.428h-13.967s-24.623-113.093-21.3-131.76,28.786-98.889,28.786-98.889Z" transform="translate(268.421 -1133.811)"/><path class="f" d="M-182.928,1243.19s-21.056,1.552-24.279,17.969,21.573,23.714,21.573,23.714,1.089-9.3,5.312-7.3,2.943,11.314,1.5,13.088,2.764,4.5,2.764,4.5,7.172-2.278,11.307-3.545,13.314-15.372,6.677-35.558c0,0-1.329-7.1-6.071-11.979,0,0,3.984-13.309-6.26-16.859S-185.394,1238.088-182.928,1243.19Z" transform="translate(280.376 -1226.663)"/><path class="a" d="M-121.684,1488.187c0,3.111,8.089-193.912-6.542-205.461s-48.662-3.206-53.317,2.345-41.637,190.666-39.242,192.228C-188.532,1498.339-121.684,1488.187-121.684,1488.187Z" transform="translate(270.971 -1191.383)"/><path class="a" d="M-165.8,1281.712l-45.529,51.877-20.557-40.559-11.43,7.374s21.282,71.443,27.195,69.138,44.142-28.117,44.142-28.117Z" transform="translate(255.232 -1188.023)"/><path class="a" d="M-160.961,1281.383c15.572,14.524,21.9,28.509,27.064,116.112,0,0-22.879,32.8-26.938,36.251S-188.818,1255.4-160.961,1281.383Z" transform="translate(303.707 -1190.04)"/><path class="c" d="M-227.141,1300.25s-12.916-13.155-13.663-14.4-6.486-14.422-6.486-14.422-3.242,1.2-2.743,3.447,11.462,32.751,11.462,32.751Z" transform="translate(250.484 -1195.243)"/><path class="g" d="M-236.072,1298.97l10.363-2.172a1.992,1.992,0,0,0,1.409-2.766l-12.01-26.754a1.991,1.991,0,0,0-2.027-1.166l-10.2,1.083a1.991,1.991,0,0,0-1.624,2.76l11.845,27.843A1.994,1.994,0,0,0-236.072,1298.97Z" transform="translate(250.319 -1198.981)"/><path class="c" d="M-235.179,1294.018s-1.753-8.349-2.475-9.071-5.359-8.865-5.979-8.659-1.03,2.165-1.03,3.71,2.241,13.195,2.241,13.195Z" transform="translate(254.29 -1191.834)"/></g><g transform="translate(14.96 477.042)"><g transform="translate(15.222 34.328)"><path class="h" d="M-393.689,1564.876h0a130.579,130.579,0,0,1-92.942-38.5c-51.247-51.248-51.247-134.635,0-185.883a1.2,1.2,0,0,1,1.656,0l13.91,13.91a1.17,1.17,0,0,1,0,1.656,1.171,1.171,0,0,1-1.656,0l-13.077-13.078a129.247,129.247,0,0,0,.824,181.739,128.254,128.254,0,0,0,91.286,37.811,128.241,128.241,0,0,0,90.453-36.986l-13.094-13.1a1.17,1.17,0,0,1,0-1.656,1.171,1.171,0,0,1,1.656,0l13.927,13.927a1.17,1.17,0,0,1,0,1.656A130.581,130.581,0,0,1-393.689,1564.876Z" transform="translate(525.067 -1321.632)"/><circle class="i" cx="111.803" cy="111.803" r="111.803" transform="translate(19.574)"/><g class="j" transform="translate(20.201 14.578)"><g transform="translate(86.494 2.105)"><path d="M-327.45,1412.162c-1.583-1.523-3.48-1.617-6.35.047-1.91,1.112-7.089,6.032-7.849,8.047-1.768,4.616,1.442,6.479-2.355,10.579-2.834-2-3.479-6.4-4.556-9.325-1.207-3.257-3.257-6.877-2.929-10.426-2.085,4.463-5.038-1.067-6.969-2.694-2.823-2.391-4.628-1.312-8.47-1.664a24.123,24.123,0,0,1-4.323-1.241c.7.187-1.382-1.231-1.382-1.3-.5-.165-1.266.737-1.969.48-2.2-.868-6.348-5.342-8.305-4.229.856,1.662,2.531,6.42,4.241,7.368,2.658,1.477,4.733-1.534,6.724-1.135.5.094,3.959,3.291,4.112,3.936.351,1.533-.036.984-1.137,2.987a12.986,12.986,0,0,1-6.161,5.915c-2.075,1.135-6.889,4.217-9.337,4.276-3.246.071-3.176-1.312-4.558-3.913-1.442-2.682-7.778-18.333-10.894-16.553,2.447,5.273,4.51,10.953,7.533,15.955,1.077,1.792,4.134,7.626,6.091,8.423,2.32.949,6.806-1.159,8.867-1.792-1.006,9.337-8.692,12.909-13.2,20.1-4.064,6.489,3.351,14-1.557,19.75-1.312,1.535-4.956,2.248-5.858,3.995-.751,1.441.679,3.643.235,5.248-.585,2.1-1.852,1.334-3.152,3.186-1.043,1.5-.7,3.656-1.909,5.366-2.459,3.49-4.791,5.224-8.867,6.136-5.6,1.266-6.081,1.091-7.921-3.819q-2.864-7.661-5.739-15.31c-1.43-3.807-.82-5.318.327-9.372,1.1-3.877,1.571-4.978-.14-8.656-1.067-2.3-2.578-4.7-3.3-7.11-.633-2.087.012-3.632-.281-5.8-.223-1.71-.165-2.635-1.746-4.03-.434-.387-1.933.41-2.483.129-.621-.327-1.031-1.991-1.7-2.12-2.8-.526-6.643,1.348-9.876,1.477-4.932.187-8.166.106-11.433-2.917-3.339-3.07-6.057-6.455-6.314-11-.563-9.934,6.818-13.564,10.918-21.578,1.37-2.658.048-3.63,3.456-5.669,1.756-1.043,2.236-.95,4.427-1.36,5.2-.971,10.673-1.2,15.933-1.8-.458,3.96-.786,3.363,2.435,5.308,2.566,1.545,5.541,2.682,8.247,3.994.914-5.635,8.458-1.523,12.606-1.149,6.348.563,5.223-2.459,6.3-7.766-2.495.127-5.752.866-8.13.081-3.457-1.161-2.965-2.66-3.538-5.928-1.3.233-2.612.468-3.913.715a6.131,6.131,0,0,1,.257,5.131,30.589,30.589,0,0,1-3.654-3.961c-.516-.844-.573-2.483-1.031-3.1-1.687-2.238-4.908-4.076-7.111-5.9-2.624,3.737,3.514,6.642,6.2,8.082-2.541,3-3.256,6-6.911,2.765,4.112.257,4.558-.8,2.554-3.62-2.156-3.023-4.98-4.663-8.024-4.51-.47.024-.832,1.276-1.3,1.324-.516.058-1.909-.95-2.332-.727-.281.151-1.242-.281-1.653-.106-.233.106.211,1.605,0,1.792-1.78,1.593-3.092,4.03-4.661,5.659-2.087,2.19-4.335,4.158-7.556,2.308-2.366-1.372-3.21-6.033-1.651-8.482,1.874-2.987,6.032.738,8.749-1.277,2.612-1.945-.924-5.107-2.308-6.666,2.087-.8,4.57-1.37,6.467-2.472,2.3-1.348,1.687-2.413,3.584-3.819,1.477-1.1,2.473-.422,3.445-1.675,1.406-1.84-1.7-3.785,2.471-3.972-2.284,5.834,7.966,5.131,10.941,3.035.621-.446.072-1.934.528-2.565a12.737,12.737,0,0,1,1.828-1.535v-1.558h1.991c1.336-.984,2.248.808,2.893-1.606-2.881.494-4.522,1.548-6.362-.326-2.612-2.648-.386-3.281,1.933-5.131-4.229-3.023-10.462,5.529-5.283,6.291-.962,1.195-3.574,5.915-5.014,6.22-2.883.621-2.378-3.373-2.742-5.318-1.91.762-3.21,1.711-4.51.89-1.5-.936-1.453-3.443-1.019-4.218.89-1.581,4.956-2.12,6.513-3.349,1.617-1.278,2.39-3.773,4.124-4.908,5.94-3.891,17.678-2.461,23.113,1.7-2.471,1.5-5.553.516-8.271.2,1.593,2.108,3.819,4.709,6.712,3.783.364-.117,1.043-1.969,1.722-2.4,1.559-1.019,4.229-1.487,6.009-2.12,5.975-2.1,10.615-2.145,16.835-1-3.058-8.2,1.886-3.538,7.567-4.534a6.9,6.9,0,0,0,1.276-.34A111.618,111.618,0,0,1-327.45,1412.162Z" transform="translate(462.375 -1335.702)"/><path d="M-445.789,1364.464l-6.842,1.539c.75-1.108,2.783-3.062,2.895-4.277.243-2.6-1.128-1.244-1.593-2.2-1.94-4.015-.89-4.143,2.738-6.159.49,1.989.633,4.773,1.629,6.608C-445.978,1361.783-442.968,1362.632-445.789,1364.464Z" transform="translate(469.214 -1329.051)"/><path d="M-450.18,1357.289c-1.986,3.424-.362,3.387-5.017,4.139C-454,1358.654-454.673,1355.523-450.18,1357.289Z" transform="translate(467.413 -1326.657)"/><path d="M-415.244,1347.938c-8.1-2.449,4.6-6.017,6.192-6.415-3.293,0-7.9-.667-10.525,1.925C-422.488,1346.321-419.051,1349.548-415.244,1347.938Z" transform="translate(491.651 -1337.416)"/><path d="M-437.206,1342.889l2.934-2.31c-3.162-1.21-4.818-1.223-8.212-.9Q-439.845,1341.284-437.206,1342.889Z" transform="translate(476.336 -1338.782)"/><path d="M-438.425,1339.078c2.156,2.388,5.084,1.208,7.95.8C-433.137,1339.515-435.741,1339.252-438.425,1339.078Z" transform="translate(479.185 -1339.078)"/><path d="M-410.537,1411.791c-2.679,2.415-6.04,4.426-6.836,7.837-.417,1.785-1.71,9.233-.141,10.385,3.634,2.672,4.857-5.587,5.555-7.538C-410.376,1418.054-409.555,1416.282-410.537,1411.791Z" transform="translate(493.331 -1288.041)"/></g><path d="M-456.462,1349.026c2.7.729,3.989-.121,6.423-1.207C-451.367,1346.675-459.932,1346.146-456.462,1349.026Z" transform="translate(552.443 -1331.481)"/><path d="M-438.54,1458.765c-1.147,3.21-2.308,6.419-3.457,9.629-3.525,9.817-12.674,18.016-19.281,26.182-3.514,4.347-3.034,5.986-2.929,11.68.129,6.232,2.26,6.806,7.4,10.87-6.314,0-7.849-.14-12.043-4.966-2.917-3.351-3.725-6.89-5.189-11.141-2.905-8.423-2.555-17.28-3.1-26.1-.259-4.182.374-6.666-2.378-9.406-1.746-1.758-4.769-2.4-6.5-4.172-1.288-1.312-2.085-3.327-3.011-4.908-2.975-5.1-4.45-6.477-3.433-12.1.774-4.217,2.907-7.24,5.167-10.989-.574-1.358-3.186-7.9-4.393-3-1.969-1.113-4.5-2.1-6-3.689-.868-.926-1.031-2.543-1.993-3.385-.854-.75-2.061-.609-3.021-1.278-1.312-.912-3.421-3.3-4.711-3.877-1.687-.739-3.983-.082-5.786-.751a111.562,111.562,0,0,1,36.1-70.872c1.031.012,2.063.034,3.092.046.117,0,.223,0,.352-.012a26.585,26.585,0,0,1,3.421-.094c1.077.141,1.78.668,1.476,2.226a22.355,22.355,0,0,1,4.382-2.4,5.406,5.406,0,0,1,2.284-.235,3.424,3.424,0,0,1,.468.072c-2.179,3.7-2.975,3.385-7.391,3.937,1.183,1.03,2.378,2.049,3.56,3.08-1.886.024-3.76.058-5.645.082.48-1,.6-2.178,1.123-3.162-2.963,1.686-14.689,6.29-15.358,9.066-.972,4.078,5.752,3.585,7.767,4.709,3.069,1.71,1.922,2.18,1,6.069,3.116,0,8.178-10.028,10.181-12.323,1.9-2.18,2.459-3.456,5.938-2.156,4.183,1.569.856,2.25,2.648,4.815,1.593-.938,3.186-1.885,4.779-2.823,1.453,3.152,6.386,9.372,2.413,11.891-3.726,2.366-10.46,1.546-14.842,3.854,1.746-.257,3.48-.516,5.213-.773a7.781,7.781,0,0,0-1.476,3.759h4.956q-3.479,1.371-6.947,2.742v-1.71c-8.1,2.847-10.332,7.487-16.061,13.273-2.039,2.061-7.111,3.644-8.365,6.057-1.545,2.987,1.288,6.313-1.219,9.488-1.838-5.189-1.581-8.188-8.246-7.52-3.363.341-9.888,2-11.634,4.335-2.1,2.764-2.728,10.285.82,12.125,1.583.808,4.311-.751,5.589-1.406,1.991-1.02,2.646-2.121,5.4-2.906q-1.741,4.1-3.479,8.212c2.167.259,4.345.5,6.513.762-.458,2.706-2.015,6.173,1.3,7.907a21.394,21.394,0,0,0,5.928.808c2.318-.317,5.271-1.722,7.953-2.1,3.046-.434,4.018-.552,6.666.221,3.713,1.079,13.19,4.346,15.557,7.17,1.768,2.1,1.137,6.127,3,8.118,1.007,1.065,3.982,1.605,5.376,2.145,3.293,1.241,12.57,3.291,13.261,6.021C-434.862,1451.817-437.873,1456.913-438.54,1458.765Z" transform="translate(513.197 -1332.123)"/><path d="M-502.243,1383.832c4.776-1.84,7.582,3.725,12.339,2.822C-495.017,1383.982-496.855,1381.756-502.243,1383.832Z" transform="translate(520.886 -1306.134)"/><path d="M-493.683,1385.505c2.328.25,5.57-.357,6.255,2.139-2.823.505-5.208,1.323-7.82-.257.88.042,1.812-.347,2.694-.385Z" transform="translate(525.795 -1304.386)"/><path d="M-498.057,1386.385a22.941,22.941,0,0,1,2.521.555,10.1,10.1,0,0,1-2.521.94Z" transform="translate(523.824 -1303.768)"/><path d="M-489.939,1386.385c.614.6.961,1.173,2.694.748C-488.137,1386.885-489.034,1386.583-489.939,1386.385Z" transform="translate(529.522 -1303.768)"/><path d="M-474.812,1359.961l-4.367,4.17q3.781.929,7.56,1.86c-.1-1.086.141-3.24-.391-4.234C-472.662,1360.54-475.059,1362.894-474.812,1359.961Z" transform="translate(537.074 -1322.315)"/><path d="M-474.458,1350.491q-3.725,1.667-7.451,3.336c2.166.764,7,3.586,9.211,3.25s5.742-4.289,7.56-5.645c-2.384-2.189-5.638-6.634-8.654-7.7a13.2,13.2,0,0,0-12.112,2.31c.822.693,2.015,2.235,3.041,2.565.715.231,1.971-1.084,2.723-.947C-477.974,1348.061-475.152,1348.3-474.458,1350.491Z" transform="translate(532.353 -1334.122)"/><path d="M-479.921,1346.856c-3.332.958-1.314,1.992.956.727Z" transform="translate(535.318 -1331.514)"/><path d="M-488.808,1349.889c-5.1-3.51,5.337-7.355,8.341-7.355-1.537.893-4.956,2.119-5.739,3.545C-487.228,1347.936-484.742,1351.04-488.808,1349.889Z" transform="translate(529.347 -1334.547)"/><path d="M-451.012,1338.21c-6.854,1.5-13.132,2.53-19.33,5.647-3.373,1.7-4.124,1.955-7.871,1.675-1.957-.14-5.94.177-8.869-.176a108.176,108.176,0,0,1,9.876-6.571.012.012,0,0,0,.012-.012c1.8-.271,3.373-.446,4.345-.563C-465.808,1337.38-458.122,1338.21-451.012,1338.21Z" transform="translate(531.527 -1337.841)"/><path d="M-472.467,1343.036c6.11-1.884,11.153-3.368,17.528-3.785a85.407,85.407,0,0,1,18.7.759c-2.89,2.944-6.123,7.757-9.849,9.537-2.694,1.287-6.387.724-9.078,2.017-2.09,1-3.988,3.356-5.725,4.867-4.406,3.828-6.508-.446-5.751-4.988.311-1.865,2.657-5.119.565-7C-467.475,1343.182-470.8,1344.449-472.467,1343.036Z" transform="translate(541.785 -1336.996)"/></g><path class="h" d="M-447.389,1488.885a1.17,1.17,0,0,1-1.171-1.171V1472a1.17,1.17,0,0,1,1.171-1.173,1.171,1.171,0,0,1,1.171,1.173v15.719A1.171,1.171,0,0,1-447.389,1488.885Z" transform="translate(578.767 -1229.924)"/><path class="h" d="M-400.44,1483.48c0,1.894-15.036,3.431-33.582,3.431s-33.582-1.536-33.582-3.431,15.035-6.624,33.582-6.624S-400.44,1481.584-400.44,1483.48Z" transform="translate(565.4 -1225.689)"/></g><g transform="translate(136.736)"><path class="a" d="M-423.752,1309.105a29.917,29.917,0,0,0-29.916,29.916c0,16.521,29.916,60.116,29.916,60.116s29.916-43.595,29.916-60.116A29.916,29.916,0,0,0-423.752,1309.105Zm0,42.658a14.061,14.061,0,0,1-14.061-14.062,14.059,14.059,0,0,1,14.061-14.061,14.06,14.06,0,0,1,14.063,14.061A14.062,14.062,0,0,1-423.752,1351.764Z" transform="translate(453.668 -1309.105)"/></g><g transform="translate(0 50.917)"><g transform="translate(0 0)"><path class="a" d="M-528.209,1347.307A23.89,23.89,0,0,0-525.728,1381c9.99,8.618,51.952,13.271,51.952,13.271s-10.753-40.827-20.741-49.445A23.889,23.889,0,0,0-528.209,1347.307Zm25.792,22.252a11.23,11.23,0,0,1-15.838,1.167,11.229,11.229,0,0,1-1.166-15.838,11.228,11.228,0,0,1,15.836-1.166A11.228,11.228,0,0,1-502.417,1369.559Z" transform="translate(534.011 -1339.023)"/></g></g><g transform="translate(185.887 127.656)"><path class="a" d="M-408.028,1387.593c-7.432,5.678-16.76,34.12-16.76,34.12s29.894-1.527,37.324-7.206a16.936,16.936,0,0,0,3.176-23.74A16.936,16.936,0,0,0-408.028,1387.593Zm6.043,6.678a7.958,7.958,0,0,1,11.158,1.492,7.958,7.958,0,0,1-1.492,11.157,7.957,7.957,0,0,1-11.158-1.492A7.958,7.958,0,0,1-401.984,1394.272Z" transform="translate(424.788 -1384.113)"/></g></g></g></svg>