<svg xmlns="http://www.w3.org/2000/svg" width="188.824" height="121.508" viewBox="0 0 188.824 121.508"><defs><style>.a{fill:#fff;}.b{fill:#0a3c1f;}.c{fill:#049502;}</style></defs><g transform="translate(-176.526 -51.661)"><g transform="translate(216.769 97.754)"><path class="a" d="M209.216,98.859v7.76h-.671V88.543h5.649a6.11,6.11,0,0,1,4.321,1.409,5.414,5.414,0,0,1,.006,7.5,6.125,6.125,0,0,1-4.327,1.4Zm0-.67h4.978a5.291,5.291,0,0,0,3.867-1.279,4.3,4.3,0,0,0,1.3-3.19,4.348,4.348,0,0,0-1.291-3.234,5.3,5.3,0,0,0-3.874-1.274h-4.978Z" transform="translate(-208.545 -88.282)"/><path class="a" d="M229.276,101.217h-8.827l-2.023,5.4h-.733l6.754-18.076h.819l6.766,18.076H231.3Zm-8.579-.669h8.33L225.242,90.43l-.348-1.054h-.074l-.334,1.054Z" transform="translate(-206.195 -88.282)"/><path class="a" d="M234.357,97.669h-2.272v8.95h-.671V88.543h.671v8.466h2.458l7.424-8.466h.794l.025.062L235.1,97.431l8.629,9.112-.038.075h-.782Z" transform="translate(-202.672 -88.282)"/><path class="a" d="M244.6,106.619h-.67V88.543h.67Z" transform="translate(-199.457 -88.282)"/><path class="a" d="M259.768,102.413a2.973,2.973,0,0,0-1.273-2.5,16.019,16.019,0,0,0-4.339-1.956,15.94,15.94,0,0,1-4.5-1.974,3.564,3.564,0,0,1-1.445-3.092,3.918,3.918,0,0,1,1.694-3.3,7.012,7.012,0,0,1,4.3-1.261,6.517,6.517,0,0,1,4.351,1.39,4.689,4.689,0,0,1,1.6,3.886l-.025.077h-.572a4.3,4.3,0,0,0-1.489-3.354A5.589,5.589,0,0,0,254.206,89a6.054,6.054,0,0,0-3.886,1.15,3.389,3.389,0,0,0-1.44,2.712,3.161,3.161,0,0,0,1.16,2.539,12.82,12.82,0,0,0,4.327,1.905,17.527,17.527,0,0,1,4.581,2.012,3.5,3.5,0,0,1,1.5,3.065,3.84,3.84,0,0,1-1.775,3.3,7.456,7.456,0,0,1-4.383,1.243,8.414,8.414,0,0,1-4.682-1.273,4.3,4.3,0,0,1-1.9-4l.024-.075h.558a3.873,3.873,0,0,0,1.814,3.572,7.857,7.857,0,0,0,4.184,1.111,6.613,6.613,0,0,0,3.923-1.1A3.267,3.267,0,0,0,259.768,102.413Z" transform="translate(-198.486 -88.335)"/><path class="a" d="M273.257,89.212h-6.332v17.407h-.669V89.212h-6.779v-.669h13.78Z" transform="translate(-195.464 -88.282)"/><path class="a" d="M282.144,101.217h-8.828l-2.023,5.4h-.731l6.754-18.076h.817l6.768,18.076h-.734Zm-8.579-.669h8.33L278.11,90.43l-.348-1.054h-.075l-.334,1.054Z" transform="translate(-192.617 -88.282)"/><path class="a" d="M297.306,106.619h-.671l-11.6-16.835-.075.025v16.81h-.684V88.543h.684l11.6,16.8.074-.026V88.543h.671Z" transform="translate(-189.094 -88.282)"/></g><g transform="translate(176.526 62.781)"><path class="a" d="M336.608,90.718s-15.879.08-70.486.08-70.487-.08-70.487-.08V60.509s24.012.08,70.487.08,70.486-.08,70.486-.08Z" transform="translate(-171.618 -60.509)"/><path class="a" d="M196.883,91.266V74.008H176.526l6.9,15.112-6.9,13.394h34.408V91.3C200.5,91.286,196.883,91.266,196.883,91.266Z" transform="translate(-176.526 -57.042)"/><path class="a" d="M333.579,74.008h-19.39V91.266s-4.016.02-14.454.04v11.208h33.844l-6.9-15.112Z" transform="translate(-144.882 -57.042)"/><g transform="translate(31.729 7.096)"><path class="b" d="M209.39,83.992h-4.081V69.9h-3.538V66.783l7.619-.628Z" transform="translate(-201.771 -66.155)"/><path class="b" d="M222.944,77.069h1.775v3.163h-1.775V83.94h-4.082V80.232H211.87l-.241-2.511,7.233-11.328v-.036h4.082Zm-7.814,0h3.732V71.6l-.072-.013-.447.906Z" transform="translate(-199.239 -66.103)"/><path class="b" d="M238.055,80.522h-5.23l-1.014,3.419h-4.3l5.736-17.583h2.187v.013l.011-.013h2.186L243.38,83.94h-4.3Zm-4.287-3.14h3.344l-1.643-5.458H235.4Z" transform="translate(-195.16 -66.103)"/><path class="b" d="M255.4,66.357v11.4a5.88,5.88,0,0,1-2,4.727,7.782,7.782,0,0,1-5.23,1.709,7.862,7.862,0,0,1-5.265-1.709,5.862,5.862,0,0,1-2.017-4.727v-11.4h4.094v11.4a3.313,3.313,0,0,0,.846,2.462,3.187,3.187,0,0,0,2.343.833,3.125,3.125,0,0,0,2.313-.827,3.349,3.349,0,0,0,.827-2.468v-11.4Z" transform="translate(-191.725 -66.103)"/><path class="b" d="M268.544,81.564a7.322,7.322,0,0,1-2.584,1.9,10.085,10.085,0,0,1-4.287.786,7.257,7.257,0,0,1-5.313-2,6.973,6.973,0,0,1-2.041-5.206V73.364a7.084,7.084,0,0,1,1.986-5.192,6.867,6.867,0,0,1,5.115-2.017,7.53,7.53,0,0,1,5.089,1.5,5.01,5.01,0,0,1,1.662,4.111l-.024.073h-3.828a2.474,2.474,0,0,0-.689-1.92,3,3,0,0,0-2.078-.628,2.759,2.759,0,0,0-2.294,1.124,4.635,4.635,0,0,0-.87,2.923v3.694a4.7,4.7,0,0,0,.863,2.954,2.885,2.885,0,0,0,2.421,1.116,6.838,6.838,0,0,0,1.77-.181,2.849,2.849,0,0,0,1.021-.483V77.3h-3.116V74.6h7.2Z" transform="translate(-188.275 -66.155)"/><path class="b" d="M282.017,66.357v11.4a5.876,5.876,0,0,1-2.006,4.727,7.776,7.776,0,0,1-5.228,1.709,7.862,7.862,0,0,1-5.265-1.709,5.861,5.861,0,0,1-2.017-4.727v-11.4h4.093v11.4a3.313,3.313,0,0,0,.846,2.462,3.19,3.19,0,0,0,2.343.833,3.123,3.123,0,0,0,2.313-.827,3.349,3.349,0,0,0,.827-2.468v-11.4Z" transform="translate(-184.889 -66.103)"/><path class="b" d="M290.381,79.33a1.751,1.751,0,0,0-.616-1.443,7.98,7.98,0,0,0-2.235-1.068,16.968,16.968,0,0,1-4.86-2.265,4.077,4.077,0,0,1-1.589-3.46,4.246,4.246,0,0,1,1.848-3.574,8.9,8.9,0,0,1,9.541.043,4.562,4.562,0,0,1,1.776,3.967l-.025.073h-3.96a2.218,2.218,0,0,0-.677-1.806,3.135,3.135,0,0,0-2.04-.562,2.62,2.62,0,0,0-1.751.543,1.692,1.692,0,0,0-.64,1.341,1.445,1.445,0,0,0,.657,1.238,12.849,12.849,0,0,0,2.457,1.166,13.081,13.081,0,0,1,4.625,2.21,4.4,4.4,0,0,1,1.57,3.574,4.228,4.228,0,0,1-1.811,3.628,8.027,8.027,0,0,1-4.806,1.311,8.783,8.783,0,0,1-5.054-1.408,4.841,4.841,0,0,1-2.011-4.425l.024-.073h3.974a2.737,2.737,0,0,0,.754,2.179,3.491,3.491,0,0,0,2.313.646,3,3,0,0,0,1.908-.507A1.626,1.626,0,0,0,290.381,79.33Z" transform="translate(-181.479 -66.155)"/><path class="b" d="M305.885,69.5h-4.649V83.94h-4.082V69.5h-4.565v-3.14h13.3Z" transform="translate(-178.446 -66.103)"/></g></g><path class="a" d="M209.134,59.441V51.8H207.5v7.64Zm8.339,0V51.8h-1.6v4.78l-3.559-4.78h-1.674v7.64h1.639V54.452l3.63,4.988Zm4.537,0a3.827,3.827,0,1,0,0-7.64h-3v7.64Zm0-1.43h-1.4v-4.78h1.4a2.214,2.214,0,0,1,2.372,2.373,2.278,2.278,0,0,1-2.372,2.407Zm10.606,1.43v-1.43h-3.768V56.266h3.7v-1.43h-3.7v-1.6h3.768V51.8h-5.408v7.64Zm2.9,0V56.719h1.954a2.46,2.46,0,1,0,0-4.918h-3.593v7.64Zm1.709-4.151h-1.709V53.231h1.709a1.036,1.036,0,1,1,0,2.059Zm9.211,4.151v-1.43h-3.767V56.266h3.7v-1.43h-3.7v-1.6h3.767V51.8h-5.408v7.64Zm8.13,0V51.8h-1.64v4.78L249.4,51.8h-1.677v7.64h1.606V54.452l3.662,4.988Zm4.5,0a3.827,3.827,0,1,0,0-7.64h-3v7.64Zm0-1.43h-1.4v-4.78h1.4a2.243,2.243,0,0,1,2.408,2.373,2.307,2.307,0,0,1-2.408,2.407Zm10.606,1.43v-1.43H265.9V56.266h3.7v-1.43h-3.7v-1.6h3.768V51.8h-5.407v7.64Zm8.13,0V51.8h-1.639v4.78l-3.524-4.78h-1.675v7.64h1.6V54.452l3.664,4.988Zm5.2.141a3.479,3.479,0,0,0,3.173-1.885l-1.4-.662A2.082,2.082,0,0,1,283,58.115a2.5,2.5,0,0,1,0-4.988,2.082,2.082,0,0,1,1.778,1.081l1.4-.662A3.418,3.418,0,0,0,283,51.661a3.962,3.962,0,1,0,0,7.921Zm9.56-.141v-1.43h-3.768V56.266h3.7v-1.43h-3.7v-1.6h3.768V51.8h-5.408v7.64Zm7.222,0a3.827,3.827,0,1,0,0-7.64h-3v7.64Zm0-1.43h-1.4v-4.78h1.4a2.242,2.242,0,0,1,2.408,2.373,2.306,2.306,0,0,1-2.408,2.407Zm11.932,1.43-2.93-7.64h-2.023l-2.967,7.64h1.851l.488-1.29h3.28l.488,1.29Zm-2.756-2.722h-2.37l1.184-3.278Zm6.455,2.722V56.3l2.932-4.5H316.5l-1.884,3.07-1.885-3.07H310.88l2.931,4.5v3.14Z" transform="translate(7.954)"/><g transform="translate(176.526 121.502)"><path class="c" d="M218.278,107.23v43.084a106.878,106.878,0,0,0,42.164,8.583c39.209,0,73.578-20.352,94.185-51.667Z" transform="translate(-165.803 -107.23)"/><path class="a" d="M176.526,107.23A118.8,118.8,0,0,0,229,150.314V107.23Z" transform="translate(-176.526 -107.23)"/><g transform="translate(88.502 9.434)"><path class="a" d="M273.94,135.2a13.286,13.286,0,0,1-17.635-19.877c.231-.2.47-.4.711-.584A14.5,14.5,0,1,0,274.6,134.568C274.386,134.783,274.169,134.995,273.94,135.2Z" transform="translate(-246.943 -114.736)"/><path class="a" d="M263.806,122.751l.346,3.5,1.771-3.031,3.426.753-2.33-2.628,1.773-3.029-3.212,1.408L263.25,117.1l.344,3.495L260.383,122Z" transform="translate(-243.491 -114.13)"/></g></g></g></svg>