<svg xmlns="http://www.w3.org/2000/svg" width="382" height="382" viewBox="0 0 382 382"><defs><style>.a{fill:#0a3c1f;}.b{fill:#fff;opacity:0.15;}</style></defs><g transform="translate(-492 -284)"><rect class="a" width="382" height="382" rx="18" transform="translate(492 284)"/><path class="b" d="M337.121,355.47c-.614,0-.806-.4-.806-1a1.083,1.083,0,0,1,1-.626,6.007,6.007,0,0,1,4.041-3.008,10.273,10.273,0,0,1,4.441,0,45.648,45.648,0,0,1,4.853,1.414c1.814-2.639,4.838-3.042,7.678-3.43h.2a13.978,13.978,0,0,1,4.233-.2c2.425-4.636,3.644-9.7,4.85-14.755.2-1.017.406-2.016.611-2.816.2-.819.2-1.429.4-2.223.2-2.043.406-4.053,2.016-5.87.2-.186.2-.186.4-.186,0-.422-.2-.828-.2-1.216a3.368,3.368,0,0,1-.2-2.837,38.708,38.708,0,0,0,1.014-5.452c.2-1.82.4-3.647.608-5.455.2-2.636.4-5.052.8-7.669a47.4,47.4,0,0,0,.815-7.687c.4-3.635.806-7.48,1.206-11.12a28.66,28.66,0,0,1,.409-4.215c0-1.029.2-1.817.2-2.847a18.226,18.226,0,0,1,.4-4.655,6,6,0,0,0,.2-2.013c0-1.414-.2-2.828,1.216-4.044.192-.4.8-.4,1.2,0a.692.692,0,0,1-.2,1.011,5.126,5.126,0,0,0-.608,3.033,9.962,9.962,0,0,1-.2,2.428,15.877,15.877,0,0,0-.4,4.441c0,.828-.2,1.817-.2,2.645a35.272,35.272,0,0,0-.406,4.419c-.4,3.635-.809,7.281-1.008,10.916-.2,2.617-.608,5.259-1.008,7.9-.406,2.6-.611,5.021-.806,7.461-.2,2-.412,3.836-.611,5.861a26.415,26.415,0,0,1-1.216,5.443,3.3,3.3,0,0,0,.208,2.025.756.756,0,0,1,.2.6,2.3,2.3,0,0,0,1-1,7.2,7.2,0,0,0,.608-2.019c.2-2.617.611-5.253,1.011-7.874a97.045,97.045,0,0,0,1.216-10.7.724.724,0,0,1,.2-.6.206.206,0,0,0,.2-.226,118.575,118.575,0,0,1,1.008-11.908c.2-2.633.611-5.259.806-8.082V277.3c.2-2.007.2-4.242.608-6.472a8.86,8.86,0,0,0,.4-3.231,22.781,22.781,0,0,0-.4-3.638c-.2-.2,0-.406,0-.6h-.2c-.409,0-.6,0-.812-.2-1.209-.8-1.209-1.808-1.209-3.033h0a13.048,13.048,0,0,0,.2-2.816,33.332,33.332,0,0,0,.2-4.447,51.8,51.8,0,0,1,.4-5.663,57.457,57.457,0,0,0,.2-8.28,29.29,29.29,0,0,1,.412-4.245,14.2,14.2,0,0,0,.2-4.032,3.976,3.976,0,0,1,.608-1.631c.2,0,.2-.2.4-.2a.673.673,0,0,1,.208-.4,3.653,3.653,0,0,0-.412-1.417,3.828,3.828,0,0,1-.608-3.635,15.01,15.01,0,0,0,.409-4.248v-.8a95.42,95.42,0,0,1,.2-10.708c.2-6.06.614-11.915-.2-17.98a20.873,20.873,0,0,0-1.011-3.836,10.546,10.546,0,0,0-2.419-2.837,3.764,3.764,0,0,1-1.619-2.816,3.992,3.992,0,0,1,.806-3.234h0a4.394,4.394,0,0,0,.2-1.619h0v-.6h0c0-2.233,0-3.228.806-4.041.608-.6,1.817-.8,3.842-1.206h1.011a5.037,5.037,0,0,1-.2-1.622v-.608h0V144.582h0a1.492,1.492,0,0,1,.2-.809,1.234,1.234,0,0,0-.2-.812c-2.22-2.22-2.025-4.85-2.025-7.468v-2.825a1.118,1.118,0,0,1,.608-1.02,7.021,7.021,0,0,0,2.22-.4,21.239,21.239,0,0,1,3.433-.6V117.516h0v-.608a3.155,3.155,0,0,1,1.011-2.837,3.106,3.106,0,0,1-1.011-2.816h0v-6.267A5.2,5.2,0,0,1,386,101.136a1.092,1.092,0,0,1,.8-.4,11.122,11.122,0,0,1-.2-6.246h0c.406-3.039,2.431-4.453,4.444-6.066a2,2,0,0,0,1.017-.809c.2,0,.2,0,.4-.2V82.371c0-1.216.192-2.22.192-3.647,0-.6.2-.809.822-.809a.741.741,0,0,1,.8.809,21.8,21.8,0,0,1-.2,3.647V87.42a2.821,2.821,0,0,1,.614.4c.2.208.4.208.4.4a14.982,14.982,0,0,1,4.649,4.853,9.949,9.949,0,0,1,.2,6.863v.406c0,.2.211.2.211.4h.2a5.01,5.01,0,0,1,1.408,2.633,13.239,13.239,0,0,1,.2,2.831h0v21.416h0v.394h0a3.775,3.775,0,0,1-.2,2.63c.812.2,1.619.2,2.434.406h.6c1.613.2,3.424.2,3.225,2.822V135.9c.2,2.211.2,4.652-1.814,6.658v1.02h0V159.12c0,3.238,0,6.667-.2,10.1a24.183,24.183,0,0,1,3.625.819,3.292,3.292,0,0,1,1.426.809,2.142,2.142,0,0,1,.4,1.6h0a10.787,10.787,0,0,0,.4,4.453,16.011,16.011,0,0,1,.6,4.438h0c0,.2-.208.406-.4.608a10.888,10.888,0,0,0-4.453,6.066,23.61,23.61,0,0,0-.6,7.468c0,4.862,0,9.5.2,14.349.208,4.642.4,9.288.608,14.138a6.524,6.524,0,0,1-.211,2.019,7.849,7.849,0,0,1-.8,2.019.741.741,0,0,1-1.008.412c-.2-.208-.2-.412-.409-.412a.2.2,0,0,0-.2.2c.2,0,.2.208.4.4s0,.8-.4,1-.4.812-.211,1.219v1.206c.211,8.488.614,16.969,1.42,25.463.2.394,0,1,0,1.417a1.87,1.87,0,0,0,.406,2.022.9.9,0,0,1,0,1c-.208.415-.806.415-1.213.214-.2-.214-.4-.412-.4-.608h-.211a52.426,52.426,0,0,0-7.862-.6v2.211a38.942,38.942,0,0,1,4.841.2,27.957,27.957,0,0,1,4.041.2v-.2c.2-.4.6-.4,1.008-.2.409,0,.409.4.409.6l.189-.2c.406-.4,1.011-.4,1.216,0l.2.2h0a3.512,3.512,0,0,1,1.423,2.822h0a25.146,25.146,0,0,0,.186,6.673c.2,1.014.2,1.826.415,2.645.2,3.024.6,6.038.8,9.071a29.853,29.853,0,0,1,.4,4.242h0c.208,1.411.208,2.636.415,3.861h0c.2,2.41.406,4.826.6,7.064a52.815,52.815,0,0,1,.806,5.641c.614,3.836,1.011,7.681,1.823,11.523a.74.74,0,0,1,.2.611c.4,1.61.806,3.43-.611,5.04a12.243,12.243,0,0,1,2.636,6.258v.406c.611,2.428,1,5.064,1.823,7.486a45.875,45.875,0,0,0,2.214,7.471h0a6.847,6.847,0,0,1,.2,2.016,3.071,3.071,0,0,1-.4,1.219,10.556,10.556,0,0,1,1.414.4,11.385,11.385,0,0,0,3.631.611,14.918,14.918,0,0,1,5.049.791,7.79,7.79,0,0,1,3.839,2.639c.608-.2,1.213-.415,1.823-.611a13.674,13.674,0,0,1,7.672-.388,6.329,6.329,0,0,1,2.825,1.594c.422.406.819.806,1.21,1.2a.748.748,0,0,1,.409,1.02.74.74,0,0,1-1,.4c-.192-.208-.4-.208-.614-.4a7.374,7.374,0,0,1-3.424,1.607,5.4,5.4,0,0,0-1.42.406,16.02,16.02,0,0,0-7.672,6.075c-1.82,2.828-2.825,5.861-2.428,8.662a32.927,32.927,0,0,0,3.231,10.116,29.926,29.926,0,0,0,6.869,8.289,37.935,37.935,0,0,0,8.485,5.446c3.033,1.414,2.41,2.63,5.635,3.644h0c4.044,1.023,4.044,1.023,3.247,4.838a.914.914,0,0,1-.816.62H353.48a5.643,5.643,0,0,1-1.814-.2h-2.022c-6.457,0-12.727.2-19.187.406h-6.264a5.435,5.435,0,0,1-1.82-.208c-.6-.2-1.014-.822-1.206-1.826a3.042,3.042,0,0,1,.4-1.817,2.258,2.258,0,0,1,1.82-1.408h0a43.091,43.091,0,0,0,4.642-1.42c1.408-.593,2.828-1.023,4.441-1.622h0a39.224,39.224,0,0,0,11.524-7.064,30.783,30.783,0,0,0,7.468-11.108,20.985,20.985,0,0,0,1.411-7.074,13.9,13.9,0,0,0-1.814-7.263,14.069,14.069,0,0,0-5.858-6.056,26.932,26.932,0,0,0-8.078-2.639Zm1.817-1.206a20.949,20.949,0,0,1,7.068,2.41,15.988,15.988,0,0,1,6.463,6.683,15.5,15.5,0,0,1,2.022,8.072,19.967,19.967,0,0,1-1.619,7.678A31.4,31.4,0,0,1,345,390.816a41.72,41.72,0,0,1-11.924,7.275h0c-1.607.611-3.024,1.219-4.639,1.814-1.414.428-3.03,1.017-4.642,1.423h0c-.4,0-.815.208-.815.415a.872.872,0,0,0,0,.977c0,.406,0,.406.2.617h1.017l6.264-.211h7.474v-.794c0-1.209-.208-2.428,2.013-3.228,6.673-2.63,12.131-6.469,15.549-11.511,3.442-4.645,5.259-10.507,5.259-17.785a16.081,16.081,0,0,0-4.044-11.313,19.333,19.333,0,0,0-11.1-6.041,8.921,8.921,0,0,0-4.047,0,3.7,3.7,0,0,0-2.624,1.808Zm.6,48.864c3.436-.186,6.67-.186,9.9-.186v-.22a42.007,42.007,0,0,1,3.647-4.426c1-1.414,2.214-2.847,3.216-4.444,2.636-4.019,5.265-8.3,7.678-12.309l.4-.62a7.63,7.63,0,0,1,4.255-3.836,8.375,8.375,0,0,1,5.861,0,8.754,8.754,0,0,1,4.441,4.041c.2.211.2.415.4.8a5.766,5.766,0,0,0,.614-3.237v-1.2c.4-6.472.6-12.721-.812-19-.2-.388-.2-.6-.409-1.02-.394-2.007-.806-3.827-3.021-4.633-2.825-.8-5.653-1.594-8.482-2.227a30.783,30.783,0,0,0-8.488-.214h-.2c-2.434.214-4.853.644-6.463,2.663a17.674,17.674,0,0,1,5.849,4.41,18.124,18.124,0,0,1,4.441,12.333q0,11.192-5.452,18.8-5.745,7.862-16.361,12.107c-1.011.406-1.011.818-1.011,1.414,0,.4.2.589,0,1Zm11.725-.186h.6c.6,0,1.216.186,1.613.186h19.8a13.253,13.253,0,0,1,.2-2.795,8.53,8.53,0,0,1,1.219-2.84,23.205,23.205,0,0,0,2.217-5.049,22.533,22.533,0,0,0,1.417-5.266,7.6,7.6,0,0,0-.8-5.247,7.235,7.235,0,0,0-3.638-3.237,6.178,6.178,0,0,0-4.652-.192,7.313,7.313,0,0,0-3.43,3.225l-.409.611c-2.627,4.248-5.043,8.479-7.663,12.528-1.026,1.4-2.242,3.033-3.445,4.444-1.011,1.206-2.022,2.434-3.024,3.631Zm23.624.186h6.261c.2-1,.2-2,.406-2.795.2-2.037.409-4.251.809-6.481a22.064,22.064,0,0,0,.2-3.632,28.525,28.525,0,0,1,.614-5.864,12.514,12.514,0,0,1,3.827-6.267,9.052,9.052,0,0,1,6.472-2.205,9.589,9.589,0,0,1,6.258,2.617,10.723,10.723,0,0,1,3.43,6.267,50.934,50.934,0,0,1,.614,7.868,93.917,93.917,0,0,0,1.411,10.491h6.264a9.56,9.56,0,0,0-.208-2.41,12.629,12.629,0,0,0-1-2.422,24.217,24.217,0,0,1-2.428-5.247,26.089,26.089,0,0,1-1.619-5.663,8.333,8.333,0,0,1,0-3.842v-.192c-1.411-1.42-1.411-3.039-1.411-4.658V377.9a80.333,80.333,0,0,1-.2-9.9,51.9,51.9,0,0,1,1-9.688v-.2a12.978,12.978,0,0,1,1.823-4.655,29.252,29.252,0,0,0-7.681-3.051,32.97,32.97,0,0,0-8.888-.583,32.4,32.4,0,0,0-6.258,1.014,22.318,22.318,0,0,0-5.461,2.416,14.016,14.016,0,0,1,1.216,3.83,2.245,2.245,0,0,1,.2,1.029c1.619,6.438,1.417,12.916,1.008,19.388v1.2c0,1.619,0,3.644-1.613,4.85a12.1,12.1,0,0,1,0,3.842,47.816,47.816,0,0,1-1.42,5.663,24.929,24.929,0,0,1-2.419,5.247,12.116,12.116,0,0,0-1.011,2.422,9.7,9.7,0,0,0-.2,2.41Zm7.883,0h20.6c-.6-3.412-.806-6.86-1.206-10.3-.208-2.611-.208-5.238-.62-7.868a9.357,9.357,0,0,0-3.021-5.262,7.244,7.244,0,0,0-5.049-2.205,8.8,8.8,0,0,0-5.458,1.814,11.705,11.705,0,0,0-3.238,5.458,25.671,25.671,0,0,0-.592,5.452,26.534,26.534,0,0,1-.2,4.025,55.456,55.456,0,0,0-.806,6.27c-.2.812-.2,1.817-.409,2.611Zm30.3,0h22.21a62.628,62.628,0,0,1-7.874-10.3,101.305,101.305,0,0,1-6.667-11.105,6.4,6.4,0,0,0-3.43-3.033,6.711,6.711,0,0,0-4.853,0h0a8.06,8.06,0,0,0-3.842,3.439,6.021,6.021,0,0,0-.8,4.841,49.627,49.627,0,0,0,1.411,5.47,24.3,24.3,0,0,0,2.428,5.049,8.71,8.71,0,0,1,1.216,2.84,13.052,13.052,0,0,1,.2,2.795Zm23.823,0h9.9c0-1.2,0-2-1.61-2.795a34.377,34.377,0,0,1-13.946-9.517c-3.625-4.035-5.849-9.273-6.863-15.754a24.273,24.273,0,0,1,.409-10.9,18.219,18.219,0,0,1,6.252-9.1h0c1.014-.8,2.23-1.417,3.247-2.223a8.273,8.273,0,0,0-2.841-1.8,14.765,14.765,0,0,0-4.441-.644,13.209,13.209,0,0,1-4.044-.583,9.7,9.7,0,0,1-2.016-.8,2.3,2.3,0,0,1-1,1.387,2.874,2.874,0,0,1-1.414.431,11.11,11.11,0,0,0-3.442.8c-.809.2-1.817.611-2.834.819a4.492,4.492,0,0,0-3.43,2.013,10.355,10.355,0,0,0-1.613,4.029h0a52.548,52.548,0,0,0-1.011,9.7,78.539,78.539,0,0,0,.2,9.7v.794a5.13,5.13,0,0,0,.608,3.033.611.611,0,0,1,.2-.388,9.52,9.52,0,0,1,4.645-4.251h0a9.592,9.592,0,0,1,5.858,0,7.663,7.663,0,0,1,4.444,3.836,119.818,119.818,0,0,0,6.472,11.108,124.209,124.209,0,0,0,7.871,10.1c.2.2.2.4.4.589h0v.406Zm11.533,0H459.32c.4-1.591,0-1.591-2.226-2.41h0c-3.43-.812-2.822-2.016-5.849-3.445a50.907,50.907,0,0,1-8.885-5.638,33.481,33.481,0,0,1-7.275-8.882,37.2,37.2,0,0,1-3.436-10.714,13.617,13.617,0,0,1,2.843-9.7,17.6,17.6,0,0,1,8.472-6.869,3.672,3.672,0,0,1,1.417-.4,5.8,5.8,0,0,0,2.62-1.02,4.411,4.411,0,0,0-2.01-1.2,13.246,13.246,0,0,0-6.878.223,21.683,21.683,0,0,0-6.06,3.412h0a16.244,16.244,0,0,0-5.849,8.069,25.021,25.021,0,0,0-.2,10.32,28.209,28.209,0,0,0,6.457,14.966A35.665,35.665,0,0,0,445.8,398.9c2.633,1.008,2.633,2.431,2.633,4.23Zm-80.61-64.01h0a53.373,53.373,0,0,1-3.228,9.5c.6,0,1.417.2,2.019.2.4-1.225.806-2.63,1.414-4.05h0a26.1,26.1,0,0,0,1.613-5.65Zm.409-1.622h1.817c.6-2.016,1.206-4.239,1.613-6.267.4-2.223.809-4.453,1.215-6.658-.208-.2-.406-.388-.608-.608a.2.2,0,0,1-.208-.2.193.193,0,0,1-.2.2c-1.213,1.411-1.417,3.219-1.616,5.043-.2.812-.2,1.613-.4,2.425-.406,1.216-.608,2.028-.806,2.816a27.258,27.258,0,0,1-.806,3.25Zm3.024,1.42h0a21.45,21.45,0,0,1-1.206,5.061,69.826,69.826,0,0,0,11.1.592v-1.414a4.527,4.527,0,0,0,.2-1.628,9.567,9.567,0,0,1,.2-2.41h-3.436c-2.22,0-4.435,0-6.866-.2ZM388.237,226.6v2.013h1.2a28.409,28.409,0,0,0,5.855-.2v-2.025c-2.431.208-4.649.208-7.058.208Zm-1.634,2.013V226.6h-3.421l-.2.2a2.771,2.771,0,0,1-1.216,1.411h0a2.85,2.85,0,0,1,.806.6h.806c.818,0,1.411-.2,2.226-.2Zm9.911-78.377,4.23.6v-3.628h0v-1.219a12.525,12.525,0,0,1,.4-5.443h0a10.034,10.034,0,0,1-4.23-.623c-.214,3.439-.4,6.869-.4,10.308Zm5.852.809,2.226.4v-7.865h0v-.406c0-.614-.2-1.216.391-1.817.211-.211.211-.211.409-.211a.642.642,0,0,0-.409-.192h-.6a3.614,3.614,0,0,0-1.414-.4c-.8,1.811-.608,3.616-.608,5.443v1.219h0Zm2.226,2.019-2.226-.2v9.1h2.226v-8.894Zm-3.848-.6-4.23-.6v9.08c1.4.208,2.813.208,4.23.406Zm-5.858-.4h-3.43v5.452c0,1.206-.2,2.425-.2,3.43h3.625v-8.882Zm-1.613-1.613h1.613c0-3.43.2-6.866.409-10.3h-4.248a86.853,86.853,0,0,1,.409,10.3Zm-3.43,1.613a30.624,30.624,0,0,0-4.242.4V155.9a56.513,56.513,0,0,0,.2,5.65,24.924,24.924,0,0,1,3.842-.4,21.653,21.653,0,0,1,.2-3.638v-5.452Zm-5.855.6c-.614.2-1.215.2-1.82.406v8.894c.809-.208,1.411-.208,2.025-.412a52.17,52.17,0,0,1-.2-5.65v-3.237Zm-1.82-1.216a9.17,9.17,0,0,1,2.025-.4,29.517,29.517,0,0,1-.2-4.248c0-3.219,0-6.454-1.622-9.486-.2-.406-.2-.812.2-1.017s1.011-.2,1.206.2a11.061,11.061,0,0,1,1.011,2.425,10.632,10.632,0,0,1,2.636-.2,6.9,6.9,0,0,0,2.019-.2c0-.6-.211-1.206-.211-2.019a.744.744,0,0,1,.819-.8c.4,0,.8.2.8.6,0,.812.2,1.423.2,2.224h4.45c0-.6.208-1.008.208-1.613,0-.406.6-.809,1-.809a1.1,1.1,0,0,1,.62,1.011,2.623,2.623,0,0,1-.2,1.216,8.957,8.957,0,0,0,4.022.6,11.163,11.163,0,0,1,3.647.406h.4c.4.2.608.2,1.008.412a12.117,12.117,0,0,0,.2-3.842v-2.028c0-1.008-.806-1.2-1.613-1.2h-.812a75.827,75.827,0,0,0-15.344-.6H385.8a16.4,16.4,0,0,0-4.035.8,4.786,4.786,0,0,0-1.613.406v2.223c0,2.223-.2,4.435,1.613,6.463a2.659,2.659,0,0,1,.6,2.028.714.714,0,0,0-.2.6h0v6.86Zm3.628-.8c1.42,0,2.636-.2,4.047-.2,0-3.43-.2-6.866-.4-10.1h-2.223a6.7,6.7,0,0,0-2.025.208,32.023,32.023,0,0,1,.409,6.246,25.185,25.185,0,0,0,.2,3.842Zm15.149,12.324c-1.408-.189-2.825-.189-4.245-.394a30.556,30.556,0,0,0-.186,4.032,8.856,8.856,0,0,1,0,2.22h4.23v-1.616a8.974,8.974,0,0,1,.2-4.038v-.2Zm-5.855-.394h-3.83c0,2.016,0,4.032.2,6.057a21.431,21.431,0,0,1,3.43.2V166.8a29.193,29.193,0,0,1,.2-4.23Zm-5.452.2a29.74,29.74,0,0,0-4.239.394,13.362,13.362,0,0,1,.2,2.828,6.464,6.464,0,0,0,.4,2.825h2.236a3.515,3.515,0,0,0,1.4-.2v-5.852Zm-5.864.6c-.4,0-1,.2-1.607.2v3.641h0v.608a3.45,3.45,0,0,0,.2,1.4,5.813,5.813,0,0,1,1.826-.2,15.062,15.062,0,0,1-.2-3.027,10.109,10.109,0,0,0-.214-2.627Zm8.692-49.081a8.921,8.921,0,0,0,3.238.2h1.814v-1.014h-1.613a9.691,9.691,0,0,1-3.439,0ZM395.7,116.1a8.741,8.741,0,0,1-3.238,0v13.943h0l.192.4a19.311,19.311,0,0,1,4.859,0V116.1Zm-3.238-4.444a5.785,5.785,0,0,0,3.238.2h1.814v-5.247h0a4.545,4.545,0,0,0-.6-2.627,2.476,2.476,0,0,0-1.619-.812h-.2a2.454,2.454,0,0,0-1.817.812,3.062,3.062,0,0,0-.806,2.016v5.653ZM369.438,345.571c-.4,1.2-.806,2.425-1.207,3.635,2.819.614,5.455,1.2,8.079,2.043a3.893,3.893,0,0,1,1.607,1,20.9,20.9,0,0,1,2.633-1.631v-.4a2.357,2.357,0,0,1,0-2.013,7.282,7.282,0,0,0,.409-2.019,72.11,72.11,0,0,1-11.521-.617Zm16.768-52.114a12.354,12.354,0,0,1-.2,2.834,5.013,5.013,0,0,0-.2,2.428c3.644-.217,7.067-.412,10.717-.412a37.239,37.239,0,0,0-.211-4.85,17.878,17.878,0,0,0-4.639,0h-5.458Zm-1.814,2.627a10.847,10.847,0,0,0,.2-2.431,32.2,32.2,0,0,0-6.069.6c0,1.634-.2,3.042-.2,4.658h1.206a37.2,37.2,0,0,0,4.658-.2,5.835,5.835,0,0,1,.2-2.636Zm17.974-132.519a20.154,20.154,0,0,0,0,3.439v2.019h2.022a43.31,43.31,0,0,0,.2-5.247h-.2c-.2-.211-.809-.211-1.219-.211Zm.8,63.036h-6.255v2.013h2.016a39.092,39.092,0,0,1,4.853.2,2.872,2.872,0,0,1,.809-.6h0a.2.2,0,0,0-.2-.2c-.409-.4-.809-1-1.219-1.4Zm-6.255-1.622h5.858v-.6c.2-4.041,0-8.283-.2-12.321-.2-4.447-.608-8.894-.4-13.332a6.5,6.5,0,0,0-.208-2.834,26.632,26.632,0,0,1,0-4.041,42.576,42.576,0,0,0-4.841-.809c-.208,6.866-.208,13.744-.208,20.4v13.539Zm8.479-32.314a5.644,5.644,0,0,0-1.814-.4,19.456,19.456,0,0,0,0,3.43,15.172,15.172,0,0,1,.4,3.03c-.2,4.438,0,8.885.214,13.332.2,4.038.4,8.28.2,12.528a2.506,2.506,0,0,0,.2,1.206,4.285,4.285,0,0,1,.8,1.011c.2,0,.2,0,.2.2a2.878,2.878,0,0,0,.406-1.42,3.942,3.942,0,0,0,.2-1.613c-.2-4.649-.4-9.5-.6-14.138-.2-4.853-.2-9.486-.4-14.349a14.374,14.374,0,0,1,.2-2.816Zm-9.9-1.628h-.806a19.338,19.338,0,0,0-5.858.2c.2,5.663-.2,11.514-.4,17.18-.2,5.638-.409,11.1-.2,16.557,2.41,0,4.841,0,7.058-.2V211.439c0-6.869,0-13.536.2-20.4Zm-.806-1.817a1.5,1.5,0,0,0,.806.2v-4.032h0v-2.23c.208-.8.409-1.622.6-2.223h0c.2-.6.412-1.206.6-1.613-3.03-.2-6.053,0-8.885,0h-.192a4.617,4.617,0,0,0,.4,1.613,12.793,12.793,0,0,1,.809,5.452v3.033a57.89,57.89,0,0,1,5.858-.2Zm2.431.2c2.013.2,4.233.6,6.457,1.011v-.6a10.553,10.553,0,0,0,.2-2.621,8.85,8.85,0,0,1,.409-3.237,5.033,5.033,0,0,1,1.61-2.431,6.575,6.575,0,0,0,1.209-1.613c-2.624-.4-5.253-.4-7.684-.6h-.993a7.562,7.562,0,0,1-.815,2.214h0c-.2.611-.2,1.216-.4,1.826v6.057Zm8.072,1.417.2.2a17.578,17.578,0,0,1,.809-3.43,11.178,11.178,0,0,1,4.639-6.869v-.4h0c-.794-.2-1.408-.2-2.22-.406a4.889,4.889,0,0,1-1.811,2.828,4.338,4.338,0,0,0-1.008,1.622,6.83,6.83,0,0,0-.409,2.831,13.538,13.538,0,0,1-.2,2.819v.812Zm-17.977.608c-1.011.2-2.227.4-3.228.6.6,2.828,1,5.458,0,8.491v.6h0v.4a124.825,124.825,0,0,1-.214,12.513c0,3.445-.2,6.875-.2,10.314v.6H386.6c-.2-5.455,0-11.108.2-16.557.2-5.666.412-11.328.412-16.972Zm-3.638-1.014a22.662,22.662,0,0,1,3.638-.6v-3.439a13.218,13.218,0,0,0-.614-4.85,7.8,7.8,0,0,1-.6-2.016c-1.808.208-3.635.208-5.247.4h0l-1.423.208c.412.406.819,1.008,1.219,1.4a6.471,6.471,0,0,1,1.417,1.826c.2.809.4,1.622.6,2.422.2,1.42.614,2.825.806,4.041Zm19.59,39.995a30.719,30.719,0,0,0-4.239-.2h-2.016v13.518c0,5.259.208,10.314.208,15.561,2.416,0,5.049.2,7.471.4a8.387,8.387,0,0,0,.2-.99c0-.406.192-.822,0-1.017-.812-8.488-1.212-17.174-1.414-25.662v-1.008a.715.715,0,0,1-.208-.6Zm-7.874-.394a28.616,28.616,0,0,1-5.855.2h-1.2q-.632,10.894-.614,21.81c-.2,2.428-.2,4.85-.2,7.269H395.5c0-5.247-.2-10.3-.2-15.561V230.036Zm-8.692.2h-1c-.611,0-1.408.2-2.022.2h-.6v.6h0c0,4.645-.2,9.5-.409,14.15-.4,4.853-.6,9.486-1.011,14.33v.2a31.312,31.312,0,0,1,4.239-.4c0-2.419,0-4.841.2-7.269q0-10.913.6-21.81Zm8.894,30.71h-8.075l-.2,2.016h8.28v-2.016Zm-9.9,0a17.215,17.215,0,0,0-4.45.6h-.192a1.979,1.979,0,0,0-.809,1c-.2,0-.2.208-.406.415h0c.406,0,.806.2.806.592a47.845,47.845,0,0,1,5.052-.4Zm19.791,4.23a20.157,20.157,0,0,0-3.43-.2c-1.613,0-3.234-.211-4.841-.211,0,3.036.2,6.06.2,9.083.2,5.876.394,11.942.394,17.992a47.315,47.315,0,0,1,5.455.4c1.423.2,2.834.2,4.441.412-.189-1.619-.4-3.048-.6-4.67-.2-2-.409-4.013-.608-6.05,0-1.206-.2-2.422-.2-3.632h0c-.2-2.6-.4-5.052-.809-7.672h0v-.4a14.131,14.131,0,0,1,0-5.058Zm-9.9-.406c-2.837-.2-5.449-.2-8.28-.2a19.242,19.242,0,0,1-.208,3.448v5.238c-.2,2.831-.2,5.873-.406,8.888a5.859,5.859,0,0,1-.2,1.832c0,2.618-.2,5.238-.2,7.874h5.25a18.474,18.474,0,0,1,4.646,0c0-6.05-.2-12.116-.4-17.992,0-3.024-.208-6.047-.208-9.083Zm-9.9,0a34.059,34.059,0,0,0-4.642.406c0,.611.192,1.4.192,2.233a11.9,11.9,0,0,1-.4,3.824c-.406,2.019-.406,4.261-.6,6.267h0v2.013c-.2,2.627-.614,5.455-.819,8.091-.2,1.606-.4,3.244-.608,5.052a27.183,27.183,0,0,1,5.87-.809c0-2.636,0-5.256.192-7.874a7.634,7.634,0,0,0,.2-2.037c.2-3.014.2-5.852.409-8.876v-5.046a18.679,18.679,0,0,0,.2-3.244Zm-3.033,60a10.161,10.161,0,0,0-4.85.192h-.192a8,8,0,0,1-3.238.2c-.2,2.245-.6,4.248-1.011,6.472-.4,1.823-1.008,3.845-1.417,5.662,2.028.2,4.245.2,6.261.2h3.436c.2-1,.2-2.016.409-2.819.2-3.042.4-6.06.6-8.906Zm-5.253-1.42a12.677,12.677,0,0,1,5.458-.186v-2.227c-2.624,0-5.247.2-7.678.406l-.2.208c-.4.592-.806,1.216-1.414,1.4,1.017,1.014,2.63.6,3.641.4ZM393.273,88.825h-.2c-.214.415-.611.611-1.014,1.017-1.817,1.206-3.43,2.617-3.827,4.841h0a7.237,7.237,0,0,0-.214,2.028,24.735,24.735,0,0,1,5.458-.406,50.185,50.185,0,0,1,5.449.406,6.458,6.458,0,0,0-.809-2.825,8.907,8.907,0,0,0-3.839-4.45c-.2,0-.2-.2-.4-.2-.208-.2-.4-.2-.6-.415Zm-5.25,9.7a4.783,4.783,0,0,0,.214,1.613,4.3,4.3,0,0,1,1.607-.2h8.491V99.53c.2-.4.2-.8.394-1.206a49.842,49.842,0,0,0-5.247-.406,25,25,0,0,0-5.458.611Zm-.6,4.447a.746.746,0,0,1-.2-.6,3.383,3.383,0,0,0-.809,2.617v6.267h0a2.193,2.193,0,0,0,.4,1.613c.412.2.412.806.2,1.2h0a.938.938,0,0,1-.2,1.216,2.213,2.213,0,0,0-.4,1.622v.608h0v12.925h2.425c-.2-2.627-.2-5.046-.2-7.681a39.319,39.319,0,0,0,0-4.838v-.812a1.267,1.267,0,0,0-.2-1.42.746.746,0,0,1,0-1.206,1.314,1.314,0,0,1,1.206,0,3.014,3.014,0,0,1,.608,2.828v.611a19.721,19.721,0,0,1,0,4.838,49.371,49.371,0,0,0,.4,7.681h.2V106a5.748,5.748,0,0,1,1.212-3.234,6.251,6.251,0,0,1,2.217-1.213h-4.438a2.885,2.885,0,0,0-1.411.208,4.425,4.425,0,0,1,1.814,4.645v2.214a8.16,8.16,0,0,1-.608,4.85.882.882,0,0,1-1,.2.729.729,0,0,1-.4-1.008,6.435,6.435,0,0,0,.4-3.842V106.2a2.773,2.773,0,0,0,0-1.817,2.707,2.707,0,0,0-1.212-1.411Zm11.905,74.731a56.348,56.348,0,0,1,8.094.611v-2.23a.863.863,0,0,1,.794-.8.741.741,0,0,1,.815.8v2.23a4.5,4.5,0,0,0,1.61.2c-.186-.4-.186-.809-.391-1.206a10.478,10.478,0,0,1-.4-5.052h0v-.412c-.223,0-.418-.186-.822-.186-3.228-1.017-6.664-1.017-9.9-1.216H396.3a53.06,53.06,0,0,0-8.066,0,56.165,56.165,0,0,0-8.088.6h-.2c-1.616.406-2.63.406-2.828.8-.406.211-.406,1.216-.406,2.837h0v.6a3.424,3.424,0,0,1-.6,2.642h0c-.2.186-.2.589-.4,1a4.511,4.511,0,0,1,1.613-.2,11.7,11.7,0,0,1,0-2.636.736.736,0,0,1,.806-.8.872.872,0,0,1,.812.8,9.362,9.362,0,0,0,0,2.428,4.527,4.527,0,0,0,1.616-.2h0c1.619-.2,3.439-.2,5.052-.391v-2.443a.866.866,0,0,1,.806-.8.877.877,0,0,1,.809.8v2.223h.406c3.228,0,6.255-.2,9.291,0a12.029,12.029,0,0,0,.208-2.617c0-.611.2-.819.8-.819a.742.742,0,0,1,.809.819,12.572,12.572,0,0,1-.2,2.617Zm-21.608,2.63a5.46,5.46,0,0,0-1.817.208,1.347,1.347,0,0,0,.809,1,9.393,9.393,0,0,1,2.825,3.641,14.545,14.545,0,0,1,1.219,4.242,92.278,92.278,0,0,1,.2,18.182,93.489,93.489,0,0,0-.2,10.708v.6a13.972,13.972,0,0,1-.6,5.055,3.1,3.1,0,0,0,.6,2.227c0,.2.2.406.2.6a2.967,2.967,0,0,0,.6-.812,2.867,2.867,0,0,0,.409-1.4c0-3.647,0-7.077.2-10.522.2-4.23.4-8.271.2-12.513v-.2h0a3.9,3.9,0,0,1,.2-1.411c1.011-3.244.2-6.472-.6-9.706a30.121,30.121,0,0,1-1.008-4.239,7.742,7.742,0,0,0-.611-2.022c-.2-.406-.4-1.02-.812-1.216a9.358,9.358,0,0,1-1.817-2.422Zm30.1,113.922a40.48,40.48,0,0,1-4.847-.388c-1.619-.217-3.436-.217-5.055-.412a38.912,38.912,0,0,1,.2,4.85h1.619c1,.2,2.223.2,3.234.412a21.481,21.481,0,0,0,5.043.2v-.608a28.1,28.1,0,0,0-.2-4.05Zm-9.092-192.706h-2.822a4.336,4.336,0,0,1,2.214,1.619,5.8,5.8,0,0,1,1.014,3.439h0v23.832h.806c.6-.611.409-1.42.409-2.223h0v-.6h0V106.2h0a9.951,9.951,0,0,0-.2-2.422,2.8,2.8,0,0,0-1.017-1.817h0c-.2-.2-.2-.2-.406-.412ZM397.32,320.933H384.391v2.016c1.61,0,3.424-.186,5.247-.186a25.442,25.442,0,0,1,5.656-.217h2.025v-1.613Zm-4.242-1.607h4.242a55.427,55.427,0,0,0-.406-8.3,72.1,72.1,0,0,1-.4-9.291v-1.808c-3.65,0-7.284.2-10.913.412-.2,5.653-.409,11.3-.815,16.957l-.192,2.028Zm-17.574.388c2.413-.2,5.046-.388,7.474-.388l.2-2.217c.192-5.47.593-11.114.806-16.768a31.942,31.942,0,0,1-4.245.189h-1.826c-.2,3.628-.8,7.083-1.206,10.5-.4,2.636-.809,5.256-1.008,7.883,0,.2-.2.415-.2.8Zm7.871,17.583H386c3.439,0,6.863.2,10.3.2h2.031c-.214-1.216-.214-2.431-.415-3.638-.2-3.042-.2-6.264-.4-9.676H395.09a24.918,24.918,0,0,0-5.452.186,49.316,49.316,0,0,1-5.446.2v1.2c-.2,3.048-.418,6.072-.614,8.906a11.34,11.34,0,0,0-.2,2.62ZM386,338.916h-2.819c0,1-.2,1.808-.2,2.828v1.411a2.994,2.994,0,0,0-.2,1.414h6.457c3.43.2,6.676.2,9.9.388v-.98c-.2-1.64-.406-3.253-.6-4.859H396.3c-3.439,0-6.863-.2-10.3-.2Zm13.133-14.547c.192,3.039.192,6.249.4,9.489.2,1.206.2,2.422.4,3.638h2.229a22.516,22.516,0,0,1,5.043.4,22.926,22.926,0,0,0,5.458.422h2.022l-.2-.819c-.614-2.627-1.216-5.262-1.613-7.883-.2-.406-.2-.794-.412-1.2a6.828,6.828,0,0,1-.4-3.454c-2.831-.192-5.461-.388-8.28-.388-1.417,0-3.039-.2-4.649-.2Zm1.017,14.749c.2,1.607.391,3.014.592,4.444a2.9,2.9,0,0,0,.2,1.4h2.431c4.444.211,8.879.211,13.326.421-.6-1.817-1.011-3.635-1.613-5.467H412.67a29.371,29.371,0,0,1-5.861-.406,18,18,0,0,0-4.639-.388Zm.794,7.468v2.431a21.453,21.453,0,0,1,7.474,3.231h0a6.655,6.655,0,0,1,3.644-1.414,13.344,13.344,0,0,0,2.425-.819,14.4,14.4,0,0,1,3.836-.809h0c.409,0,.608,0,.8-.189s.2-.4.4-.629h-.2a7.58,7.58,0,0,1-1.613-1.206l-.2-.208h-.2c-4.645-.2-9.3-.2-13.939-.388Zm-1.619,1.219v-1.219c-3.421-.2-6.667-.2-10.1-.4h-6.661a7.167,7.167,0,0,1-.6,2.63,2.2,2.2,0,0,0,.2,1v.2a5.865,5.865,0,0,1,2.025-.809,64.126,64.126,0,0,1,6.658-1,39.042,39.042,0,0,1,8.475.406V347.8Zm4.652-24.855c2.831,0,5.873.211,8.692.4,0,0,.2,0,.2-.186l.2-.211h0a8.637,8.637,0,0,0-3.845-1.216h-.611c-2.419-.186-5.043-.394-7.477-.394a7.957,7.957,0,0,0-2.214-.208v1.631c1.613,0,3.24.186,5.049.186Zm10.3,1.014-.2.22c-.806,1.191-.4,2.407,0,3.818,0,.412.2.819.2,1.206q.907,3.954,1.817,7.892c.6,2.611,1.42,5.238,2.227,7.669a11.972,11.972,0,0,0,.608,1.42c.4.2.806.586,1.2.785a.607.607,0,0,1,.409.208,1.478,1.478,0,0,0,.2-.791,2.566,2.566,0,0,0-.2-1.222v-.211c-.8-2.41-1.61-4.844-2.217-7.461-.608-2.431-1.215-5.058-1.826-7.678v-.2c-.4-2.019-.806-4.025-2.217-5.65Zm-15.351-4.444a7.741,7.741,0,0,1,2.214.2h0a48.8,48.8,0,0,1,7.681.394h.608a4.779,4.779,0,0,0,1.622.214c0-.214.2-.608,0-.8a127.788,127.788,0,0,1-1.823-12.715c-.406-2.025-.611-4.276-.812-6.273a17.611,17.611,0,0,1-5.647-.189c-1.014-.208-2.028-.208-3.033-.412H398.12v1.808a67.633,67.633,0,0,0,.409,9.1,63.064,63.064,0,0,1,.4,8.683Zm13.741,1.414c.406.2,1.011.406,1.408.614,0,.186.2.186.409.388a4.605,4.605,0,0,0,0-3.641v-.6a109.607,109.607,0,0,1-2.025-11.7c-.208-1.836-.4-3.659-.8-5.653-.2-2.446-.409-4.862-.6-7.272h0c-.214-1.225-.214-2.45-.415-3.656h0a35.523,35.523,0,0,0-.391-4.447c-.2-2.828-.62-5.843-.815-8.885-.2-.788-.2-1.616-.4-2.627a27.108,27.108,0,0,1-.2-7.064h0a2.032,2.032,0,0,0-.809-1.411h0c-.2-.211-.2-.211-.406-.415a.68.68,0,0,1-.189-.4h0c-.819,1.811-.611,3.845-.409,5.858v.406h0c.409,2.627.6,5.269.809,7.66v.211c0,1.014.2,2.23.2,3.445.2,2.013.4,4.047.6,6.057a50.581,50.581,0,0,0,.812,6.066h0a35.1,35.1,0,0,1,.2,4.438v.608c0,.2.223.2.223.391h0c.4,2.627.6,5.067.99,7.5a121.183,121.183,0,0,0,1.83,12.3,1.734,1.734,0,0,1,0,1.426v.4Zm-31.712-91.315v-.2c0,.2,0,.2-.2.2,0,.2-.2.2-.2.418l-.4.394a16.133,16.133,0,0,1-.2,4.45,12.364,12.364,0,0,0-.2,3.833c0,3.033-.208,5.858-.412,8.686a50.173,50.173,0,0,0-.4,5.461,34.289,34.289,0,0,1-.211,4.645,11.649,11.649,0,0,1-.2,2.617h0v.2h0a2.619,2.619,0,0,0,.2,1.225h.211a5.829,5.829,0,0,0,1.011-2.236c.4-4.841.6-9.5,1.014-14.129.192-4.853.394-9.5.394-14.15v-.2c0-.406,0-1.014-.394-1.219Zm25.243.2a.954.954,0,0,1-.2-1.209c.4-.4,1.008-.4,1.209,0,.4.2.608.6.8.8a2.673,2.673,0,0,1,.2,1.228v.2c0,1.619.2,3.436.2,5.25a48.947,48.947,0,0,0,.406,5.256c.2,3.033.2,6.057.406,9.294a44.152,44.152,0,0,0,.2,5.058,4.653,4.653,0,0,0,.2,1.613,5.372,5.372,0,0,1,.223,2.621,3.181,3.181,0,0,1-.223,1.42,3.869,3.869,0,0,1-.8,1.2c-.406.415-.809.208-1.216,0a.957.957,0,0,1,.211-1.2.752.752,0,0,0,.2-.608,1.264,1.264,0,0,0,.2-.812,4.029,4.029,0,0,0-.2-2.223,6.4,6.4,0,0,1-.2-2.01,40.733,40.733,0,0,1-.211-5.058c-.189-3.039-.189-6.066-.4-9.089a49.766,49.766,0,0,1-.4-5.461c0-1.814-.208-3.43-.208-5.25v-.6c-.2-.2-.2-.412-.4-.412Zm40.6,173.305h0" transform="translate(291.834 233.085)"/></g></svg>