<svg xmlns="http://www.w3.org/2000/svg" width="260.187" height="252.25" viewBox="0 0 260.187 252.25"><defs><style>.a{fill:#fbe1ca;}.b{fill:#2fb5f6;}.c{fill:#f68d2f;}</style></defs><g transform="translate(-272.671 -260.945)"><g transform="translate(13.081 17.964)"><path class="a" d="M261.391,421.009l-1.8-10.19L425.943,242.981l1.8,10.19Z" transform="translate(0 0)"/><path class="a" d="M263.811,434.7l-1.8-10.19L428.362,256.672l1.8,10.19Z" transform="translate(0.712 4.031)"/><path class="a" d="M266.151,447.942l-1.8-10.19L430.7,269.915l1.8,10.191Z" transform="translate(1.401 7.93)"/><path class="a" d="M269.308,462.215l-1.8-10.191L433.86,284.187l1.8,10.191Z" transform="translate(2.331 12.132)"/></g><g transform="translate(-0.021)"><path class="b" d="M400.806,308.2s-18.315,28.781-54.946,27.734S267.365,377.8,278.878,441.64s85.3,68.55,108.845,54.422,36.108-19.362,68.028-14.13,72.739-19.362,74.308-64.889-24.071-77.448-30.874-94.193-11.512-49.712-39.771-51.283S416.5,282.035,400.806,308.2Z" transform="translate(2.751 8.62)"/><circle class="c" cx="13.226" cy="13.226" r="13.226" transform="translate(506.427 305.777)"/><circle class="c" cx="7.113" cy="7.113" r="7.113" transform="translate(294.448 498.97)"/></g></g></svg>