<svg xmlns="http://www.w3.org/2000/svg" width="99.004" height="95.767" viewBox="0 0 99.004 95.767"><defs><style>.a,.g{fill:#d1d1d1;}.b,.d{fill:rgba(0,0,0,0);}.b,.c,.d,.g{stroke:#17222d;}.b,.c,.d,.e,.f,.g{stroke-linecap:round;stroke-width:3px;}.b,.c,.e,.f,.g{stroke-linejoin:round;}.c,.f,.i{fill:none;}.d{stroke-miterlimit:10;}.e{fill:#f68d2f;}.e,.f{stroke:#fff;}.h{stroke:none;}</style></defs><g transform="translate(-8239.392 -3107.408)"><path class="a" d="M8310.152,3217.93h81.008l-6.648,41.115-5.656,2.164H8316.5Z" transform="translate(-54.769 -86.941)"/><path class="b" d="M8392.869,3216.472h9.549a.865.865,0,0,1,.827,1.018l-5.99,38.888a5.7,5.7,0,0,1-5.541,4.95H8330.43a5.757,5.757,0,0,0-5.614,5.89h0a5.758,5.758,0,0,0,5.614,5.891H8394.7" transform="translate(-66.364 -85.794)"/><line class="c" x2="14.379" transform="translate(8254.997 3130.677)"/><path class="d" d="M8240.891,3149.058h6.708a5.472,5.472,0,0,1,5.357,4.574l9.375,53.678" transform="translate(0.001 -32.763)"/><g class="e" transform="translate(8274.787 3107.408)"><ellipse class="h" cx="23.125" cy="23.581" rx="23.125" ry="23.581"/><ellipse class="i" cx="23.125" cy="23.581" rx="21.625" ry="22.081"/></g><line class="f" x2="14.646" y2="14.935" transform="translate(8290.729 3123.58)"/><line class="f" y1="14.935" x2="14.646" transform="translate(8290.729 3123.58)"/><g transform="translate(8269.374 3187.316)"><g class="g"><circle class="h" cx="7.93" cy="7.93" r="7.93"/><circle class="i" cx="7.93" cy="7.93" r="6.43"/></g><g class="g" transform="translate(34.894)"><circle class="h" cx="7.93" cy="7.93" r="7.93"/><circle class="i" cx="7.93" cy="7.93" r="6.43"/></g></g></g></svg>