<svg xmlns="http://www.w3.org/2000/svg" width="40" height="40" viewBox="0 0 40 40">
  <path id="ic_male" d="M317.886,1.005A1.059,1.059,0,0,0,317.854.9a1.229,1.229,0,0,0-.039-.126,1.217,1.217,0,0,0-.064-.122c-.017-.031-.03-.063-.05-.093a1.26,1.26,0,0,0-.347-.347c-.03-.02-.062-.034-.093-.051A1.158,1.158,0,0,0,317.139.1a1.229,1.229,0,0,0-.126-.039c-.036-.011-.07-.025-.107-.032A1.273,1.273,0,0,0,316.661,0H296.453a1.25,1.25,0,0,0,0,2.5h17.191L298.322,17.822A12.5,12.5,0,0,0,277.911,27.5h0a12.5,12.5,0,1,0,25,0h0a12.446,12.446,0,0,0-2.822-7.91L315.411,4.268v17.19a1.25,1.25,0,0,0,2.5,0V1.25A1.236,1.236,0,0,0,317.886,1.005ZM290.411,37.5a10,10,0,1,1,10-10A10.011,10.011,0,0,1,290.411,37.5Z" transform="translate(-277.911)" fill="#fff"/>
</svg>
