<svg xmlns="http://www.w3.org/2000/svg" width="139.999" height="137" viewBox="0 0 139.999 137"><defs><style>.a{fill:#eaf4fe;}.b,.c,.d,.e,.g,.n{fill:none;}.b{stroke:#c1c1c1;}.b,.c,.d,.e,.f,.g,.h,.j,.k{stroke-linecap:round;}.b,.c{stroke-miterlimit:10;}.b,.c,.d,.e{stroke-width:2px;}.c,.e{stroke:#ff9595;}.d{stroke:#ffd49d;}.d,.e,.f,.g,.h,.j,.k{stroke-linejoin:round;}.f,.j{fill:#a4e4ff;}.g,.j{stroke:#232c89;stroke-width:4px;}.h{fill:#ff525c;}.i,.k{fill:#fff;}.l,.m{stroke:none;}.m{fill:#232c89;}</style></defs><g transform="translate(810.271 0.425)"><path class="a" d="M-716.891,33.549s-6.654-18.361-10.663-22.722-8.134-8.262-23.486-5.279-38.379,10.558-51.326,40.625c-7.562,18.571-7.9,37.87-7.9,42.345s3.186,14.865,8.884,19.349,8.681,7.826,15.977,12.095,22.913,16.526,40.67,17.214,37.154.918,59.419-26.05,15.049-44.162,8.4-50.541S-712.873,49.959-716.891,33.549Z" transform="translate(0 -0.79)"/><g transform="translate(-690.655 91.093)"><line class="b" x2="5.253" transform="translate(0 2.626)"/><line class="b" y1="5.253" transform="translate(2.626)"/></g><g transform="translate(-740.268 9.269)"><line class="c" x2="5.253" transform="translate(0 2.626)"/><line class="c" y1="5.253" transform="translate(2.626)"/></g><circle class="d" cx="6.068" cy="6.068" r="6.068" transform="translate(-793.127 0.575)"/><circle class="e" cx="6.068" cy="6.068" r="6.068" transform="translate(-772.956 115.637)"/><g transform="translate(-802.172 10.729)"><g transform="translate(21.32 46.756)"><g class="f" transform="translate(773.532 -71.479)"><path class="l" d="M -707.4698486328125 136.1281890869141 L -719.8006591796875 123.7980117797852 L -720.3864135742188 123.212272644043 L -721.21484375 123.212272644043 L -762.6320190429688 123.212272644043 C -767.5394897460938 123.212272644043 -771.531982421875 119.2201080322266 -771.531982421875 114.3130722045898 L -771.531982421875 82.37820434570313 C -771.531982421875 77.47116088867188 -767.5394897460938 73.47899627685547 -762.6320190429688 73.47899627685547 L -716.3690795898438 73.47899627685547 C -711.4620361328125 73.47899627685547 -707.4698486328125 77.47116088867188 -707.4698486328125 82.37820434570313 L -707.4698486328125 108.5503692626953 L -707.4698486328125 114.3130722045898 L -707.4698486328125 136.1281890869141 Z"/><path class="m" d="M -762.6320190429688 75.47900390625 C -766.4366455078125 75.47900390625 -769.531982421875 78.573974609375 -769.531982421875 82.37820434570313 L -769.531982421875 114.3130722045898 C -769.531982421875 118.1173095703125 -766.4366455078125 121.212272644043 -762.6320190429688 121.212272644043 L -721.21484375 121.212272644043 C -720.1539916992188 121.212272644043 -719.1366577148438 121.6336669921875 -718.386474609375 122.3837661743164 L -709.4698486328125 131.2999267578125 L -709.4698486328125 114.3130722045898 L -709.4698486328125 108.5503692626953 L -709.4698486328125 82.37820434570313 C -709.4698486328125 78.573974609375 -712.5648193359375 75.47900390625 -716.3690795898438 75.47900390625 L -762.6320190429688 75.47900390625 M -762.6320190429688 71.47900390625 L -716.3690795898438 71.47900390625 C -710.3491821289063 71.47900390625 -705.4698486328125 76.35911560058594 -705.4698486328125 82.37820434570313 L -705.4698486328125 108.5503692626953 L -705.4698486328125 114.3130722045898 L -705.4698486328125 138.61865234375 C -705.4698486328125 139.2022705078125 -705.9473266601563 139.5888214111328 -706.4451904296875 139.5888214111328 C -706.6832275390625 139.5888214111328 -706.9258422851563 139.50048828125 -707.1232299804688 139.3031311035156 L -721.21484375 125.212272644043 L -762.6320190429688 125.212272644043 C -768.65185546875 125.212272644043 -773.531982421875 120.332160949707 -773.531982421875 114.3130722045898 L -773.531982421875 82.37820434570313 C -773.531982421875 76.35911560058594 -768.65185546875 71.47900390625 -762.6320190429688 71.47900390625 Z"/></g><line class="g" x2="25.437" transform="translate(16.403 17.715)"/><line class="g" x2="25.437" transform="translate(16.403 27.04)"/><line class="g" x2="25.437" transform="translate(16.403 36.486)"/></g><g class="h" transform="translate(798.733 -17.421)"><path class="l" d="M -749.1776123046875 73.55540466308594 L -789.9893188476563 73.55540466308594 C -790.612060546875 73.55540466308594 -790.9205322265625 73.13754272460938 -791.0242919921875 72.9578857421875 C -791.1279296875 72.77831268310547 -791.33544921875 72.30241394042969 -791.0241088867188 71.76325225830078 L -770.6185913085938 36.41936111450195 C -770.30712890625 35.8799934387207 -769.791015625 35.82175064086914 -769.5836181640625 35.82175064086914 C -769.3762817382813 35.82175064086914 -768.8605346679688 35.87994384765625 -768.5494995117188 36.41897201538086 L -748.1429443359375 71.76315307617188 C -747.83154296875 72.30242156982422 -748.0390625 72.7783203125 -748.1427001953125 72.95790100097656 C -748.2464599609375 73.13755035400391 -748.5548706054688 73.55540466308594 -749.1776123046875 73.55540466308594 Z"/><path class="m" d="M -769.5839233398438 38.62725067138672 L -788.5947265625 71.55538940429688 L -750.5723266601563 71.55538940429688 L -769.5839233398438 38.62725067138672 M -769.5836181640625 33.82174682617188 C -768.5076293945313 33.82174682617188 -767.4317626953125 34.35428619384766 -766.8171997070313 35.41937255859375 L -746.410888671875 70.76313781738281 C -745.1808471679688 72.89329528808594 -746.7183837890625 75.55538940429688 -749.1776123046875 75.55538940429688 L -789.9893188476563 75.55538940429688 C -792.4486083984375 75.55538940429688 -793.9861450195313 72.89329528808594 -792.756103515625 70.76313781738281 L -772.3506469726563 35.41937255859375 C -771.735595703125 34.35428619384766 -770.6595458984375 33.82174682617188 -769.5836181640625 33.82174682617188 Z"/></g><g transform="translate(27.217 31.283)"><rect class="i" width="3.962" height="14.884" rx="1.981"/><rect class="i" width="3.962" height="3.962" rx="1.981" transform="translate(0 15.995)"/></g><line class="j" y2="12.441" transform="translate(29.607)"/><line class="j" x2="7.886" y2="6.942" transform="translate(7.226 11.223)"/><line class="j" x2="12.193" transform="translate(0 31.101)"/><g transform="translate(63.838 6.903)"><g class="k" transform="translate(720.487 -21.931)"><path class="l" d="M -718.4869995117188 86.58152008056641 L -718.4869995117188 64.76506042480469 L -718.4869995117188 59.003173828125 L -718.4869995117188 32.83100891113281 C -718.4869995117188 27.92353057861328 -714.494873046875 23.93099784851074 -709.5878295898438 23.93099784851074 L -663.3240966796875 23.93099784851074 C -658.4169921875 23.93099784851074 -654.4248046875 27.92353057861328 -654.4248046875 32.83100891113281 L -654.4248046875 64.76506042480469 C -654.4248046875 69.67211151123047 -658.4169921875 73.66428375244141 -663.3240966796875 73.66428375244141 L -704.7420043945313 73.66428375244141 L -705.5704345703125 73.66428375244141 L -706.15625 74.25010681152344 L -718.4869995117188 86.58152008056641 Z"/><path class="m" d="M -709.5878295898438 25.93099975585938 C -713.3920288085938 25.93099975585938 -716.4869995117188 29.02633666992188 -716.4869995117188 32.83100891113281 L -716.4869995117188 59.003173828125 L -716.4869995117188 64.76506042480469 L -716.4869995117188 81.75291442871094 L -707.5704956054688 72.8359375 C -706.8203735351563 72.08575439453125 -705.8029174804688 71.66429138183594 -704.7420043945313 71.66429138183594 L -663.3240966796875 71.66429138183594 C -659.5198364257813 71.66429138183594 -656.4248046875 68.56931304931641 -656.4248046875 64.76506042480469 L -656.4248046875 32.83100891113281 C -656.4248046875 29.02633666992188 -659.5198364257813 25.93099975585938 -663.3240966796875 25.93099975585938 L -709.5878295898438 25.93099975585938 M -709.5878295898438 21.93099975585938 L -663.3240966796875 21.93099975585938 C -657.3049926757813 21.93099975585938 -652.4248046875 26.81112670898438 -652.4248046875 32.83100891113281 L -652.4248046875 64.76506042480469 C -652.4248046875 70.78495788574219 -657.3049926757813 75.66429138183594 -663.3240966796875 75.66429138183594 L -704.7420043945313 75.66429138183594 L -718.8328857421875 89.75593566894531 C -719.030517578125 89.95329284667969 -719.273193359375 90.04159545898438 -719.5112915039063 90.04159545898438 C -720.0093994140625 90.04159545898438 -720.4869995117188 89.65480041503906 -720.4869995117188 89.07063293457031 L -720.4869995117188 64.76506042480469 L -720.4869995117188 59.003173828125 L -720.4869995117188 32.83100891113281 C -720.4869995117188 26.81112670898438 -715.607666015625 21.93099975585938 -709.5878295898438 21.93099975585938 Z"/></g><g class="j" transform="translate(11.635 22.049)"><circle class="l" cx="5.591" cy="5.591" r="5.591"/><circle class="n" cx="5.591" cy="5.591" r="3.591"/></g><g class="j" transform="translate(28.81 22.049)"><circle class="l" cx="5.591" cy="5.591" r="5.591"/><circle class="n" cx="5.591" cy="5.591" r="3.591"/></g><g class="j" transform="translate(45.99 22.049)"><circle class="l" cx="5.591" cy="5.591" r="5.591"/><circle class="n" cx="5.591" cy="5.591" r="3.591"/></g></g></g></g></svg>