<svg xmlns="http://www.w3.org/2000/svg" width="30.06" height="27" viewBox="0 0 30.06 27"><defs><style>.a{fill:#ffef61;stroke:#000;stroke-linecap:round;stroke-linejoin:round;stroke-width:2px;}</style></defs><g transform="translate(-17.679 -27.09)"><path class="a" d="M18.971,50.135,31.02,29.075a1.941,1.941,0,0,1,3.379,0l12.049,21.06a1.986,1.986,0,0,1,0,1.97,1.947,1.947,0,0,1-1.689.985H20.653a1.947,1.947,0,0,1-1.684-.988A1.986,1.986,0,0,1,18.971,50.135Z"/><path d="M88.919,79q-.33-.008-.66,0a.535.535,0,0,1-.548-.5l-.418-6.684a.541.541,0,0,1,.139-.393.534.534,0,0,1,.375-.176q.779-.028,1.56,0a.534.534,0,0,1,.375.176.541.541,0,0,1,.139.393L89.464,78.5A.535.535,0,0,1,88.919,79Z" transform="translate(-55.878 -34.485)"/><path d="M94.5,144.373a1.293,1.293,0,0,1-2.584,0,1.293,1.293,0,1,1,2.584,0Z" transform="translate(-60.499 -97.599)"/></g></svg>