<svg xmlns="http://www.w3.org/2000/svg" xmlns:xlink="http://www.w3.org/1999/xlink" width="30" height="30" viewBox="0 0 30 30"><defs><style>.a{fill:url(#a);}.b{fill:#fff;}</style><linearGradient id="a" x1="0.5" y1="0.002" x2="0.5" y2="1.148" gradientUnits="objectBoundingBox"><stop offset="0.097" stop-color="#ffd879"/><stop offset="0.154" stop-color="#fccb76"/><stop offset="0.258" stop-color="#f5aa6c"/><stop offset="0.398" stop-color="#e9755e"/><stop offset="0.449" stop-color="#e45f58"/><stop offset="0.679" stop-color="#d22a9c"/><stop offset="1" stop-color="#6968df"/></linearGradient></defs><g transform="translate(-9.656 -8.656)"><circle class="a" cx="15" cy="15" r="15" transform="translate(9.656 8.656)"/><g transform="translate(0.921 -0.079)"><g transform="translate(20.02 20.02)"><path class="b" d="M24,27.715A3.715,3.715,0,1,1,27.716,24,3.72,3.72,0,0,1,24,27.715Zm0-6.431A2.715,2.715,0,1,0,26.716,24,2.718,2.718,0,0,0,24,21.285Z" transform="translate(-20.285 -20.285)"/></g><circle class="b" cx="0.462" cy="0.462" r="0.462" transform="translate(27.356 19.324)"/><g transform="translate(16.735 16.735)"><path class="b" d="M26.817,30.735H20.654a3.923,3.923,0,0,1-3.919-3.918V20.654a3.923,3.923,0,0,1,3.919-3.919h6.163a3.923,3.923,0,0,1,3.919,3.919v6.163A3.923,3.923,0,0,1,26.817,30.735ZM20.654,17.7A2.959,2.959,0,0,0,17.7,20.654v6.163a2.959,2.959,0,0,0,2.955,2.955h6.163a2.959,2.959,0,0,0,2.955-2.955V20.654A2.959,2.959,0,0,0,26.817,17.7Z" transform="translate(-16.735 -16.735)"/></g></g></g></svg>