<svg xmlns="http://www.w3.org/2000/svg" width="126" height="354" viewBox="0 0 126 354"><defs><style>.a{fill:#fed2c7;}.b{fill:#211111;}.c{fill:#708499;}.d{fill:#271515;}.e{fill:#f68d2f;}.f{fill:#0f1d29;}</style></defs><g transform="translate(0)"><path class="a" d="M-235.078,1291.015s0-6.484-.773-8.452-2.694-4.511-5-3.895-1.027,5.7-1.027,5.7l2.874,6.65Z" transform="translate(252.51 -1213.175)"/><path class="b" d="M-171.845,1498.792s1.811,7.971.906,10.146-12.745.18-14.707,0-6.936-1.516-6.97-2.731c-.1-3.424,10.744-4.286,10.744-4.286Z" transform="translate(265.387 -1155.946)"/><path class="b" d="M-199.84,1491.157s1.811,7.972.906,10.146-12.745.181-14.707,0-6.936-1.516-6.97-2.731c-.1-3.424,10.744-4.286,10.744-4.286Z" transform="translate(258.077 -1158.014)"/><path class="a" d="M-165.724,1289.985l-9.943-19.709-9.888-19.6s-8.424-10.787-17.349-3.331-2.391,27.405,6.336,32.067c7.032,3.757,11.509-.735,11.509-.735l5.454,14.078Z" transform="translate(261.49 -1221.769)"/><path class="c" d="M-164.194,1368.712l-5.54,73.256-.525,97.673h-14.4s-7.063-109.269-5.961-154.674c.22-9.055.8-15.37,1.872-17.5C-182.294,1354.692-164.194,1368.712-164.194,1368.712Z" transform="translate(265.849 -1192.988)"/><path class="c" d="M-177.023,1378.915c.993-1.742-26.911,52.144-27.408,60.856s6.468,91.43,6.468,91.43h-10.431s-18.389-84.458-15.905-98.4,21.5-73.851,21.5-73.851Z" transform="translate(256.971 -1193.841)"/><path class="d" d="M-189.149,1239.006s-15.725,1.159-18.132,13.419,16.111,17.71,16.111,17.71.813-6.942,3.967-5.451,2.2,8.449,1.117,9.774,2.064,3.359,2.064,3.359,5.356-1.7,8.444-2.647,9.943-11.48,4.986-26.555a19.637,19.637,0,0,0-4.534-8.946s2.975-9.939-4.675-12.59S-190.991,1235.2-189.149,1239.006Z" transform="translate(261.421 -1226.663)"/><path class="e" d="M-146.8,1434.7c0,2.323,6.041-144.815-4.886-153.44s-36.341-2.395-39.817,1.751-31.095,142.39-29.306,143.556C-196.727,1442.279-146.8,1434.7-146.8,1434.7Z" transform="translate(257.478 -1214.021)"/><path class="e" d="M-185.43,1281.712l-34,38.742-15.352-30.29-8.536,5.507s15.894,53.354,20.309,51.633,32.966-21,32.966-21Z" transform="translate(252.216 -1212.471)"/><path class="e" d="M-164.328,1280.739c11.63,10.847,16.354,21.29,20.211,86.713,0,0-17.086,24.495-20.117,27.072S-185.131,1261.336-164.328,1280.739Z" transform="translate(270.117 -1213.355)"/><path class="a" d="M-232.951,1292.952s-9.645-9.824-10.2-10.755S-248,1271.426-248,1271.426s-2.421.9-2.049,2.574,8.56,24.459,8.56,24.459Z" transform="translate(250.383 -1215.054)"/><path class="f" d="M-239.68,1290.648l7.739-1.622a1.488,1.488,0,0,0,1.052-2.065l-8.969-19.98a1.487,1.487,0,0,0-1.514-.871l-7.616.808a1.487,1.487,0,0,0-1.213,2.061l8.846,20.793A1.49,1.49,0,0,0-239.68,1290.648Z" transform="translate(250.319 -1215.975)"/><path class="a" d="M-237.58,1289.528s-1.309-6.235-1.848-6.774-4-6.62-4.465-6.467-.769,1.617-.769,2.771,1.674,9.854,1.674,9.854Z" transform="translate(251.852 -1213.771)"/></g></svg>