<svg xmlns="http://www.w3.org/2000/svg" width="92.069" height="136.831" viewBox="0 0 92.069 136.831"><defs><style>.a{fill:#f68d2f;}.b{fill:#1a2e35;}</style></defs><g transform="matrix(0.966, -0.259, 0.259, 0.966, 0, 18.117)"><g transform="translate(0 0)"><g transform="translate(0)"><path class="a" d="M53.262,92.832C66.706,83.868,70.119,66.706,69.97,51.2c-.025-2.589.322-5.308-.846-7.607s-3.987-3.918-6.316-2.884c-1.932.857-2.818,3.071-3.932,4.894A15.079,15.079,0,0,1,52.7,51.248c-1.659.816-3.7,1.289-5.294.352-2.189-1.285-2.376-4.373-2.3-6.944q.217-7.19.435-14.379a24.077,24.077,0,0,0-.589-7.658c-.737-2.46-2.441-4.771-4.858-5.515s-5.461.592-6.036,3.1a24.229,24.229,0,0,0-.149,3.2,2.7,2.7,0,0,1-1.636,2.507c-1.028.277-2.033-.477-2.781-1.248-2.578-2.662-4.289-6.05-5.884-9.418s-3.138-6.812-5.466-9.7S12.56.325,8.9.027,1.284,1.907.271,5.5s1,7.334,3.219,10.325A57.324,57.324,0,0,0,15.106,27.509a4.72,4.72,0,0,1,1.938,2.2c.513,1.727-1.144,3.392-2.841,3.914-1.923.593-3.987.343-5.988.531s-4.183,1.02-4.984,2.9c-1.111,2.6,1.011,5.411,3.119,7.269a48.864,48.864,0,0,0,14.276,8.754,16.474,16.474,0,0,1,5.316,2.761c1.487,1.366,2.346,3.7,1.386,5.489S24,63.635,22.038,63.22s-3.7-1.533-5.562-2.292c-3.484-1.42-8.031-1.287-10.355,1.714a8.182,8.182,0,0,0-1.036,7.176A18.827,18.827,0,0,0,8.81,76.268,49.235,49.235,0,0,0,29.458,91.619c8.088,3.042,15.626,4,23.8,1.214" transform="translate(0 0)"/></g></g><g transform="translate(4.102 2.05)"><g transform="translate(0 0)"><path class="b" d="M0,0a1.881,1.881,0,0,0,.246.25c.186.174.436.4.753.7.665.61,1.643,1.512,2.871,2.706a96.535,96.535,0,0,1,9.636,10.826c1.87,2.427,3.807,5.17,5.833,8.152s4.16,6.194,6.281,9.646a115.7,115.7,0,0,1,6.124,11.131c.951,1.987,1.79,4.064,2.648,6.181s1.718,4.262,2.593,6.435a234.78,234.78,0,0,1,8.628,24.939,113.925,113.925,0,0,1,3.8,21.179,83.555,83.555,0,0,1-.111,14.514c-.179,1.706-.342,3.031-.485,3.922l-.146,1.02a1.807,1.807,0,0,0-.033.349,2.075,2.075,0,0,0,.082-.341c.047-.252.111-.586.191-1.012.175-.888.37-2.21.575-3.918a79.592,79.592,0,0,0,.262-14.558,111.907,111.907,0,0,0-3.716-21.27,229.166,229.166,0,0,0-8.61-25q-1.314-3.262-2.6-6.438c-.857-2.11-1.706-4.2-2.665-6.2a114.85,114.85,0,0,0-6.172-11.163c-2.138-3.455-4.292-6.657-6.328-9.637s-4-5.715-5.893-8.136A91.411,91.411,0,0,0,4,3.522C2.748,2.346,1.748,1.465,1.063.877L.278.214A1.947,1.947,0,0,0,0,0Z" transform="translate(0 0)"/></g></g><g transform="translate(35.642 17.002)"><g transform="translate(0 0)"><path class="b" d="M.012,28.037a5.1,5.1,0,0,0,.28-1.084c.153-.7.34-1.729.554-3,.429-2.539.9-6.06,1.4-9.947s1.025-7.4,1.492-9.919c.229-1.262.427-2.281.571-2.985A4.951,4.951,0,0,0,4.483,0a5.032,5.032,0,0,0-.351,1.064c-.2.692-.449,1.7-.722,2.962-.553,2.516-1.128,6.03-1.633,9.922C1.291,17.783.85,21.254.513,23.906c-.161,1.2-.3,2.206-.4,3.014A5.017,5.017,0,0,0,.012,28.037Z" transform="translate(0 0)"/></g></g><g transform="translate(2.977 38.262)"><g transform="translate(0 0)"><path class="b" d="M0,.023A7.212,7.212,0,0,0,1.324.212c.853.1,2.088.227,3.607.438,3.042.4,7.226,1.092,11.807,2.058s8.688,2.03,11.638,2.878c1.478.414,2.665.781,3.486,1.029a7.182,7.182,0,0,0,1.292.346,7.271,7.271,0,0,0-1.233-.522c-.806-.3-1.979-.719-3.449-1.175C25.54,4.33,21.432,3.22,16.837,2.242A118.976,118.976,0,0,0,4.972.316C3.442.148,2.2.066,1.338.028A7.071,7.071,0,0,0,0,.023Z" transform="translate(0 0)"/></g></g><g transform="translate(48.864 40.609)"><g transform="translate(0 0)"><path class="b" d="M0,41.582a1.712,1.712,0,0,0,.238-.4c.162-.317.36-.706.6-1.175.515-1.025,1.221-2.524,2.07-4.388,1.7-3.727,3.881-8.947,6.212-14.742S13.584,9.851,15.2,6.094C16,4.267,16.647,2.765,17.132,1.649c.208-.484.377-.885.518-1.212A1.684,1.684,0,0,0,17.8,0a1.667,1.667,0,0,0-.237.4l-.6,1.175c-.515,1.024-1.221,2.523-2.069,4.387-1.7,3.728-3.883,8.949-6.214,14.746S4.219,31.73,2.6,35.488c-.794,1.826-1.446,3.327-1.93,4.444L.154,41.144A1.731,1.731,0,0,0,0,41.582Z" transform="translate(0 0)"/></g></g><g transform="translate(5.831 67.121)"><g transform="translate(0 0)"><path class="b" d="M0,0a1.714,1.714,0,0,0,.436.19L1.71.65l4.7,1.628C10.382,3.654,15.843,5.617,21.874,7.8s11.519,4.092,15.519,5.389c2,.648,3.623,1.156,4.752,1.486l1.3.369a1.8,1.8,0,0,0,.463.1,1.668,1.668,0,0,0-.435-.19L42.2,14.494l-4.7-1.628c-3.97-1.377-9.432-3.339-15.465-5.519S10.521,3.255,6.519,1.959C4.52,1.31,2.9.8,1.767.473L.465.1A1.748,1.748,0,0,0,0,0Z" transform="translate(0)"/></g></g></g></svg>