<svg xmlns="http://www.w3.org/2000/svg" width="192" height="70" viewBox="0 0 192 70"><defs><style>.a{fill:#f68e2f;}.b{fill:#464746;}</style></defs><g transform="translate(33.465)"><path class="a" d="M149.486,413.8a1.577,1.577,0,0,1-1.125-.472l-26.636-26.917L95.089,413.331a1.576,1.576,0,0,1-2.259-.01,1.65,1.65,0,0,1,.01-2.3L120.6,382.965a1.577,1.577,0,0,1,2.25,0l27.761,28.054a1.65,1.65,0,0,1,.01,2.3A1.575,1.575,0,0,1,149.486,413.8Z" transform="translate(-92.366 -382.493)"/></g><g transform="translate(114.079 17.721)"><path class="a" d="M362.6,447.294a79.3,79.3,0,0,1-14.078-.46c3.1,4.681-.6,8.6-4.293,11.5a58.537,58.537,0,0,1-10.108,6.15c-.819.411-1.649.81-2.476,1.2a158.842,158.842,0,0,1-16.322,6.443,67.152,67.152,0,0,1-7.756,1.657c-.695.118-1.4.236-2.109.35-4.948.8-9.984,1.457-11.238,1.522,3.486-1.111,7.3-2.434,11.238-3.9.7-.261,1.4-.521,2.109-.79,8.079-3.069,16.494-6.671,23.491-10.192q1.132-.568,2.216-1.136c5.9-3.1,10.539-6.085,12.7-8.536,0,0-3.754-7.3-4.573-8.707.128-.309,2.416-6.073,3.191-8.226,1.6,3.692,2.636,4.795,4.229,5.8,3.367,2.068,9.369,1.628,13.383,1.408s5.4-.79,6.126-1.189l-3.666-7.388,3.323-6.777a18.95,18.95,0,0,1,3.455,7.506C372.835,443.793,364.948,447.192,362.6,447.294Z" transform="translate(-294.22 -426.03)"/><path class="a" d="M464.976,494.458l-6-4.82-2.21,3.961-5.217-4.183-2.771,4.719,6,4.719,2.234-3.638,5.092,3.943Z" transform="translate(-387.055 -463.615)"/><path class="a" d="M466.627,513.165l5.6,4.363-2.5,4.376-5.579-4.369Z" transform="translate(-396.29 -477.698)"/></g><g transform="translate(0 22.043)"><path class="b" d="M29.437,461.3v2.324h14.82v4.233A14.86,14.86,0,0,1,35.5,481.471l-.4.171a16.37,16.37,0,0,1-6.218,1.189c-5.963,0-8.622-1.083-13.4-6.134-3.4-3.6-4.593-9.679-4.593-15.87,0-6.252,1.254-11.519,4.237-15.516a15.785,15.785,0,0,1,13.147-6.6c4.413,0,8.383,1.054,11.126,3.635a15.39,15.39,0,0,1,3.862,6.525l2-.989a15.894,15.894,0,0,0-4.477-6.928c-3.223-2.9-7.476-4.307-12.608-4.307A17.158,17.158,0,0,0,13.582,444q-5.014,6.673-5.012,16.827c0,6.773,1.526,12.606,4.984,16.929,3.7,4.64,8.1,6.85,14.78,6.85a23.651,23.651,0,0,0,4.641-.472,21.859,21.859,0,0,0,3.878-1.148,16.1,16.1,0,0,0,9.733-14.865V461.3Z" transform="translate(-8.57 -436.648)"/><path class="b" d="M127.071,453.189v18.186h28.54V453.189h2.046V493.4H155.61v-20.1h-28.54v20.1h-2.048V453.189Z" transform="translate(-78.516 -446.456)"/><path class="b" d="M238.6,439.556h-2.357L219,485.316h1.985l16.378-43.207h.136l16.05,43.207h2.1Z" transform="translate(-134.962 -438.372)"/><path class="b" d="M350.176,467.662A6.7,6.7,0,0,0,344.7,462.9v-.13a10.279,10.279,0,0,0,6.026-4.217,10.82,10.82,0,0,0,1.973-6.814c0-4-.535-6.59-2.967-8.955-2.324-2.263-5.607-3.224-9.721-3.224H322.36v45.759h2.109V463.8h15.487a9.888,9.888,0,0,1,6.278,1.819,5.085,5.085,0,0,1,1.725,3.179,35.87,35.87,0,0,1,.587,4.9c0,.033,0,.065.008.1,0,0,.224,2.686.224,11.8h2.24c0-5.043.244-9.488,0-13.094A18.8,18.8,0,0,0,350.176,467.662Zm-10.28-5.743H324.469v-20.36h15.368a12,12,0,0,1,8.53,2.963c1.669,1.677,2.364,3.993,2.364,7.282,0,3.028-.767,5.4-2.544,7.213C346.394,460.844,343.171,461.919,339.9,461.919Z" transform="translate(-197.043 -438.375)"/><path class="a" d="M389.523,513.444c-.819.411-1.649.81-2.476,1.2a35.867,35.867,0,0,0-.587-4.9q1.132-.568,2.216-1.136A18.8,18.8,0,0,1,389.523,513.444Z" transform="translate(-235.544 -479.313)"/></g></svg>