<svg xmlns="http://www.w3.org/2000/svg" width="24.002" height="17.998" viewBox="0 0 24.002 17.998"><defs><style>.a{fill:#f68d2f;}</style></defs><g transform="translate(-9315.646 -4825.684)"><path class="a" d="M18158.646,5187.682h-20a2,2,0,0,1-2-2v-14a2,2,0,0,1,2-2h20a2,2,0,0,1,2,2v14A2,2,0,0,1,18158.646,5187.682Zm-7-5a1,1,0,0,0,0,2h6a1,1,0,1,0,0-2Zm-9.539-2.557c-.639.359-2.09,1.138-2.916,1.577a1.045,1.045,0,0,0-.553.92v.433a1.037,1.037,0,0,0,1.039,1.035h7.936a1.037,1.037,0,0,0,1.039-1.035v-.433a1.049,1.049,0,0,0-.551-.92c-.848-.449-2.314-1.235-2.922-1.577a3.023,3.023,0,0,1-3.072,0Zm9.539-.442a1,1,0,0,0,0,2h6a1,1,0,1,0,0-2Zm-8-6a2.987,2.987,0,1,0,2.586,2.962A2.8,2.8,0,0,0,18143.643,5173.681Zm8,3a1,1,0,1,0,0,2h6a1,1,0,1,0,0-2Zm0-3a1,1,0,0,0,0,2h6a1,1,0,1,0,0-2Z" transform="translate(-8821.001 -344)"/></g></svg>