<svg xmlns="http://www.w3.org/2000/svg" width="40" height="40" viewBox="0 0 40 40"><defs><style>.a{fill:#ebebeb;}.b{fill:#17222d;}</style></defs><g transform="translate(-1017 -47)"><circle class="a" cx="20" cy="20" r="20" transform="translate(1017 47)"/><g transform="translate(1010.883 41.957)"><rect class="b" width="6" height="2" rx="1" transform="translate(23.117 33.043)"/><path class="b" d="M32.831,29.214V23.364a6.619,6.619,0,0,0-5.773-6.511v-.9a.931.931,0,0,0-1.862,0v.9a6.619,6.619,0,0,0-5.773,6.511v5.851H16.968a.917.917,0,0,0,0,1.828c1.119,0,17.142,0,18.317,0s1.039-1.828,0-1.828Zm-1.862,0H21.285V23.364a4.843,4.843,0,0,1,9.684,0Z" transform="translate(0 0)"/></g></g></svg>