<svg xmlns="http://www.w3.org/2000/svg" width="280.238" height="176" viewBox="0 0 280.238 176"><defs><style>.a{fill:#3ab8f5;opacity:0.102;}.b{fill:#fafafa;}.c{fill:#fff;}.d{fill:#2fb5f6;}</style></defs><path class="a" d="M203.827,169.652a2.912,2.912,0,1,1,2.867,3.428A3.185,3.185,0,0,1,203.827,169.652ZM46.6,156.055c-6.421,0-11.626-4.355-11.626-9.728v-.158c0-5.373,5.206-9.728,11.626-9.728h92.436c6.682,0,12.1-4.533,12.1-10.124s-5.418-10.123-12.1-10.123H11.627C5.206,116.193,0,111.837,0,106.465v-.475c0-5.373,5.206-9.728,11.627-9.728h63.18c6.682,0,12.1-4.533,12.1-10.124s-5.417-10.123-12.1-10.123H45.032c-6.421,0-11.626-4.355-11.626-9.728s5.206-9.728,11.626-9.728H127.84c6.786,0,12.288-4.6,12.288-10.282h0c0-5.678-5.5-10.282-12.288-10.282h-95.8c-6.421,0-11.626-4.355-11.626-9.728v-.158c0-5.373,5.206-9.728,11.626-9.728H216.625c6.421,0,11.626,4.355,11.626,9.728v.441c0,5.373-5.2,9.728-11.626,9.728h-7.637c-6.589,0-11.929,4.47-11.929,9.982s5.341,9.982,11.929,9.982h59.624c6.421,0,11.626,4.356,11.626,9.728v.159c0,5.373-5.2,9.728-11.626,9.728H167.176c-6.421,0-11.627,4.355-11.627,9.728v.127c0,5.373,5.206,9.728,11.627,9.728H245c6.421,0,11.627,4.355,11.627,9.728v.823c0,5.373-5.206,9.728-11.627,9.728H201.274c-6.683,0-12.1,4.533-12.1,10.123s5.417,10.124,12.1,10.124h61.1c6.421,0,11.626,4.355,11.626,9.728v.633c0,5.373-5.206,9.728-11.626,9.728Zm71.1-27.076a2.912,2.912,0,1,1,2.867,3.428A3.185,3.185,0,0,1,117.7,128.979ZM225.342,86.7a2.912,2.912,0,1,1,2.867,3.428A3.185,3.185,0,0,1,225.342,86.7Zm-207.126,0a3.184,3.184,0,0,1,2.866-3.427,3.483,3.483,0,0,1,0,6.856A3.185,3.185,0,0,1,18.216,86.7ZM53.685,45.89a3.185,3.185,0,0,1,2.866-3.427,3.185,3.185,0,0,1,2.867,3.427,3.185,3.185,0,0,1-2.867,3.428A3.185,3.185,0,0,1,53.685,45.89ZM171.64,3.427a2.912,2.912,0,1,1,5.732,0,2.912,2.912,0,1,1-5.732,0Z" transform="translate(0)"/><path class="b" d="M378.228,505.394l-.7-29.373-3.5-6.294-9.108-4.2-15.414-.7H320.777l-39.935.7H261.926l-11.91.7a59.221,59.221,0,0,0-4.2,4.9c-.345.758-1.3,7.776-2.1,9.791s-2.3,13.859-2.1,15.386.93,21.327.7,23.079-.623,24.54-.7,26.575,2.359,23.671,2.1,25.876.835,19.156.7,22.379-.169,20.234-.7,24.477a82.39,82.39,0,0,0,0,11.889l9.108-7.693,9.809,6.994,11.91-6.994,11.91,9.092,11.21-9.092,10.509,8.392,11.21-7.693,10.509,7.693,12.611-7.693,8.407,9.092V504.695l6.306,2.8,11.21-6.294Z" transform="translate(-170.207 -460.883)"/><path class="c" d="M378.228,505.394l-.7-29.373-3.5-6.294-9.108-4.2-15.414-.7H320.777l-39.935.7H261.926l-11.91.7a59.221,59.221,0,0,0-4.2,4.9c-.345.758-1.3,7.776-2.1,9.791s-2.3,13.859-2.1,15.386.93,21.327.7,23.079-.623,24.54-.7,26.575,2.359,23.671,2.1,25.876.835,19.156.7,22.379-.169,20.234-.7,24.477a82.39,82.39,0,0,0,0,11.889l9.108-7.693,9.809,6.994,11.91-6.994,11.91,9.092,11.21-9.092,10.509,8.392,11.21-7.693,10.509,7.693,12.611-7.693,8.407,9.092V504.695l6.306,2.8,11.21-6.294Z" transform="translate(-170.207 -460.883)"/><path class="d" d="M88.015,174.109l-9.177-9.216-9.032,9.07a2.529,2.529,0,0,1-3.589,0l-8.959-9-8.96,9a2.528,2.528,0,0,1-3.588,0l-9.178-9.216-9.178,9.216a2.528,2.528,0,0,1-3.588,0l-9.178-9.216L4.57,173.8A2.613,2.613,0,0,1,2.7,174.6,2.68,2.68,0,0,1,0,171.9V17.175A17.14,17.14,0,0,1,17.1,0H126.5l-.045.045A16.326,16.326,0,0,1,141.5,16.378v33.24a2.541,2.541,0,0,1-2.552,2.558,2.47,2.47,0,0,1-1.773-.753l-9.362-9.437-8.983,9.053a2.527,2.527,0,0,1-3.594,0l-1.008-1.016V172a2.76,2.76,0,0,1-2.776,2.773,2.694,2.694,0,0,1-1.929-.817l-8.882-8.919-9.032,9.07a2.529,2.529,0,0,1-3.589,0Zm-3.653-14.763,5.447,5.469,5.3-5.323,5.525-5.548,5.525,5.548.249.25V23.913a35.753,35.753,0,0,1,2.715-13.7q.5-1.206,1.075-2.364H17.1a9.321,9.321,0,0,0-9.292,9.33V159.45l.249-.25,5.525-5.548,5.525,5.548,5.447,5.469,5.446-5.469,5.525-5.548,5.525,5.548L46.5,164.67l5.229-5.251,5.525-5.547,5.524,5.547,5.229,5.251,5.3-5.323,5.525-5.548ZM119.27,10.377a8.48,8.48,0,0,0-2.459,6.035l.1,25.184.117.118,5.255-5.3,5.525-5.569,5.525,5.569.349.352V16.378a8.479,8.479,0,0,0-8.436-8.5A8.347,8.347,0,0,0,119.27,10.377Zm-38.877,132.9v-2.5a23.939,23.939,0,0,1-9.225-4.177,3.917,3.917,0,0,1,4.614-6.331c5.922,4.351,12.42,3.395,14.243,1.663a1.941,1.941,0,0,0,.729-1.6,2.955,2.955,0,0,0-1.953-1.8c-.659-.274-1.821-.6-3.053-.952a36.771,36.771,0,0,1-9.3-3.605c-5.711-3.552-5.578-8.311-4.992-10.832a12,12,0,0,1,8.387-8.541q.272-.086.546-.161v-1.682a3.907,3.907,0,1,1,7.814,0v1.477a20.385,20.385,0,0,1,9.532,4.911,3.916,3.916,0,0,1-5.229,5.83c-3.712-3.358-7.769-3.694-10.325-2.888-.8.251-2.694,1.029-3.117,2.843-.137.592-.294,1.262,1.5,2.375a31.188,31.188,0,0,0,7.306,2.724,37.216,37.216,0,0,1,3.914,1.252,10.468,10.468,0,0,1,6.652,7.629,9.554,9.554,0,0,1-3.045,8.728,13.85,13.85,0,0,1-7.187,3.336v2.309a3.907,3.907,0,1,1-7.814,0Zm-59.973-8.109a3.923,3.923,0,0,1,0-7.845H50.983a3.923,3.923,0,0,1,0,7.845Zm0-16.377a3.923,3.923,0,0,1,0-7.845H50.983a3.923,3.923,0,0,1,0,7.845ZM85.613,88.343a3.923,3.923,0,0,1,0-7.845h8.4a3.923,3.923,0,0,1,0,7.845Zm-65.192,0a3.923,3.923,0,0,1,0-7.845H66.857a3.923,3.923,0,0,1,0,7.845ZM85.613,72.221a3.923,3.923,0,0,1,0-7.845h8.4a3.923,3.923,0,0,1,0,7.845Zm-65.192,0a3.923,3.923,0,0,1,0-7.845H66.857a3.923,3.923,0,0,1,0,7.845ZM85.613,56.1a3.923,3.923,0,0,1,0-7.845h8.4a3.923,3.923,0,0,1,0,7.845Zm-65.192,0a3.923,3.923,0,0,1,0-7.845H66.857a3.923,3.923,0,0,1,0,7.845ZM85.613,39.976a3.923,3.923,0,0,1,0-7.845h8.4a3.923,3.923,0,0,1,0,7.845Zm-65.192,0a3.923,3.923,0,0,1,0-7.845H66.857a3.923,3.923,0,0,1,0,7.845Z" transform="translate(69.661 1.144)"/></svg>