<svg xmlns="http://www.w3.org/2000/svg" width="72" height="72" viewBox="0 0 72 72"><defs><style>.a{fill:#2fb5f6;}.b{fill:#fff;}</style></defs><g transform="translate(0 -0.01)"><circle class="a" cx="36" cy="36" r="36" transform="translate(0 0.01)"/><g transform="translate(17.991 18.003)"><path class="b" d="M30.586,24.262c-.469-5.394-6.1-8.04-6.335-8.148a1.2,1.2,0,0,0-.714-.1c-6.5,1.078-7.473,4.858-7.513,5.016a1.217,1.217,0,0,0,.025.663C23.8,45.737,39.9,50.194,45.194,51.66c.407.113.744.2,1,.287a1.179,1.179,0,0,0,.378.059,1.224,1.224,0,0,0,.509-.11c.162-.073,3.988-1.876,4.923-7.753a1.224,1.224,0,0,0-.118-.752,11.648,11.648,0,0,0-7.633-5.315,1.2,1.2,0,0,0-1.085.258c-1.751,1.5-4.169,3.089-5.212,3.253-7-3.42-10.9-9.982-11.048-11.227-.086-.7,1.517-3.157,3.361-5.155A1.224,1.224,0,0,0,30.586,24.262Z" transform="translate(-15.989 -16)"/></g></g></svg>