<svg xmlns="http://www.w3.org/2000/svg" width="19.999" height="24" viewBox="0 0 19.999 24"><defs><style>.a{fill:#f68d2f;}</style></defs><g transform="translate(-9317.648 -4657.362)"><path class="a" d="M9337.517,4676.327c-.267-2.7-3.958-4.043-5.188-4.63,0,0,1.486-.635,1.509-1.246a15.4,15.4,0,0,0-.83-3.078c-.366-1.228.409-2.456.365-4.087a5.542,5.542,0,0,0-5.171-5.9,2.971,2.971,0,0,0-3.013,1.1c-2.265.275-3.222,2.693-3.31,3.848s.488,3.811.558,5.24a2.844,2.844,0,0,1-.8,2.309c-.191.183-.087,1.173,1.584,1.723,0,0-1.723.934-3.43,2.052a5.338,5.338,0,0,0-2.142,4.086c-.019,4.16,9.3,3.592,10.523,3.592a37.142,37.142,0,0,0,6.024-.623C9338.016,4679.785,9337.784,4679.027,9337.517,4676.327Zm-6.269-4.419c-.6,1.053-2.585,3.39-3.369,3.39-.279,0-1.437-.156-3.658-3.363.941-.174,2.213-1.319,2.213-1.96,0-.266-.262-.486-.94-1.274a7.717,7.717,0,0,1-1.584-3.673c.043-1.494,1.479-2.3,2.045-4.087a3.093,3.093,0,0,0,2.4,1.026,1.913,1.913,0,0,1,1.846.99c.627,1.044,1.167,1.96,1.307,2.125a2.95,2.95,0,0,1-.663,2.548c-.9,1.36-1.915,1.832-1.915,2.29S9329.089,4670.909,9331.248,4671.908Z"/></g></svg>