<svg xmlns="http://www.w3.org/2000/svg" width="24.002" height="23.999" viewBox="0 0 24.002 23.999"><defs><style>.a{fill:#f68d2f;}</style></defs><g transform="translate(-9315.646 -4713.865)"><path class="a" d="M18157.648,4994.863h-18a3,3,0,0,1-3-3v-12h24v12A3,3,0,0,1,18157.648,4994.863Zm-13.141-9.114a.72.72,0,0,0-.5.194l-.793.761a.656.656,0,0,0,0,.953l3.652,3.509a.726.726,0,0,0,.992,0l6.145-5.907a.659.659,0,0,0,.205-.477.667.667,0,0,0-.205-.476l-.779-.748a.715.715,0,0,0-.988,0l-4.869,4.672-2.365-2.284A.708.708,0,0,0,18144.508,4985.75Z" transform="translate(-8821.001 -257)"/><path class="a" d="M9339.648,4715.459v5.906h-24v-5.906a1.594,1.594,0,0,1,1.594-1.594h.605a.8.8,0,0,1,.8.8v2.9a.8.8,0,0,0,.8.8h4.4a.8.8,0,0,0,.8-.8v-2.9a.8.8,0,0,1,.8-.8h4.4a.8.8,0,0,1,.8.8v2.9a.8.8,0,0,0,.8.8h4.4a.8.8,0,0,0,.8-.8v-2.9a.8.8,0,0,1,.8-.8h.605A1.6,1.6,0,0,1,9339.648,4715.459Z"/><rect class="a" width="3" height="3" rx="1" transform="translate(9320.147 4713.865)"/><rect class="a" width="3" height="3" rx="1" transform="translate(9332.147 4713.865)"/></g></svg>