<svg xmlns="http://www.w3.org/2000/svg" width="30" height="30" viewBox="0 0 30 30"><defs><style>.a{fill:#1cb7eb;}.b{fill:#fff;}</style></defs><g transform="translate(-1)"><circle class="a" cx="15" cy="15" r="15" transform="translate(1)"/><g transform="translate(8 9)"><path class="b" d="M26.9,14.411a4.942,4.942,0,0,1-1.853.558,3.451,3.451,0,0,0,1.421-1.92,7.136,7.136,0,0,1-2.1.867A3.15,3.15,0,0,0,22.02,12.8a3.4,3.4,0,0,0-3.274,3.531,3.542,3.542,0,0,0,.062.805,9.036,9.036,0,0,1-6.734-3.655,3.369,3.369,0,0,0-.432,1.8,3.527,3.527,0,0,0,1.421,2.912,2.968,2.968,0,0,1-1.483-.434v.062a3.548,3.548,0,0,0,2.595,3.469,3.637,3.637,0,0,1-.865.124,2.1,2.1,0,0,1-.618-.062,3.213,3.213,0,0,0,3.027,2.416A6.3,6.3,0,0,1,11.7,25.251a3.789,3.789,0,0,1-.8-.062,8.76,8.76,0,0,0,5,1.611c5.992,0,9.266-5.327,9.266-9.973v-.434A7.4,7.4,0,0,0,26.9,14.411Z" transform="translate(-10.9 -13.8)"/></g></g></svg>